<svg xmlns="http://www.w3.org/2000/svg" viewBox="0 0 951.66 324.73"><defs><style>.cls-1{isolation:isolate;}.cls-2{mix-blend-mode:hard-light;}.cls-3{fill:none;stroke:#0f3480;stroke-miterlimit:10;}.cls-4{fill:#0f3480;}</style></defs><g class="cls-1"><g id="圖層_2" data-name="圖層 2"><g id="圖層_1-2" data-name="圖層 1"><g class="cls-2"><g class="cls-2"><path class="cls-3" d="M44.62,28.58v26H55.31v7H44.62V73.94H55.31v7H24.49v-7H36.91V61.51H.5V54.8C10.69,37.78,20.38,20,25.23.62l7.71,2.11C28.09,21.37,18.4,38.27,8.33,54.55H36.91v-26Z"/><path class="cls-3" d="M127.88,43.62c0,28.46-12.8,38.77-25.73,38.77S76.43,72.08,76.43,43.62,89.23,4.84,102.15,4.84,127.88,15.16,127.88,43.62ZM102.15,11.8c-15.41,0-17.64,20.38-17.64,31.82s2.23,31.81,17.64,31.81S119.8,55.05,119.8,43.62,117.56,11.8,102.15,11.8Z"/><path class="cls-3" d="M193.74,28.58v26h10.69v7H193.74V73.94h10.69v7H173.61v-7H186V61.51H149.62V54.8c10.19-17,19.89-34.8,24.73-54.18l7.71,2.11c-4.85,18.64-14.54,35.54-24.61,51.82H186v-26Z"/><path class="cls-3" d="M351.94,80.9h-8l-35-60.65h-.25V73.94h11.43v7H291.79v-7H301V13.29h-9.19v-7h17.77L344,66.61h.25V13.29H332.55v-7h27.22v7h-7.83Z"/><path class="cls-3" d="M370.57,43.62c0-18.89,9.2-38.78,29.83-38.78s29.83,19.89,29.83,38.78S421,82.39,400.4,82.39,370.57,62.51,370.57,43.62Zm51.58,0c0-14.17-5.72-31.82-21.75-31.82s-21.75,17.65-21.75,31.82,5.72,31.81,21.75,31.81S422.15,57.78,422.15,43.62Z"/><path class="cls-3" d="M454.83,80.9v-7h16.28V13.29H461c-8.57,0-9.32,1.12-9.32,9.82v9.45H444V6.33h61.9V32.56H498.2V23.11c0-8.7-.75-9.82-9.32-9.82H478.81V73.94h16.28v7Z"/><path class="cls-3" d="M652.42,6.33V28h-7.71V24.73c0-10-.49-11.44-10.31-11.44H613.52V38.77h17V28.21h7.7v29.2h-7.7V45.73h-17V73.94h21.87v7H593.63v-7h12.18V13.29H593.63v-7Z"/><path class="cls-3" d="M668.82,43.62c0-18.89,9.19-38.78,29.82-38.78s29.83,19.89,29.83,38.78-9.2,38.77-29.83,38.77S668.82,62.51,668.82,43.62Zm51.57,0c0-14.17-5.71-31.82-21.75-31.82S676.9,29.45,676.9,43.62s5.71,31.81,21.74,31.81S720.39,57.78,720.39,43.62Z"/><path class="cls-3" d="M805,6.33v7h-8.33V59.15c0,16.16-8,23.24-23.48,23.24s-23.49-7.08-23.49-23.24V13.29h-8.33v-7h25.23v7h-9.2V58c0,13.43,5.6,17.4,15.79,17.4S789,71.46,789,58V13.29h-9.2v-7Z"/><path class="cls-3" d="M873.87,80.9h-8l-35-60.65h-.25V73.94h11.43v7H813.72v-7h9.19V13.29h-9.19v-7h17.77l34.42,60.28h.25V13.29H854.48v-7H881.7v7h-7.83Z"/><path class="cls-3" d="M900.46,14.29l-9.82-2.12.25-5.84c4,.5,7.83,1.49,11.8,1.49,4.85,0,9.57-1.49,15.29-1.49,18,0,33.18,11.69,33.18,37.78,0,27.35-13.67,36.79-30.32,36.79-5.6,0-11.19-1.12-16.66-.5l-12.8,1.49-1.12-7,10.2-1Zm7.7,59.65h12.43c13.42,0,22.49-7.46,22.49-28.33,0-24.86-15-33.56-26-32.32l-9,1Z"/></g><g class="cls-2"><path class="cls-3" d="M44.62,69v26H55.31v7H44.62v12.43H55.31v7H24.49v-7H36.91V101.9H.5V95.19c10.19-17,19.88-34.8,24.73-54.18l7.71,2.11C28.09,61.76,18.4,78.66,8.33,94.94H36.91V69Z"/><path class="cls-3" d="M127.88,84c0,28.46-12.8,38.77-25.73,38.77S76.43,112.47,76.43,84s12.8-38.78,25.72-38.78S127.88,55.55,127.88,84ZM102.15,52.19C86.74,52.19,84.51,72.57,84.51,84s2.23,31.81,17.64,31.81S119.8,95.44,119.8,84,117.56,52.19,102.15,52.19Z"/><path class="cls-3" d="M193.74,69v26h10.69v7H193.74v12.43h10.69v7H173.61v-7H186V101.9H149.62V95.19c10.19-17,19.89-34.8,24.73-54.18l7.71,2.11c-4.85,18.64-14.54,35.54-24.61,51.82H186V69Z"/><path class="cls-3" d="M351.94,121.29h-8l-35-60.65h-.25v53.69h11.43v7H291.79v-7H301V53.68h-9.19v-7h17.77L344,107h.25V53.68H332.55v-7h27.22v7h-7.83Z"/><path class="cls-3" d="M370.57,84c0-18.89,9.2-38.78,29.83-38.78S430.23,65.12,430.23,84s-9.2,38.77-29.83,38.77S370.57,102.9,370.57,84Zm51.58,0c0-14.17-5.72-31.82-21.75-31.82S378.65,69.84,378.65,84s5.72,31.81,21.75,31.81S422.15,98.17,422.15,84Z"/><path class="cls-3" d="M454.83,121.29v-7h16.28V53.68H461c-8.57,0-9.32,1.12-9.32,9.82V73H444V46.72h61.9V73H498.2V63.5c0-8.7-.75-9.82-9.32-9.82H478.81v60.65h16.28v7Z"/><path class="cls-3" d="M652.42,46.72V68.35h-7.71V65.12c0-10-.49-11.44-10.31-11.44H613.52V79.16h17V68.6h7.7V97.8h-7.7V86.12h-17v28.21h21.87v7H593.63v-7h12.18V53.68H593.63v-7Z"/><path class="cls-3" d="M668.82,84c0-18.89,9.19-38.78,29.82-38.78S728.47,65.12,728.47,84s-9.2,38.77-29.83,38.77S668.82,102.9,668.82,84Zm51.57,0c0-14.17-5.71-31.82-21.75-31.82S676.9,69.84,676.9,84s5.71,31.81,21.74,31.81S720.39,98.17,720.39,84Z"/><path class="cls-3" d="M805,46.72v7h-8.33V99.54c0,16.16-8,23.24-23.48,23.24s-23.49-7.08-23.49-23.24V53.68h-8.33v-7h25.23v7h-9.2V98.42c0,13.43,5.6,17.4,15.79,17.4s15.78-4,15.78-17.4V53.68h-9.2v-7Z"/><path class="cls-3" d="M873.87,121.29h-8l-35-60.65h-.25v53.69h11.43v7H813.72v-7h9.19V53.68h-9.19v-7h17.77L865.91,107h.25V53.68H854.48v-7H881.7v7h-7.83Z"/><path class="cls-3" d="M900.46,54.68l-9.82-2.12.25-5.84c4,.5,7.83,1.49,11.8,1.49,4.85,0,9.57-1.49,15.29-1.49,18,0,33.18,11.69,33.18,37.78,0,27.35-13.67,36.79-30.32,36.79-5.6,0-11.19-1.12-16.66-.5l-12.8,1.49-1.12-7,10.2-1Zm7.7,59.65h12.43c13.42,0,22.49-7.46,22.49-28.33,0-24.86-15-33.56-26-32.32l-9,1Z"/></g><g class="cls-2"><path class="cls-3" d="M44.62,109.36v26H55.31v7H44.62v12.43H55.31v7H24.49v-7H36.91V142.29H.5v-6.71c10.19-17,19.88-34.8,24.73-54.18l7.71,2.11c-4.85,18.64-14.54,35.54-24.61,51.82H36.91v-26Z"/><path class="cls-3" d="M127.88,124.4c0,28.46-12.8,38.77-25.73,38.77S76.43,152.86,76.43,124.4s12.8-38.78,25.72-38.78S127.88,95.94,127.88,124.4ZM102.15,92.58c-15.41,0-17.64,20.38-17.64,31.82s2.23,31.81,17.64,31.81,17.65-20.38,17.65-31.81S117.56,92.58,102.15,92.58Z"/><path class="cls-3" d="M193.74,109.36v26h10.69v7H193.74v12.43h10.69v7H173.61v-7H186V142.29H149.62v-6.71c10.19-17,19.89-34.8,24.73-54.18l7.71,2.11c-4.85,18.64-14.54,35.54-24.61,51.82H186v-26Z"/><path class="cls-3" d="M351.94,161.68h-8l-35-60.65h-.25v53.69h11.43v7H291.79v-7H301V94.07h-9.19v-7h17.77L344,147.39h.25V94.07H332.55v-7h27.22v7h-7.83Z"/><path class="cls-3" d="M370.57,124.4c0-18.89,9.2-38.78,29.83-38.78s29.83,19.89,29.83,38.78-9.2,38.77-29.83,38.77S370.57,143.29,370.57,124.4Zm51.58,0c0-14.17-5.72-31.82-21.75-31.82s-21.75,17.65-21.75,31.82,5.72,31.81,21.75,31.81S422.15,138.56,422.15,124.4Z"/><path class="cls-3" d="M454.83,161.68v-7h16.28V94.07H461c-8.57,0-9.32,1.12-9.32,9.82v9.45H444V87.11h61.9v26.23H498.2v-9.45c0-8.7-.75-9.82-9.32-9.82H478.81v60.65h16.28v7Z"/><path class="cls-3" d="M652.42,87.11v21.63h-7.71v-3.23c0-10-.49-11.44-10.31-11.44H613.52v25.48h17V109h7.7v29.2h-7.7V126.51h-17v28.21h21.87v7H593.63v-7h12.18V94.07H593.63v-7Z"/><path class="cls-3" d="M668.82,124.4c0-18.89,9.19-38.78,29.82-38.78s29.83,19.89,29.83,38.78-9.2,38.77-29.83,38.77S668.82,143.29,668.82,124.4Zm51.57,0c0-14.17-5.71-31.82-21.75-31.82S676.9,110.23,676.9,124.4s5.71,31.81,21.74,31.81S720.39,138.56,720.39,124.4Z"/><path class="cls-3" d="M805,87.11v7h-8.33v45.86c0,16.16-8,23.24-23.48,23.24s-23.49-7.08-23.49-23.24V94.07h-8.33v-7h25.23v7h-9.2v44.74c0,13.43,5.6,17.4,15.79,17.4s15.78-4,15.78-17.4V94.07h-9.2v-7Z"/><path class="cls-3" d="M873.87,161.68h-8l-35-60.65h-.25v53.69h11.43v7H813.72v-7h9.19V94.07h-9.19v-7h17.77l34.42,60.28h.25V94.07H854.48v-7H881.7v7h-7.83Z"/><path class="cls-3" d="M900.46,95.07,890.64,93l.25-5.84c4,.5,7.83,1.49,11.8,1.49,4.85,0,9.57-1.49,15.29-1.49,18,0,33.18,11.68,33.18,37.78,0,27.35-13.67,36.79-30.32,36.79-5.6,0-11.19-1.12-16.66-.5l-12.8,1.49-1.12-6.95,10.2-1Zm7.7,59.65h12.43c13.42,0,22.49-7.46,22.49-28.33,0-24.86-15-33.56-26-32.32l-9,1Z"/></g><g class="cls-2"><path class="cls-3" d="M44.62,149.75v26H55.31v7H44.62v12.43H55.31v7H24.49v-7H36.91V182.68H.5V176c10.19-17,19.88-34.8,24.73-54.18l7.71,2.11c-4.85,18.64-14.54,35.54-24.61,51.82H36.91v-26Z"/><path class="cls-3" d="M127.88,164.79c0,28.46-12.8,38.77-25.73,38.77s-25.72-10.31-25.72-38.77S89.23,126,102.15,126,127.88,136.33,127.88,164.79ZM102.15,133c-15.41,0-17.64,20.38-17.64,31.82s2.23,31.81,17.64,31.81,17.65-20.38,17.65-31.81S117.56,133,102.15,133Z"/><path class="cls-3" d="M193.74,149.75v26h10.69v7H193.74v12.43h10.69v7H173.61v-7H186V182.68H149.62V176c10.19-17,19.89-34.8,24.73-54.18l7.71,2.11c-4.85,18.64-14.54,35.54-24.61,51.82H186v-26Z"/><path class="cls-3" d="M351.94,202.07h-8l-35-60.65h-.25v53.69h11.43v7H291.79v-7H301V134.46h-9.19v-7h17.77L344,187.78h.25V134.46H332.55v-7h27.22v7h-7.83Z"/><path class="cls-3" d="M370.57,164.79c0-18.89,9.2-38.78,29.83-38.78s29.83,19.89,29.83,38.78-9.2,38.77-29.83,38.77S370.57,183.68,370.57,164.79Zm51.58,0c0-14.17-5.72-31.82-21.75-31.82s-21.75,17.65-21.75,31.82,5.72,31.81,21.75,31.81S422.15,179,422.15,164.79Z"/><path class="cls-3" d="M454.83,202.07v-7h16.28V134.46H461c-8.57,0-9.32,1.12-9.32,9.82v9.45H444V127.5h61.9v26.23H498.2v-9.45c0-8.7-.75-9.82-9.32-9.82H478.81v60.65h16.28v7Z"/><path class="cls-3" d="M652.42,127.5v21.63h-7.71V145.9c0-10-.49-11.44-10.31-11.44H613.52v25.48h17V149.38h7.7v29.2h-7.7V166.9h-17v28.21h21.87v7H593.63v-7h12.18V134.46H593.63v-7Z"/><path class="cls-3" d="M668.82,164.79c0-18.89,9.19-38.78,29.82-38.78s29.83,19.89,29.83,38.78-9.2,38.77-29.83,38.77S668.82,183.68,668.82,164.79Zm51.57,0c0-14.17-5.71-31.82-21.75-31.82s-21.74,17.65-21.74,31.82,5.71,31.81,21.74,31.81S720.39,179,720.39,164.79Z"/><path class="cls-3" d="M805,127.5v7h-8.33v45.86c0,16.16-8,23.24-23.48,23.24s-23.49-7.08-23.49-23.24V134.46h-8.33v-7h25.23v7h-9.2V179.2c0,13.42,5.6,17.4,15.79,17.4s15.78-4,15.78-17.4V134.46h-9.2v-7Z"/><path class="cls-3" d="M873.87,202.07h-8l-35-60.65h-.25v53.69h11.43v7H813.72v-7h9.19V134.46h-9.19v-7h17.77l34.42,60.28h.25V134.46H854.48v-7H881.7v7h-7.83Z"/><path class="cls-3" d="M900.46,135.46l-9.82-2.12.25-5.84c4,.5,7.83,1.49,11.8,1.49,4.85,0,9.57-1.49,15.29-1.49,18,0,33.18,11.68,33.18,37.78,0,27.34-13.67,36.79-30.32,36.79-5.6,0-11.19-1.12-16.66-.5l-12.8,1.49-1.12-6.95,10.2-1Zm7.7,59.65h12.43c13.42,0,22.49-7.46,22.49-28.33,0-24.86-15-33.56-26-32.32l-9,1Z"/></g><g class="cls-2"><path class="cls-3" d="M44.62,190.14v26H55.31v7H44.62V235.5H55.31v7H24.49v-7H36.91V223.07H.5v-6.71c10.19-17,19.88-34.8,24.73-54.18l7.71,2.11c-4.85,18.64-14.54,35.54-24.61,51.82H36.91v-26Z"/><path class="cls-3" d="M127.88,205.18c0,28.46-12.8,38.77-25.73,38.77s-25.72-10.31-25.72-38.77,12.8-38.78,25.72-38.78S127.88,176.72,127.88,205.18Zm-25.73-31.82c-15.41,0-17.64,20.38-17.64,31.82S86.74,237,102.15,237s17.65-20.38,17.65-31.81S117.56,173.36,102.15,173.36Z"/><path class="cls-3" d="M193.74,190.14v26h10.69v7H193.74V235.5h10.69v7H173.61v-7H186V223.07H149.62v-6.71c10.19-17,19.89-34.8,24.73-54.18l7.71,2.11c-4.85,18.64-14.54,35.54-24.61,51.82H186v-26Z"/><path class="cls-3" d="M351.94,242.46h-8l-35-60.65h-.25V235.5h11.43v7H291.79v-7H301V174.85h-9.19v-7h17.77L344,228.17h.25V174.85H332.55v-7h27.22v7h-7.83Z"/><path class="cls-3" d="M370.57,205.18c0-18.89,9.2-38.78,29.83-38.78s29.83,19.89,29.83,38.78S421,244,400.4,244,370.57,224.07,370.57,205.18Zm51.58,0c0-14.17-5.72-31.82-21.75-31.82S378.65,191,378.65,205.18,384.37,237,400.4,237,422.15,219.34,422.15,205.18Z"/><path class="cls-3" d="M454.83,242.46v-7h16.28V174.85H461c-8.57,0-9.32,1.12-9.32,9.82v9.45H444V167.89h61.9v26.23H498.2v-9.45c0-8.7-.75-9.82-9.32-9.82H478.81V235.5h16.28v7Z"/><path class="cls-3" d="M652.42,167.89v21.63h-7.71v-3.23c0-9.95-.49-11.44-10.31-11.44H613.52v25.48h17V189.77h7.7V219h-7.7V207.29h-17V235.5h21.87v7H593.63v-7h12.18V174.85H593.63v-7Z"/><path class="cls-3" d="M668.82,205.18c0-18.89,9.19-38.78,29.82-38.78s29.83,19.89,29.83,38.78S719.27,244,698.64,244,668.82,224.07,668.82,205.18Zm51.57,0c0-14.17-5.71-31.82-21.75-31.82S676.9,191,676.9,205.18,682.61,237,698.64,237,720.39,219.34,720.39,205.18Z"/><path class="cls-3" d="M805,167.89v7h-8.33v45.86c0,16.16-8,23.24-23.48,23.24s-23.49-7.08-23.49-23.24V174.85h-8.33v-7h25.23v7h-9.2v44.74c0,13.42,5.6,17.4,15.79,17.4S789,233,789,219.59V174.85h-9.2v-7Z"/><path class="cls-3" d="M873.87,242.46h-8l-35-60.65h-.25V235.5h11.43v7H813.72v-7h9.19V174.85h-9.19v-7h17.77l34.42,60.28h.25V174.85H854.48v-7H881.7v7h-7.83Z"/><path class="cls-3" d="M900.46,175.85l-9.82-2.12.25-5.84c4,.5,7.83,1.49,11.8,1.49,4.85,0,9.57-1.49,15.29-1.49,18,0,33.18,11.68,33.18,37.78,0,27.34-13.67,36.79-30.32,36.79-5.6,0-11.19-1.12-16.66-.5l-12.8,1.49-1.12-6.95,10.2-1Zm7.7,59.65h12.43c13.42,0,22.49-7.46,22.49-28.33,0-24.86-15-33.56-26-32.32l-9,1Z"/></g><g class="cls-2"><path class="cls-3" d="M44.62,230.53v26H55.31v7H44.62v12.43H55.31v7H24.49v-7H36.91V263.46H.5v-6.71c10.19-17,19.88-34.8,24.73-54.18l7.71,2.11C28.09,223.32,18.4,240.22,8.33,256.5H36.91v-26Z"/><path class="cls-3" d="M127.88,245.57c0,28.46-12.8,38.77-25.73,38.77S76.43,274,76.43,245.57s12.8-38.78,25.72-38.78S127.88,217.11,127.88,245.57Zm-25.73-31.82c-15.41,0-17.64,20.38-17.64,31.82s2.23,31.81,17.64,31.81S119.8,257,119.8,245.57,117.56,213.75,102.15,213.75Z"/><path class="cls-3" d="M193.74,230.53v26h10.69v7H193.74v12.43h10.69v7H173.61v-7H186V263.46H149.62v-6.71c10.19-17,19.89-34.8,24.73-54.18l7.71,2.11c-4.85,18.64-14.54,35.54-24.61,51.82H186v-26Z"/><path class="cls-3" d="M351.94,282.85h-8l-35-60.65h-.25v53.69h11.43v7H291.79v-7H301V215.24h-9.19v-7h17.77L344,268.56h.25V215.24H332.55v-7h27.22v7h-7.83Z"/><path class="cls-3" d="M370.57,245.57c0-18.89,9.2-38.78,29.83-38.78s29.83,19.89,29.83,38.78-9.2,38.77-29.83,38.77S370.57,264.46,370.57,245.57Zm51.58,0c0-14.17-5.72-31.82-21.75-31.82s-21.75,17.65-21.75,31.82,5.72,31.81,21.75,31.81S422.15,259.73,422.15,245.57Z"/><path class="cls-3" d="M454.83,282.85v-7h16.28V215.24H461c-8.57,0-9.32,1.12-9.32,9.82v9.45H444V208.28h61.9v26.23H498.2v-9.45c0-8.7-.75-9.82-9.32-9.82H478.81v60.65h16.28v7Z"/><path class="cls-3" d="M652.42,208.28v21.63h-7.71v-3.23c0-10-.49-11.44-10.31-11.44H613.52v25.48h17V230.16h7.7v29.2h-7.7V247.68h-17v28.21h21.87v7H593.63v-7h12.18V215.24H593.63v-7Z"/><path class="cls-3" d="M668.82,245.57c0-18.89,9.19-38.78,29.82-38.78s29.83,19.89,29.83,38.78-9.2,38.77-29.83,38.77S668.82,264.46,668.82,245.57Zm51.57,0c0-14.17-5.71-31.82-21.75-31.82S676.9,231.4,676.9,245.57s5.71,31.81,21.74,31.81S720.39,259.73,720.39,245.57Z"/><path class="cls-3" d="M805,208.28v7h-8.33V261.1c0,16.16-8,23.24-23.48,23.24s-23.49-7.08-23.49-23.24V215.24h-8.33v-7h25.23v7h-9.2V260c0,13.42,5.6,17.4,15.79,17.4S789,273.4,789,260V215.24h-9.2v-7Z"/><path class="cls-3" d="M873.87,282.85h-8l-35-60.65h-.25v53.69h11.43v7H813.72v-7h9.19V215.24h-9.19v-7h17.77l34.42,60.28h.25V215.24H854.48v-7H881.7v7h-7.83Z"/><path class="cls-3" d="M900.46,216.24l-9.82-2.12.25-5.84c4,.5,7.83,1.49,11.8,1.49,4.85,0,9.57-1.49,15.29-1.49,18,0,33.18,11.68,33.18,37.78,0,27.34-13.67,36.79-30.32,36.79-5.6,0-11.19-1.12-16.66-.5l-12.8,1.49-1.12-6.95,10.2-1Zm7.7,59.65h12.43c13.42,0,22.49-7.46,22.49-28.33,0-24.86-15-33.56-26-32.32l-9,1Z"/></g><g class="cls-2"><path class="cls-4" d="M44.62,270.92v26H55.31v7H44.62v12.43H55.31v7H24.49v-7H36.91V303.85H.5v-6.71c10.19-17,19.88-34.8,24.73-54.18l7.71,2.11c-4.85,18.64-14.54,35.54-24.61,51.82H36.91v-26Z"/><path class="cls-4" d="M127.88,286c0,28.46-12.8,38.77-25.73,38.77S76.43,314.42,76.43,286s12.8-38.78,25.72-38.78S127.88,257.5,127.88,286Zm-25.73-31.82c-15.41,0-17.64,20.38-17.64,31.82s2.23,31.81,17.64,31.81S119.8,297.39,119.8,286,117.56,254.14,102.15,254.14Z"/><path class="cls-4" d="M193.74,270.92v26h10.69v7H193.74v12.43h10.69v7H173.61v-7H186V303.85H149.62v-6.71c10.19-17,19.89-34.8,24.73-54.18l7.71,2.11c-4.85,18.64-14.54,35.54-24.61,51.82H186v-26Z"/><path class="cls-4" d="M351.94,323.24h-8l-35-60.65h-.25v53.69h11.43v7H291.79v-7H301V255.63h-9.19v-7h17.77L344,309h.25V255.63H332.55v-7h27.22v7h-7.83Z"/><path class="cls-4" d="M370.57,286c0-18.89,9.2-38.78,29.83-38.78s29.83,19.89,29.83,38.78-9.2,38.77-29.83,38.77S370.57,304.85,370.57,286Zm51.58,0c0-14.17-5.72-31.82-21.75-31.82S378.65,271.79,378.65,286s5.72,31.81,21.75,31.81S422.15,300.12,422.15,286Z"/><path class="cls-4" d="M454.83,323.24v-7h16.28V255.63H461c-8.57,0-9.32,1.12-9.32,9.82v9.45H444V248.67h61.9V274.9H498.2v-9.45c0-8.7-.75-9.82-9.32-9.82H478.81v60.65h16.28v7Z"/><path class="cls-4" d="M652.42,248.67V270.3h-7.71v-3.23c0-9.95-.49-11.44-10.31-11.44H613.52v25.48h17V270.55h7.7v29.2h-7.7V288.07h-17v28.21h21.87v7H593.63v-7h12.18V255.63H593.63v-7Z"/><path class="cls-4" d="M668.82,286c0-18.89,9.19-38.78,29.82-38.78s29.83,19.89,29.83,38.78-9.2,38.77-29.83,38.77S668.82,304.85,668.82,286Zm51.57,0c0-14.17-5.71-31.82-21.75-31.82S676.9,271.79,676.9,286s5.71,31.81,21.74,31.81S720.39,300.12,720.39,286Z"/><path class="cls-4" d="M805,248.67v7h-8.33v45.86c0,16.16-8,23.24-23.48,23.24s-23.49-7.08-23.49-23.24V255.63h-8.33v-7h25.23v7h-9.2v44.74c0,13.42,5.6,17.4,15.79,17.4s15.78-4,15.78-17.4V255.63h-9.2v-7Z"/><path class="cls-4" d="M873.87,323.24h-8l-35-60.65h-.25v53.69h11.43v7H813.72v-7h9.19V255.63h-9.19v-7h17.77L865.91,309h.25V255.63H854.48v-7H881.7v7h-7.83Z"/><path class="cls-4" d="M900.46,256.63l-9.82-2.12.25-5.84c4,.5,7.83,1.49,11.8,1.49,4.85,0,9.57-1.49,15.29-1.49,18,0,33.18,11.68,33.18,37.78,0,27.34-13.67,36.79-30.32,36.79-5.6,0-11.19-1.12-16.66-.5l-12.8,1.49-1.12-7,10.2-1Zm7.7,59.65h12.43c13.42,0,22.49-7.46,22.49-28.33,0-24.86-15-33.56-26-32.32l-9,1Z"/></g></g></g></g></g></svg>