<svg xmlns="http://www.w3.org/2000/svg" viewBox="0 0 224 224"><defs><style>.cls-1{fill:#fff;}.cls-2{fill:#2f318d;}.cls-3{fill:#aaa0c9;}.cls-4{fill:none;stroke:#574e96;stroke-linecap:round;stroke-miterlimit:10;stroke-width:4px;}.cls-5{fill:#574e96;}.cls-6{fill:#edebf4;}</style></defs><g id="圖層_2" data-name="圖層 2"><g id="圖層_1-2" data-name="圖層 1"><circle class="cls-1" cx="112" cy="112" r="111.5"/><path d="M112,1a111,111,0,0,1,78.49,189.49,111,111,0,0,1-157-157A110.3,110.3,0,0,1,112,1m0-1A112,112,0,1,0,224,112,112,112,0,0,0,112,0Z"/><path class="cls-2" d="M53.76,44.72a4,4,0,0,0-4,4V187a4,4,0,0,0,4,4H155.68a4,4,0,0,0,4-4V48.72a4,4,0,0,0-4-4Z"/><path class="cls-3" d="M174.54,32.11H72.63a4,4,0,0,0-4,4v106l36.24,36.23h69.67a4,4,0,0,0,4-4V36.11A4,4,0,0,0,174.54,32.11Z"/><line class="cls-4" x1="90.56" y1="51.36" x2="90.56" y2="159.36"/><rect class="cls-5" x="100.5" y="56.61" width="20.92" height="18.31"/><rect class="cls-5" x="100.5" y="81.46" width="62.12" height="18.31"/><rect class="cls-5" x="100.5" y="131.46" width="54.56" height="18.31"/><rect class="cls-5" x="100.5" y="106.31" width="39.88" height="18.31"/><path class="cls-3" d="M102.43,141H71.63l34.62,34.62v-30.8A3.82,3.82,0,0,0,102.43,141Z"/><path class="cls-6" d="M100.87,142.39H68.63l36.24,36.23V146.39A4,4,0,0,0,100.87,142.39Z"/></g></g></svg>