<svg xmlns="http://www.w3.org/2000/svg" viewBox="0 0 220 220"><defs><style>.cls-1{fill:#e77c00;}</style></defs><g id="圖層_2" data-name="圖層 2"><g id="圖層_1-2" data-name="圖層 1"><circle class="cls-1" cx="110" cy="110" r="110"/><path d="M165.76,77.74l-3.88,5.08a5.15,5.15,0,0,1-7.74.5L139.87,68.94a5.16,5.16,0,0,1-.06-7.19,39.9,39.9,0,0,1,5-4.58l18.16,0a17,17,0,0,1,1.63,1.41Z"/><path d="M49.77,173.48c2.33-9.37,4.43-18,6.66-26.58a8.44,8.44,0,0,1,2-3.7q34.62-34.71,69.33-69.34a4.52,4.52,0,0,1,.72-.51l21.34,21.58c-3.32,3.37-7.05,7.2-10.83,11-19.12,19.12-38.2,38.27-57.44,57.27a17.47,17.47,0,0,1-7.26,4.1C66.4,169.54,58.36,171.35,49.77,173.48Z"/></g></g></svg>