<svg xmlns="http://www.w3.org/2000/svg" viewBox="0 0 82.96 82.96"><defs><style>.cls-1{fill:#b6c1d6;}</style></defs><g id="圖層_2" data-name="圖層 2"><g id="圖層_1-2" data-name="圖層 1"><path class="cls-1" d="M47.62,3.9a19.1,19.1,0,0,0-2.33,2l-7.42,7.42,3.94,3.94,7.42-7.42a14,14,0,0,1,19.82,0l4.07,4.07a14,14,0,0,1,0,19.82l-2.18,2.18-7.6,7.6-3.68,3.68-2.1,2a14,14,0,0,1-19.82,0L36.1,47.52l-3.94,3.94L33.8,53.1A20.07,20.07,0,0,0,48.38,59l0,0A20,20,0,0,0,60.33,54.4l3-3,3.94-3.94,9.78-9.78a20.14,20.14,0,0,0,0-28.49L73.78,5.9A20.15,20.15,0,0,0,47.62,3.9Z"/><path class="cls-1" d="M9.84,49.23,12.08,47l7.54-7.54,3.68-3.67,2-1.91a14.19,14.19,0,0,1,20,0l1.57,1.58L50.8,31.5l-1.57-1.57A20.1,20.1,0,0,0,34.51,24l0,0a20.06,20.06,0,0,0-13.23,5.88l-1.64,1.64L18,33.21l-2.3,2.3L5.9,45.29a20.14,20.14,0,0,0,0,28.49l3.28,3.28a20.15,20.15,0,0,0,26.16,2,19.1,19.1,0,0,0,2.33-2l7.95-7.94-3.94-3.94-8,7.94a14.61,14.61,0,0,1-2.4,1.93,14,14,0,0,1-17.42-1.93L9.84,69.05A14,14,0,0,1,9.84,49.23Z"/></g></g></svg>