<svg xmlns="http://www.w3.org/2000/svg" viewBox="0 0 220 220"><defs><style>.cls-1{fill:#e77c00;}</style></defs><g id="圖層_2" data-name="圖層 2"><g id="圖層_1-2" data-name="圖層 1"><circle class="cls-1" cx="110" cy="110" r="110"/><path d="M78.17,117a34,34,0,0,1,24.54-7.48,32.11,32.11,0,0,1,22.66,11.37l.85-2.05c4.57-11.26,16-17.94,28.51-16.65A26.84,26.84,0,0,1,178.25,124c1,5.64-.08,11.18-1.72,16.69-3.18,10.73-10.71,16.86-20.73,20.56a79.32,79.32,0,0,1-23.56,4.36c-14.2.73-28.4.44-42.45-2a88.88,88.88,0,0,1-27.53-9.89,95.36,95.36,0,0,1-14.94-9.87c-1.43-1.16-2.93-2.22-4.35-3.39a4,4,0,0,1-1.37-4c1.88-14.34,8.64-26.65,16-38.68A234.62,234.62,0,0,1,80,67.76a8.22,8.22,0,0,1,5.53-2.92,59.3,59.3,0,0,1,13.57.3c5.24.68,7.15,4.54,8.92,8.48a25.26,25.26,0,0,1,1.59,7.16,3.88,3.88,0,0,1-1.16,2.69A68.8,68.8,0,0,1,102.53,89a5.54,5.54,0,0,1-3,1.22c-3.28.15-6.57,0-9.86.08a2.32,2.32,0,0,0-1.73.71c-4.47,7.79-8.24,15.86-9.66,24.84A11.06,11.06,0,0,0,78.17,117Zm43.52,44.35c4-.25,10.32-.44,16.56-1.08,7.9-.81,15.59-2.57,22.58-6.63a24.28,24.28,0,0,0,8.86-8.48c2.74-4.56,3.61-9.71,4.09-15,1.27-14-12-25.76-26.64-23-9.87,1.87-16.7,9.51-18.1,20-.18,1.31-.5,2.42-1.95,2.69s-2.34-.59-3-1.85a22,22,0,0,0-6.16-7.59c-12.23-9.81-31.35-7.69-40.26,4.07a2.5,2.5,0,0,1-2.84,1.14,2.32,2.32,0,0,1-1.72-2.51,61.67,61.67,0,0,1,.28-7.58c1.52-10.41,6-19.69,11.32-28.6a3.73,3.73,0,0,1,2.71-1.34c3.51-.16,7,0,10.55-.09a3.55,3.55,0,0,0,2-.67c1.56-1.25,3-2.63,4.49-4a1.55,1.55,0,0,0,.37-1c-.11-3.65-1.89-6.56-4.16-9.23a1.66,1.66,0,0,0-1-.59c-3.54-.27-7.09-.57-10.64-.68-3-.1-5.16,1-7.24,3.54C71.63,85.4,62,98.42,54.58,112.92a81.2,81.2,0,0,0-8.08,22.37c-.18,1-.33,1.86.7,2.6,3.39,2.43,6.64,5.09,10.12,7.4a91.27,91.27,0,0,0,30.43,13.12C98.18,160.78,108.82,160.82,121.69,161.33Z"/><path d="M104.51,150.76a40.6,40.6,0,0,1-27.75-10.93,2.73,2.73,0,0,1-.4-3.7c1-1.06,2.33-1,3.65.2,5.72,5.24,12.25,8.78,20.1,9.51,6.91.64,13.08-1.46,18.74-5.3.38-.26.74-.55,1.13-.79,1.46-.94,2.86-.79,3.67.38a2.31,2.31,0,0,1-.85,3.43c-3,1.84-6.07,3.87-9.37,5.1A57.18,57.18,0,0,1,104.51,150.76Z"/><path d="M151.53,117.5c-6.82-.35-11.66,3-13.66,9.51a36.6,36.6,0,0,0-1,5.23c-.26,1.63-1.14,2.56-2.53,2.5a2.29,2.29,0,0,1-2.24-2.69c.56-9.78,6.25-20.58,20.9-19.22,1.9.17,2.93,1.1,2.85,2.55s-1.3,2.32-3.28,2.2Z"/><path d="M55.8,127.15c.76.6,1.67,1,2,1.65a3.41,3.41,0,0,1-.1,2.37,16.15,16.15,0,0,1-1.55,2.47c-.64,1-.36,1.7.77,2.11,2.85,1.05,5.7,2.13,8.55,3.2,1.92.72,2.44,2.47,1,3.72a2.82,2.82,0,0,1-2.19.59,34.69,34.69,0,0,1-12-5c-1.54-1.09-2.08-2.48-1.36-4.17a44.66,44.66,0,0,1,2.79-5.47C54.07,128,55,127.72,55.8,127.15Z"/></g></g></svg>