<svg xmlns="http://www.w3.org/2000/svg" viewBox="0 0 224 224"><defs><style>.cls-1{fill:#fff;}.cls-2{fill:#2f318d;}.cls-3{fill:#edebf4;}.cls-4{fill:#8075ad;}.cls-5{fill:none;stroke:#8075ad;stroke-miterlimit:10;stroke-width:3px;}.cls-6{fill:#aaa0c9;}</style></defs><g id="圖層_2" data-name="圖層 2"><g id="圖層_1-2" data-name="圖層 1"><circle class="cls-1" cx="112" cy="112" r="111.5"/><path d="M112,1a111,111,0,0,1,78.49,189.49,111,111,0,0,1-157-157A110.3,110.3,0,0,1,112,1m0-1A112,112,0,1,0,224,112,112,112,0,0,0,112,0Z"/><rect class="cls-2" x="29.32" y="53.64" width="162.8" height="126.44" rx="22" transform="translate(227.58 6.14) rotate(90)"/><rect class="cls-3" x="55.76" y="43.72" width="109.91" height="146.28" rx="12"/><path class="cls-4" d="M132.4,29.14H117.92c0-.15,0-.3,0-.46a8.58,8.58,0,0,0-17.16,0c0,.16,0,.31,0,.46H90a6.33,6.33,0,0,0-6.32,6.32v9A6.33,6.33,0,0,0,90,50.81H132.4a6.34,6.34,0,0,0,6.32-6.32v-9A6.34,6.34,0,0,0,132.4,29.14Z"/><rect class="cls-5" x="69.18" y="67.07" width="25.29" height="25.29" rx="3"/><rect class="cls-6" x="127.43" y="48.55" width="2.71" height="46.96" transform="translate(200.82 -56.75) rotate(90)"/><rect class="cls-6" x="115.69" y="75.65" width="2.71" height="23.48" transform="translate(204.43 -29.65) rotate(90)"/><polygon class="cls-6" points="128.78 78.36 117.04 78.36 105.3 78.36 105.3 81.07 117.04 81.07 128.78 81.07 140.53 81.07 140.53 78.36 128.78 78.36"/><rect class="cls-6" x="127.43" y="85.58" width="2.71" height="46.96" transform="translate(237.85 -19.72) rotate(90)"/><rect class="cls-6" x="115.69" y="112.68" width="2.71" height="23.48" transform="translate(241.46 7.38) rotate(90)"/><polygon class="cls-6" points="128.78 115.39 117.04 115.39 105.3 115.39 105.3 118.1 117.04 118.1 128.78 118.1 140.53 118.1 140.53 115.39 128.78 115.39"/><rect class="cls-6" x="127.43" y="122.61" width="2.71" height="46.96" transform="translate(274.88 17.31) rotate(90)"/><rect class="cls-6" x="115.69" y="149.71" width="2.71" height="23.48" transform="translate(278.49 44.41) rotate(90)"/><polygon class="cls-6" points="128.78 152.42 117.04 152.42 105.3 152.42 105.3 155.13 117.04 155.13 128.78 155.13 140.53 155.13 140.53 152.42 128.78 152.42"/><rect class="cls-5" x="69.18" y="104.1" width="25.29" height="25.29" rx="3"/><rect class="cls-5" x="69.18" y="141.13" width="25.29" height="25.29" rx="3"/><path class="cls-2" d="M83.85,82l-7.91-7.91a1.59,1.59,0,0,0-2.26,0h0a1.61,1.61,0,0,0,0,2.26L83.85,86.5a1.61,1.61,0,0,0,2.26,0l22.37-22.37a1.59,1.59,0,0,0,0-2.25h0a1.59,1.59,0,0,0-2.26,0L86.11,82A1.59,1.59,0,0,1,83.85,82Z"/><path class="cls-2" d="M83.85,119l-7.91-7.91a1.59,1.59,0,0,0-2.26,0h0a1.59,1.59,0,0,0,0,2.25l10.17,10.18a1.61,1.61,0,0,0,2.26,0l22.37-22.37a1.61,1.61,0,0,0,0-2.26h0a1.61,1.61,0,0,0-2.26,0L86.11,119A1.59,1.59,0,0,1,83.85,119Z"/><path class="cls-2" d="M83.85,156l-7.91-7.91a1.59,1.59,0,0,0-2.26,0h0a1.59,1.59,0,0,0,0,2.25l10.17,10.18a1.61,1.61,0,0,0,2.26,0l22.37-22.37a1.61,1.61,0,0,0,0-2.26h0a1.61,1.61,0,0,0-2.26,0L86.11,156A1.61,1.61,0,0,1,83.85,156Z"/><path class="cls-4" d="M175.65,164.65h-1.56a11.8,11.8,0,1,0-11.44,0h-1.56a10,10,0,0,0-10,10v5.74h34.56v-5.74A10,10,0,0,0,175.65,164.65Z"/><path class="cls-6" d="M171.31,166h-1.57a11.81,11.81,0,1,0-11.43,0h-1.57a10,10,0,0,0-10,10v5.74H181.3V176A10,10,0,0,0,171.31,166Z"/></g></g></svg>