<svg xmlns="http://www.w3.org/2000/svg" viewBox="0 0 71.21 85.22"><defs><style>.cls-1,.cls-3{fill:#b6c1d6;}.cls-2{fill:#fff;}.cls-3{stroke:#fff;stroke-miterlimit:10;stroke-width:2px;}</style></defs><g id="圖層_2" data-name="圖層 2"><g id="圖層_1-2" data-name="圖層 1"><rect class="cls-1" x="1" y="8.2" width="61.03" height="76.02"/><path class="cls-2" d="M61,9.2v74H2V9.2H61m2-2H0v78H63V7.2Z"/><polygon class="cls-1" points="34.79 77.02 9.18 51.42 9.18 1 70.21 1 70.21 77.02 34.79 77.02"/><path class="cls-2" d="M69.21,2V76h-34l-25-25V2h59m2-2h-63V51.83L34.37,78H71.21V0Z"/><polygon class="cls-1" points="10.59 52.83 33.37 52.83 33.37 75.61 10.59 52.83"/><path class="cls-2" d="M32.37,53.83V73.2L13,53.83H32.37m2-2H8.18L34.37,78V51.83Z"/><line class="cls-3" x1="24.08" y1="23.05" x2="56.39" y2="23.05"/><line class="cls-3" x1="24.08" y1="15.03" x2="56.39" y2="15.03"/><line class="cls-3" x1="24.08" y1="31.07" x2="56.39" y2="31.07"/><line class="cls-3" x1="24.08" y1="39.09" x2="43.22" y2="39.09"/></g></g></svg>