<svg xmlns="http://www.w3.org/2000/svg" viewBox="0 0 322.1 302.81"><defs><style>.cls-1{fill:#574e96;}.cls-2{fill:none;}.cls-2,.cls-3{stroke:#574e96;stroke-linejoin:round;}.cls-3{fill:#fff;}.cls-4{fill:#aaa0c9;}.cls-5{fill:#f6f5fa;}.cls-6{fill:#0f3480;}.cls-7{fill:#2a2f84;}</style></defs><g id="圖層_2" data-name="圖層 2"><g id="圖層_1-2" data-name="圖層 1"><rect class="cls-1" x="20" y="51.7" width="6.11" height="42.03" transform="translate(58.17 4.99) rotate(45)"/><circle class="cls-1" cx="22.1" cy="49.22" r="8.03"/><circle class="cls-1" cx="49.52" cy="43.02" r="6.19"/><circle class="cls-1" cx="49.52" cy="68.92" r="5.47"/><rect class="cls-2" x="0.5" y="32.13" width="60.75" height="60.75"/><rect class="cls-2" x="23.96" y="185.57" width="46.8" height="46.8"/><rect class="cls-3" x="22.1" y="183.86" width="3.41" height="3.41"/><rect class="cls-3" x="68.9" y="183.86" width="3.41" height="3.41"/><rect class="cls-3" x="45.66" y="183.86" width="3.41" height="3.41" transform="translate(232.93 138.2) rotate(90)"/><rect class="cls-3" x="45.66" y="230.66" width="3.41" height="3.41" transform="translate(279.73 185) rotate(90)"/><rect class="cls-3" x="69.22" y="207.26" width="3.41" height="3.41" transform="translate(141.86 417.93) rotate(180)"/><rect class="cls-3" x="22.42" y="207.26" width="3.41" height="3.41" transform="translate(48.25 417.93) rotate(180)"/><rect class="cls-1" x="46.51" y="208.11" width="1.7" height="1.7" transform="translate(94.73 417.93) rotate(180)"/><rect class="cls-3" x="22.1" y="230.66" width="3.41" height="3.41"/><rect class="cls-3" x="68.9" y="230.66" width="3.41" height="3.41"/><polyline class="cls-4" points="194.85 239.42 165.34 253.89 184.24 195.84"/><rect class="cls-2" x="268.98" y="109.26" width="52.62" height="52.62"/><polygon class="cls-1" points="305.07 119.94 282.49 119.94 277.55 119.94 277.55 130.33 282.49 130.33 282.49 124.85 290.69 124.85 290.69 150.75 284.89 150.75 284.89 155.77 302.67 155.77 302.67 150.75 296.81 150.75 296.81 124.85 305.07 124.85 305.07 130.33 310 130.33 310 119.94 305.07 119.94"/><polyline class="cls-4" points="194.85 239.42 165.34 253.89 184.24 195.84"/><rect class="cls-1" x="105.67" y="72.47" width="123.65" height="158.2"/><path class="cls-4" d="M271.35,302.81A151.32,151.32,0,0,0,259,260c-32.26-43.15-77.79-60.6-82.32-62.26l-.12-.15H154.1l-.12.15c-4.52,1.66-50.06,19.11-82.32,62.26a151.32,151.32,0,0,0-12.32,42.82Z"/><path class="cls-4" d="M184.24,190.2V154.85H146.45v22.06C155.36,189.42,169.85,191.68,184.24,190.2Z"/><path class="cls-5" d="M146.45,176.91v87.61h37.79V190.2C169.85,191.68,155.36,189.42,146.45,176.91Z"/><polygon class="cls-1" points="143.36 200.88 109.47 226.21 131.57 232.85 128.49 262.02 168.5 280.95 143.36 200.88"/><polygon class="cls-4" points="146.09 198.16 112.2 223.48 134.3 230.13 131.21 259.29 171.23 278.22 146.09 198.16"/><polygon class="cls-1" points="187.61 199.38 223.08 222.45 201.46 230.52 206.43 259.42 166.46 282.36 187.61 199.38"/><polygon class="cls-4" points="184.5 197.59 219.96 220.65 198.34 228.72 203.31 257.62 163.34 280.56 184.5 197.59"/><ellipse class="cls-5" cx="165.34" cy="90.97" rx="62.18" ry="90.97"/><path class="cls-6" d="M100.51,68.17c-6.07,198.55-36.37,181.25,2.65,210.05,31.79,23.46,35.7,9.4,28.05-18.93-6.58-24.4-20.69-151-21.74-190.37-.12-4.39,1-7.9-3.17-5.57h0C104.39,64.41,100.57,66.17,100.51,68.17Z"/><path class="cls-6" d="M126.45,11.06C104.2,30.59,94.63,47.62,91.3,61.67c-3.15,13.25-3.55,26,10,36.3,7,5.32,13,7.51,15.9,9.12a1.26,1.26,0,0,0,1.65-1.73c-1.88-4.13-3.84-11.83-.37-22.89,4.17-13.26,13.17-22.81,17.19-26.59a1.21,1.21,0,0,1,2,1c.16,7.61,2.09,29,18.27,39a1.25,1.25,0,0,0,1.78-1.5c-1.9-6.88-5.46-24.23,2.5-37a1.2,1.2,0,0,1,2.21.61c.93,8.66,5.17,31.62,24.36,40.39a1.24,1.24,0,0,0,1.69-1.46c-1.63-8-5.93-33.83,4.8-40.63a1.23,1.23,0,0,1,1.85,1c.52,7.21,3.59,32.81,21,42.38a1.26,1.26,0,0,1,.65,1.22c-1,12.84-10.71,129.57,26.92,149L254.1,257c4.83,2.88-18-68.54-13.67-99.5,16.06-113.83-4.4-147.78-38-144.81a1.44,1.44,0,0,1-.62,0C197.55,11,147.73-7.61,126.45,11.06Z"/><path class="cls-7" d="M206.31,106.81s-1.31,7.21-23.55,4.6C182.76,111.41,188.86,95.61,206.31,106.81Z"/><path class="cls-7" d="M176.83,93s11.09-13,34.69-1.3Z"/><path class="cls-7" d="M123.33,106.81s1.31,7.21,23.55,4.6C146.88,111.41,140.78,95.61,123.33,106.81Z"/><path class="cls-7" d="M151.33,93s-11.09-13-34.69-1.3Z"/><path class="cls-7" d="M162.82,121.78v19.64S151.71,134.69,162.82,121.78Z"/><path class="cls-7" d="M153,159.87h21.15S161.68,154.17,153,159.87Z"/></g></g></svg>