<svg xmlns="http://www.w3.org/2000/svg" viewBox="0 0 1241.32 71.82"><defs><style>.cls-1{fill:#0f3480;}</style></defs><g id="圖層_2" data-name="圖層 2"><g id="圖層_1-2" data-name="圖層 1"><path class="cls-1" d="M8.06,45.47c0-31.09.21-19.89.1-36.6,0-3.36.31-4.31,1.13-4.31s2.55,1.9,3.57,2.76C14.39,8.78,29.6,22.65,45.31,36.86,55.42,46,66.54,56.49,69.81,59.33L68.69,15.59c-.11-5.6-.82-7.49-4-8.18A24.55,24.55,0,0,0,60.32,7c-1.13,0-1.43-.26-1.43-.61,0-.51.81-.6,2-.6,4.59,0,9.49.26,10.61.26s4.49-.26,8.68-.26c1.12,0,1.84.09,1.84.6,0,.35-.41.52-1.13.61s-1.43.17-2.65.34c-2.86.52-3.57,1.81-3.57,7.75L74.5,65.36c0,5.68-.2,6.11-.92,6.11s-2-.94-7.45-5.51C65,65.1,50.31,52.44,39.5,42.63,27.66,31.86,16.12,21,12.86,17.91l1.33,41.25c.2,7.06,1.22,9.3,4,10a26.36,26.36,0,0,0,5.1.52c.51,0,.82.17.82.51,0,.52-.62.69-1.84.69-5.82,0-9.9-.26-10.82-.26s-5.2.26-9.8.26c-1,0-1.63-.08-1.63-.69,0-.34.31-.51.82-.51A17.25,17.25,0,0,0,5,69.15c2.55-.6,3.06-3.1,3.06-10.94Z"/><path class="cls-1" d="M105.73,36.68c0-11.28,0-13.34-.2-15.67s-.92-3.61-3.88-4.13a19.22,19.22,0,0,0-2.45-.17c-.71,0-1.32-.26-1.32-.52,0-.52.51-.69,1.53-.69,2,0,4.79.17,10.51.26.51,0,18.67,0,20.72-.09s368.19-.17,369-.43a3.71,3.71,0,0,1,1.13-.26c.2,0,.41.18.41.61a32.67,32.67,0,0,0-.82,3.87c-.1,1.47-.21,2.84-.31,4.48,0,.78-.2,1.29-.71,1.29s-.72-.34-.72-.95a7,7,0,0,0-.71-2.75C497.3,19.81,131.35,19.2,126.25,19c-1.33-.09-11.43-.18-11.64-.18s-.51.18-.51.69V39c0,.52.1.86.62.86,1.22,0,11.63-.09,13.77-.26,2.35-.08,368.91-.34,369.73-1.29.4-.52.71-.69,1.12-.69.2,0,.41.09.41.52s-.41,2.07-.72,4.56-.3,4.14-.41,5.26c-.1.68-.3.94-.71.94s-.61-.51-.61-1.12a8.45,8.45,0,0,0-.31-2.06c-.41-1.12-366-2.33-369.93-2.59-2.34-.17-10.61-.34-12.24-.34-.62,0-.72.26-.72.6v6.29c0,2.67-.1,10.25,0,11.71.21,3.19.72,4.82,2.86,5.6,1.53.6,4,.77,7.45.77,1.94,0,370.23.09,372.78-.51,3.07-.78,3.78-2.5,4.6-5.69.2-.86.51-1.2.92-1.2.61,0,.61.77.61,1.29s-.82,6-1.12,7.49c-.41,1.72-1.13,1.89-4.49,1.89l-378.2-.17c-3.57-.08-8.27-.26-12-.26-2.35,0-4.29.26-6.74.26-.92,0-1.43-.17-1.43-.6s.41-.6.92-.6a9,9,0,0,0,2-.26c1.84-.35,3.07-1.47,3.27-6.81.1-2.92.2-6.45.2-13Z"/><path class="cls-1" d="M563.54,49.6a158.63,158.63,0,0,0,.51,15.93c.31,2.07.51,3.28,3.06,3.79a23.82,23.82,0,0,0,4,.35c.82,0,1.23.25,1.23.51,0,.43-.31.69-1.33.69-5.2,0-11.22-.26-11.63-.26s-6.43.26-9.09.26c-1.12,0-1.53-.17-1.53-.6,0-.26.31-.6,1.13-.6a18.73,18.73,0,0,0,2.24-.09c1.94-.26,2.25-1.29,2.65-4.22.41-3.1.41-9.3.41-15.76V18.86c-3.37,0-8.78,0-12.86.09-6.53.08-8,.94-9.39,2.75a13,13,0,0,0-1.53,2.67c-.3.6-.51.69-.92.69s-.51-.34-.51-.78,1.43-6.2,2-8.52c.31-1,.62-1.38.92-1.38.72,0,2.66.78,4.49.95,3.58.34,6.43.43,6.54.43h33.47a51.65,51.65,0,0,0,7.35-.43,14.58,14.58,0,0,1,1.94-.35c.41,0,.61.43.61.78,0,2.41-.2,8.09-.2,8.78s-.41,1-.72,1c-.51,0-.71-.35-.71-1a8.33,8.33,0,0,0-.1-1.2c-.41-3.45-1.74-4.31-12.05-4.39-3.88,0-7-.09-10-.09Z"/><path class="cls-1" d="M601.41,20.58c-.82.86-1.43,1.12-1.84,1.12-.82,0,.1-1.29.31-1.55,2.55-3.62,4.59-8.09,4.59-12.31,0-4.65-1.53-5.94-2.86-7.06-.51-.35-.2-.78.41-.78a22.25,22.25,0,0,1,6.84,1.21c1.53.69,2,1.29,2,2.75C610.9,9.73,605.49,16.53,601.41,20.58Z"/><path class="cls-1" d="M615.29,69.92C614,69.41,614,69.06,614,67c0-4,.31-6.89.41-8.1.1-.77.3-1.2.81-1.2s.72.25.72.86a9,9,0,0,0,.31,2.58c1.32,5.6,7.34,7.75,13.26,7.75,8.47,0,12.56-4.91,12.56-9.21,0-4.91-2.66-7.93-10.11-13L627.84,44C618,37.37,616,32.81,616,27.73c0-7.92,7.45-13.26,18.88-13.26a42.18,42.18,0,0,1,8.27.69,20.22,20.22,0,0,0,3.47.43c.71,0,.92.17.92.51s-.41,3.36-.41,8.36c0,1.29-.2,1.81-.72,1.81s-.61-.35-.71-.95a10.15,10.15,0,0,0-1.22-4.05c-.51-.77-2.86-4.05-11.43-4.05-6.13,0-10.72,3.1-10.72,8.27,0,4.05,2.45,6.54,10.92,12L635.6,39C646.21,45.9,649,50.46,649,56.58c0,3.1-1.53,8.61-7.76,12.23a29.29,29.29,0,0,1-13.78,3A33.52,33.52,0,0,1,615.29,69.92Z"/><path class="cls-1" d="M716.73,46.07c0,12.66.41,18.17,2.25,19.72,1.63,1.38,4.29,2,12.25,2,5.41,0,9.9-.08,12.35-2.58A11.24,11.24,0,0,0,746.23,60c.1-.69.31-1.12.92-1.12s.61.35.61,1.29a46.75,46.75,0,0,1-1.53,8.62c-.71,2-1,2.32-6.43,2.32-8.78,0-17.45-.52-27.35-.52-3.17,0-6.23.26-10,.26-1.13,0-1.64-.17-1.64-.69,0-.26.21-.51.82-.51a18.75,18.75,0,0,0,3.06-.35c2-.34,2.55-2.24,3-4.73.51-3.62.51-10.42.51-18.69V30.74c0-13.43,0-15.84-.2-18.6-.21-2.93-1-4.3-4.39-4.91A22.85,22.85,0,0,0,700.1,7c-.41,0-.82-.18-.82-.52,0-.52.51-.69,1.64-.69,4.59,0,11,.26,11.53.26s8-.26,11-.26c1.12,0,1.63.17,1.63.69,0,.34-.4.52-.81.52a28.37,28.37,0,0,0-3.37.25c-3,.43-3.78,1.9-4,4.91-.21,2.76-.21,5.17-.21,18.6Z"/><path class="cls-1" d="M766.23,36.68c0-11.36,0-13.43-.2-15.75s-.82-3.62-3-4c-1-.17-1.73-.17-2.35-.25s-1.12-.26-1.12-.61.41-.6,1.53-.6c3.17,0,9,.26,9.29.26s6.33-.26,9.18-.26c1,0,1.54.17,1.54.6s-.31.52-1.13.61c-.61.08-1.12.08-1.83.17-3,.34-3.27,1.63-3.47,4.13-.21,2.33-.11,4.31-.11,15.67V49.6c0,6.63-.1,12.66.41,15.76.41,2.5.82,3.45,3.47,4a27.79,27.79,0,0,0,3.88.35c.92.08,1.12.25,1.12.6s-.41.6-1.43.6c-5.2,0-11.12-.26-11.63-.26-.31,0-6.33.26-9.19.26-.91,0-1.63-.17-1.63-.6s.41-.6,1.33-.6a14.72,14.72,0,0,0,2.45-.26c1.73-.35,2-2.07,2.34-4.14.51-3.1.51-9.21.51-15.67Z"/><path class="cls-1" d="M806.24,36.68c0-11.28,0-13.34-.2-15.67s-.72-3.79-3.88-4.05c-.92-.08-1.63-.08-2.55-.17s-1.33-.34-1.33-.69.51-.6,1.53-.6c3.68,0,7,.26,10.41.26,1.53,0,20.11,0,22.25-.09a17.93,17.93,0,0,0,4.59-.6,4,4,0,0,1,1-.26c.31,0,.52.26.31.78a16.05,16.05,0,0,0-.61,2.67,58.42,58.42,0,0,0-.51,6c0,.95-.31,1.3-.72,1.3s-.71-.43-.81-1c0-.94-.41-3.27-1.64-4.3s-3.16-1.12-5.71-1.21c-4.39-.08-8.37-.17-12.86-.17-.71,0-.92.17-.92.86V39.18c0,.43.1.78.72.78,4.18,0,9.08,0,12.45-.09,4.18-.09,5.51-.26,6.83-1.64.41-.43.62-.68,1-.68s.4.34.4.77-.4,1.9-.71,4.48a37.38,37.38,0,0,0-.41,5c0,.86-.2,1.3-.71,1.3s-.62-.52-.72-1.3c-.1-1.2-.3-4.13-5.31-4.65-2-.26-11.22-.26-12.85-.26-.62,0-.72.18-.72.78v6c0,5.77.1,10.93.21,14.38.1,4.3.81,4.91,3.67,5.25,1.33.17,2.24.26,3.16.35s1.23.25,1.23.6-.31.6-1.33.6c-5.31,0-10.92-.26-11.33-.26h-.71c-1.94.09-6.13.26-8.27.26-.92,0-1.43-.17-1.43-.6,0-.26.21-.52,1-.6,1-.09,1.53-.09,2.15-.18,2.34-.25,2.65-1.63,2.85-4.73s.41-8.27.41-15.16Z"/><path class="cls-1" d="M859,36.68c0-11.28,0-13.34-.21-15.67s-.91-3.61-3.87-4.13a19.49,19.49,0,0,0-2.45-.17c-.72,0-1.33-.26-1.33-.52,0-.52.51-.69,1.53-.69,2,0,4.8.17,10.51.26.51,0,368.43,0,370.47-.09a16.36,16.36,0,0,0,4-.43,3.71,3.71,0,0,1,1.13-.26c.2,0,.4.18.4.61a33.57,33.57,0,0,0-.81,3.87c-.1,1.47-.21,2.84-.31,4.48,0,.78-.2,1.29-.71,1.29s-.72-.34-.72-.95a7.22,7.22,0,0,0-.71-2.75c-.61-1.72-351.29-2.33-356.39-2.58-1.33-.09-11.43-.18-11.63-.18s-.51.18-.51.69V39c0,.52.1.86.61.86,1.22,0,11.63-.09,13.78-.26,2.34-.08,353.63-.34,354.44-1.29.41-.52.72-.69,1.13-.69.2,0,.41.09.41.52s-.41,2.07-.72,4.56-.31,4.14-.41,5.26c-.1.68-.3.94-.71.94s-.61-.51-.61-1.12a8.45,8.45,0,0,0-.31-2.06c-.41-1.12-350.77-2.33-354.65-2.59-2.35-.17-10.62-.34-12.25-.34-.61,0-.71.26-.71.6v6.29c0,2.67-.11,10.25,0,11.71.2,3.19.71,4.82,2.85,5.6,1.54.6,4,.77,7.45.77,1.94,0,355,.09,357.51-.51,3.07-.78,3.78-2.5,4.6-5.69.2-.86.51-1.2.91-1.2.62,0,.62.77.62,1.29s-.82,6-1.13,7.49c-.4,1.72-1.12,1.89-4.49,1.89l-362.91-.17c-3.58-.08-8.27-.26-12-.26-2.34,0-4.28.26-6.73.26-.92,0-1.43-.17-1.43-.6s.41-.6.92-.6a9.12,9.12,0,0,0,2-.26c1.84-.35,3.06-1.47,3.26-6.81.11-2.92.21-6.45.21-13Z"/></g></g></svg>