<svg xmlns="http://www.w3.org/2000/svg" viewBox="0 0 94.37 117.17"><defs><style>.cls-1{fill:#123576;}.cls-2{fill:#fff;stroke:#123576;stroke-miterlimit:10;stroke-width:0.25px;}</style></defs><g id="圖層_2" data-name="圖層 2"><g id="圖層_1-2" data-name="圖層 1"><path class="cls-1" d="M90.24,2.08c2.82,0,1.81,0,3.32,0,.31,0,.39,0,.39.1s-.17.23-.25.33L91,5.46c-.83.92-1.78,1.93-2,2.23l4-.1c.51,0,.68-.08.75-.37a2.31,2.31,0,0,0,0-.39c0-.11,0-.13.05-.13s0,.07,0,.18c0,.42,0,.86,0,1s0,.4,0,.78c0,.11,0,.17,0,.17s-.05,0-.05-.1,0-.13,0-.24c0-.26-.16-.33-.7-.33l-4.57,0c-.51,0-.55,0-.55-.08s.08-.18.5-.68c.08-.1,1.23-1.43,2.12-2.41s2-2.13,2.24-2.42L89,2.64c-.65,0-.85.11-.91.36a2.33,2.33,0,0,0,0,.46s0,.08,0,.08-.07-.06-.07-.17c0-.53,0-.9,0-1s0-.48,0-.89c0-.1,0-.15.07-.15s0,0,0,.07a1.52,1.52,0,0,0,0,.38c0,.23.28.28,1,.28Z"/><path class="cls-1" d="M91,11c1,0,1.21,0,1.42,0s.33-.08.38-.35c0-.06,0-.15,0-.22s0-.12.05-.12.06,0,.06.14,0,.43,0,.95c0,.05,0,1.7,0,1.88s0,33.44,0,33.52a.22.22,0,0,1,0,.1s0,0-.06,0a3.2,3.2,0,0,0-.35-.07l-.41,0c-.07,0-.11,0-.11-.06s0-.07.08-.07a.6.6,0,0,0,.25-.06c.16-.06.21-33.29.24-33.76,0-.12,0-1,0-1.05s0,0-.06,0H90.83s-.08,0-.08.06,0,1.05,0,1.25,0,33.5.12,33.58a.1.1,0,0,1,.06.1s0,0,0,0l-.41-.06c-.22,0-.38,0-.48,0s-.08,0-.08-.06,0-.06.1-.06l.19,0c.1,0,.21-33.24.23-33.59s0-1,0-1.11,0-.07,0-.07h-.57c-.25,0-.93,0-1.07,0-.29,0-.44.07-.51.26a2.22,2.22,0,0,0-.07.68c0,.17,0,33.62.05,33.85s.23.35.52.42c.08,0,.11,0,.11.08s-.07.06-.12.06l-.68-.1c-.16,0-.17-.11-.17-.41,0-.61,0-34,0-34.35s0-.75,0-1.09,0-.39,0-.61,0-.13.06-.13.05,0,.05.08a.68.68,0,0,0,0,.19c0,.16.13.27.61.29l1.18,0Z"/><path class="cls-1" d="M89.86,52.53c-.6,0-1.15,0-1.44,0s-.3,0-.35.28a2.6,2.6,0,0,0,0,.36c0,.08,0,.12,0,.12s-.07,0-.07-.13c0-.47,0-1,0-1.05s0-.59,0-.83,0-.14.06-.14.05,0,.05.11a1.34,1.34,0,0,0,0,.2c0,.18.12.2.38.24a13.77,13.77,0,0,0,1.43,0h2.8c0-.31,0-.8,0-1.17,0-.59-.09-.72-.25-.85a1.18,1.18,0,0,0-.24-.14c-.06,0-.07,0-.07-.09s0,0,.07,0,.57.13.78.18.12.06.12.09S93,50,93,50.16c0,.32,0,.58,0,.59v3a3.91,3.91,0,0,0,0,.67c0,.12,0,.14,0,.17a.07.07,0,0,1-.07.06l-.8,0c-.07,0-.09,0-.09-.07s0-.06.09-.06h.11c.31,0,.39-.16.4-1.09,0-.36,0-.64,0-.91Z"/><path class="cls-1" d="M92.5,56c-.08-.08-.1-.13-.1-.17s.12,0,.14,0a2,2,0,0,0,1.12.41A.69.69,0,0,0,94.3,56c0-.05.07,0,.07,0a2.15,2.15,0,0,1-.11.62c-.06.14-.12.19-.25.19A2.62,2.62,0,0,1,92.5,56Z"/><path class="cls-1" d="M88,57.23c0-.12.08-.12.26-.12.36,0,.63,0,.74,0s.11,0,.11.08,0,.06-.08.06a.72.72,0,0,0-.23,0c-.51.12-.71.67-.71,1.21,0,.77.45,1.14.84,1.14s.72-.25,1.18-.92l.24-.37c.6-.89,1-1.08,1.48-1.08.72,0,1.21.68,1.21,1.72a3.75,3.75,0,0,1-.07.75,1.93,1.93,0,0,0,0,.31c0,.07,0,.09,0,.09a7.26,7.26,0,0,0-.76,0c-.12,0-.17,0-.17-.07s0,0,.09-.06a1,1,0,0,0,.37-.11c.07-.05.36-.26.36-1,0-.56-.28-1-.75-1s-.59.22-1.08,1l-.14.21c-.63,1-1,1.22-1.6,1.22a1.32,1.32,0,0,1-1.11-.71,2.58,2.58,0,0,1-.27-1.25A3.09,3.09,0,0,1,88,57.23Z"/><path class="cls-1" d="M90.18,66.44c-1.14,0-1.65,0-1.79.2s-.18.39-.18,1.12c0,.49,0,.9.24,1.12a1,1,0,0,0,.47.24c.06,0,.1,0,.1.08s0,.06-.12.06a4.83,4.83,0,0,1-.78-.14c-.18-.07-.21-.09-.21-.58,0-.8,0-1.59,0-2.49,0-.29,0-.56,0-.91,0-.1,0-.15.07-.15s0,0,0,.08,0,.19,0,.28.21.23.43.27,1,0,1.7,0h1.38c1.22,0,1.44,0,1.69,0s.39-.09.44-.39a1.73,1.73,0,0,0,0-.32s0-.07,0-.07.06,0,.06.14c0,.42,0,1,0,1s0,.72,0,1c0,.1,0,.15-.06.15s0,0,0-.07a2,2,0,0,0,0-.31c0-.27-.17-.34-.44-.36s-.47,0-1.69,0Z"/><path class="cls-1" d="M91,70.94c1,0,1.22,0,1.43,0s.33-.08.36-.27,0-.16,0-.21,0-.11.06-.11,0,0,0,.14c0,.29,0,.82,0,.85s0,.57,0,.83c0,.09,0,.14,0,.14s0,0-.06-.1a.91.91,0,0,1,0-.17c0-.27-.15-.3-.38-.31s-.39,0-1.42,0H89.86a14.2,14.2,0,0,0-1.43,0c-.22,0-.31.08-.36.32a3,3,0,0,0,0,.35c0,.08,0,.1-.05.1s-.06,0-.06-.13c0-.47,0-1,0-1.05s0-.58,0-.84c0-.08,0-.15.06-.15s.05,0,.05.12a1.11,1.11,0,0,0,0,.23c0,.15.18.18.37.21a10.86,10.86,0,0,0,1.42,0Z"/><path class="cls-1" d="M91,74.57c1,0,1.21,0,1.42,0s.34-.06.37-.35a1.77,1.77,0,0,0,0-.23c0-.08,0-.12.07-.12s0,0,0,.14c0,.33,0,.64,0,.94,0,.14,0,1.83,0,2a1.4,1.4,0,0,0,0,.42.2.2,0,0,1,0,.09s0,.05-.07,0a1.2,1.2,0,0,0-.24-.06c-.2,0-.34,0-.55,0s-.11,0-.11-.07,0-.06.09-.07a.58.58,0,0,0,.39-.15.94.94,0,0,0,.11-.52c0-.4,0-.76,0-1.17,0-.06,0-.08-.08-.08H90.81s-.07,0-.07.06c0,.38,0,.83,0,1.14s0,.5.15.62.06,0,.06.09,0,0-.07,0-.17,0-.41-.07a3.15,3.15,0,0,0-.45,0c-.08,0-.12,0-.12-.06s0-.06.12-.07.37,0,.42-.48c0-.18,0-1,0-1.17s0-.06-.07-.06h-.54l-1.31,0c-.39,0-.45.07-.48.33s0,.21,0,.29,0,.11-.05.11-.06,0-.06-.12c0-.48,0-1,0-1v-.06c0-.18,0-.56,0-.75S88,74,88,74s0,0,.05.09,0,.14,0,.19c0,.22.15.24.43.26s.75,0,1.37,0Z"/><path class="cls-1" d="M91,79.36c1,0,1.21,0,1.42,0s.33-.08.38-.35c0,0,0-.15,0-.22s0-.12.05-.12.06,0,.06.14,0,.43,0,.95c0,.05,0,33.46,0,33.65a1.48,1.48,0,0,0,0,.36.22.22,0,0,1,0,.1s0,0-.06,0a2.36,2.36,0,0,0-.35-.08l-.41,0c-.07,0-.11,0-.11-.07s0-.06.08-.06a.58.58,0,0,0,.25-.07c.16,0,.21-31.9.24-32.37,0-.12,0-1,0-1s0,0-.06,0H90.83s-.08,0-.08.06,0,1,0,1.25,0,32.11.12,32.19.06.06.06.1,0,0,0,0l-.41-.07-.48,0c-.06,0-.08,0-.08-.07s0,0,.1,0l.19,0c.1,0,.21-31.86.23-32.21s0-1,0-1.11,0-.07,0-.07h-.57c-.25,0-.93,0-1.07,0-.29,0-.44.07-.51.26a2.22,2.22,0,0,0-.07.68c0,.17,0,32.23.05,32.47s.23.34.52.41c.08,0,.11,0,.11.09s-.07,0-.12,0-.55-.07-.68-.1-.17-.1-.17-.41c0-.61,0-32.63,0-33s0-.75,0-1.09,0-.39,0-.61,0-.13.06-.13.05,0,.05.08a.68.68,0,0,0,0,.19c0,.16.13.27.61.29.27,0,.59,0,1.18,0Z"/><path class="cls-1" d="M7.07,39.65a8.43,8.43,0,0,1,5.68,2.53c1.5,1.51,1.27,1.86,3.41,4.45s3.58,3,4.75,3.93,2.16-.44,4.12,5.2c.33.94.65,1.79,1,2.55l-1.12.5c-.36.15-.47-.15-.91.15s.77.6,1.13.44,1.22.69,1.22.69-1.19-.23-1.56,0-.6.12-1.2.34.52,1.34.83.66,1.36-.08,2.2-.09.05.91-1.77.72-1.4,1.45-1.13,1,0,0,.69-.38c.39-.22,2.16.16,3.62.52a5.42,5.42,0,0,1,.5,3c-.39,2.33.13,6.41,1.35,7.65s3,1.91,4.79,3.7,3.84,3.42,4.22,4.67,2.74,8,5.1,10.93,3.53,3.25,5.57,3.74,2.87-.07,3.58,0a4.41,4.41,0,0,1,1.56.63s-2.05,5.55,6.06,9.16S74.05,100.43,70.44,95s-8.06-6-12.13-3.42c0,0-1.42.41-1.84-2.7s-.93-5.77-2.54-7.31S52.17,78,51.52,77.83s-1.11-.19-2.43-2.12S45,70.06,44,68.47,41,67,40.47,65s-.41-7-2.18-11-3-7.84-3.7-8.59S31.16,44,29.73,43.32s-6.45.06-10.74-3-6.91-8.2-5.34-10.87,3.6-4.81,4.06-5.79.29-1.24-.76-.85-2.34,1.27-2.64,1.1-.84.29-1.55,1.06-.43-.37-.89-.34-1-.36-1.7.41-.38.82-1.11,1.41S8.41,27.8,7.81,28.3,4.28,37.49,4.52,38,4.69,39.48,7.07,39.65Z"/><path class="cls-1" d="M3.1,11.38,2.41,12,1.12,9.39a17.77,17.77,0,0,0,2.3.25h7a30.46,30.46,0,0,0,1.69-9c0-.39.11-.49.36-.49C13.11.12,17,1.29,17,2.26c0,.44-.79,1-1,1.12C15.34,5.51,14.69,7.55,14,9.64h9.8c.32-.44,1.44-2.33,2-2.33s2.67,3,2.67,3.59c0,.19-.18.48-.36.48H16.93a35.93,35.93,0,0,0,6.48,7.77,26.11,26.11,0,0,0,5.18,3.64c.26.09.87.24.87.68s-.83.53-1.05.58a6.27,6.27,0,0,0-3.06,2.42,22.5,22.5,0,0,1-3.6-3.63,30.47,30.47,0,0,1-6-11.46H13.4a51,51,0,0,1-4.11,7.23,22.36,22.36,0,0,1-8.21,7.14c-.18.05-.79.43-.94.43S0,26.09,0,26c0-.34.61-.87.79-1a58.44,58.44,0,0,0,4.72-5.73,29.52,29.52,0,0,0,4.25-7.86ZM3,43.22a3.06,3.06,0,0,1-.93.63c-.08,0-.15-.1-.15-.2A.53.53,0,0,1,2,43.31a45.57,45.57,0,0,0,3.27-6,27.83,27.83,0,0,0,1.84-4.7,12.56,12.56,0,0,0,.32-1.55c0-.1.11-.2.18-.2.47,0,3.71,2.77,3.71,3.35,0,.39-.68.63-.9.73C8.17,38.12,5.91,41.23,3,43.22ZM22.44,25.94c.28,0,.72.49.93.78s1.91,2.08,1.91,2.72a.56.56,0,0,1-.54.53H16a1.17,1.17,0,0,1,.61.92c0,.44-.47.83-.72,1V42.49a8.59,8.59,0,0,1-.25,2.33c-.54,1.6-2.74,1.84-3.86,1.94a12.1,12.1,0,0,0-.14-1.21A3.68,3.68,0,0,0,9.94,43c-.14,0-1.19-.43-1.19-.68A.27.27,0,0,1,9,42c.9,0,1.76.25,2.66.25.72,0,1.19,0,1.19-1.12v-8.3c0-1-.07-1.89-.14-2.86H5.91l-.69.63L3.93,28a18.46,18.46,0,0,0,2.34.29H20.46C20.71,27.93,21.9,25.94,22.44,25.94Zm-5.15-7.47c.28,0,.64.53.79.77a9.15,9.15,0,0,1,1.37,2.43c0,.29-.36.44-.54.44H11.42l-.69.63L9.4,20.12a18.69,18.69,0,0,0,2.34.29h4C15.85,20.22,16.85,18.47,17.29,18.47ZM23.7,43.65c-1.05,0-1.55-1.16-1.95-2.28l-.83-2.28A14.21,14.21,0,0,0,18.76,35c-.43-.54-.86-1.07-1.33-1.56a1.51,1.51,0,0,1-.32-.34.57.57,0,0,1-.08-.24c.58-.15,2.63.92,3.1,1.16,1.87,1.07,5.19,4.08,5.19,7.14C25.32,42.44,24.71,43.65,23.7,43.65Z"/><path class="cls-2" d="M5.73,11.38,5.05,12,3.75,9.39a18.12,18.12,0,0,0,2.31.25h7a30.46,30.46,0,0,0,1.69-9c0-.39.11-.49.36-.49.68,0,4.54,1.17,4.54,2.14,0,.44-.8,1-1.05,1.12C18,5.51,17.33,7.55,16.68,9.64h9.8c.32-.44,1.44-2.33,2-2.33s2.66,3,2.66,3.59c0,.19-.18.48-.36.48H19.56A36.51,36.51,0,0,0,26,19.15a25.89,25.89,0,0,0,5.19,3.64c.25.09.86.24.86.68s-.82.53-1,.58A6.22,6.22,0,0,0,28,26.47a21.71,21.71,0,0,1-3.6-3.63,30.33,30.33,0,0,1-6-11.46H16a50,50,0,0,1-4.1,7.23,22.44,22.44,0,0,1-8.21,7.14c-.18.05-.8.43-.94.43A.19.19,0,0,1,2.63,26c0-.34.62-.87.8-1a57,57,0,0,0,4.71-5.73,29.52,29.52,0,0,0,4.25-7.86ZM5.59,43.22a3.23,3.23,0,0,1-.94.63c-.07,0-.14-.1-.14-.2a.58.58,0,0,1,.14-.34,44.47,44.47,0,0,0,3.28-6,27.83,27.83,0,0,0,1.84-4.7,12.56,12.56,0,0,0,.32-1.55c0-.1.11-.2.18-.2.47,0,3.71,2.77,3.71,3.35,0,.39-.69.63-.9.73C10.81,38.12,8.54,41.23,5.59,43.22ZM25.07,25.94c.29,0,.72.49.94.78s1.91,2.08,1.91,2.72a.57.57,0,0,1-.54.53H18.66a1.17,1.17,0,0,1,.61.92c0,.44-.47.83-.72,1V42.49a8.21,8.21,0,0,1-.25,2.33c-.54,1.6-2.74,1.84-3.85,1.94a12.12,12.12,0,0,0-.15-1.21A3.65,3.65,0,0,0,12.57,43c-.14,0-1.18-.43-1.18-.68a.27.27,0,0,1,.28-.29c.9,0,1.77.25,2.67.25.72,0,1.19,0,1.19-1.12v-8.3c0-1-.07-1.89-.15-2.86H8.54l-.68.63L6.56,28a18.69,18.69,0,0,0,2.34.29H23.09C23.34,27.93,24.53,25.94,25.07,25.94Zm-5.15-7.47c.29,0,.65.53.79.77a8.89,8.89,0,0,1,1.37,2.43c0,.29-.36.44-.54.44H14.05l-.68.63L12,20.12a18.85,18.85,0,0,0,2.35.29h4C18.48,20.22,19.49,18.47,19.92,18.47Zm6.41,25.18c-1,0-1.55-1.16-1.94-2.28l-.83-2.28A14.21,14.21,0,0,0,21.4,35c-.43-.54-.87-1.07-1.33-1.56a1.79,1.79,0,0,1-.33-.34.73.73,0,0,1-.07-.24c.58-.15,2.63.92,3.1,1.16C24.64,35.11,28,38.12,28,41.18,28,42.44,27.34,43.65,26.33,43.65Z"/><path class="cls-1" d="M57.92,16.16V6.4a11.47,11.47,0,0,0-.08-1.65c-.07-.58-.39-1.16-.39-1.65,0-.29.11-.38.32-.38a9.86,9.86,0,0,1,3.71,1.55,1,1,0,0,1,.33.73c0,.38-.9,1-1.12,1.16v10H61c.18-.34,1.11-1.94,1.55-1.94.25,0,.5.38.64.63a10,10,0,0,1,1.52,2.71.47.47,0,0,1-.47.49H60.69V26.1C61.34,25.72,63.93,24,64,24s.25.1.25.19-.22.44-.29.54c-1.11,1.26-2.23,2.57-3.31,3.88V41c0,2,.14,4,.22,6a16.85,16.85,0,0,1-3.25,1.16c.08-2.08.22-4.22.26-6.3,0-3.4,0-6.85,0-10.24A35.73,35.73,0,0,0,54.1,36.2l-2-4.66A51.89,51.89,0,0,0,57.92,28v-9.9h-2.6A46.36,46.36,0,0,1,53,24.89c-.11.24-.51,1.31-.72,1.31S52,26,52,25.86a6.11,6.11,0,0,1,.18-1.11c.29-1.65.5-3.3.68-4.95a63.27,63.27,0,0,0,.65-7.91c0-.88-.14-1.8-.14-2.67,0-.24.11-.29.25-.29A20.2,20.2,0,0,1,57,10.38a.77.77,0,0,1,.29.54c0,.34-.54.87-.69,1.06-.28,1.41-.57,2.77-.86,4.18Zm11.16-2.53H66l-.65.63L64,11.64a15.54,15.54,0,0,0,2.2.3h2.84V7a15.32,15.32,0,0,0-.18-2.87,12,12,0,0,1-.36-1.36.4.4,0,0,1,.4-.38,12.59,12.59,0,0,1,3.74,1.45.92.92,0,0,1,.18.49c0,.29-.65,1-.79,1.16v6.46h1.55c.14-.2,1.26-1.95,1.65-1.95s.51.39.65.59,1.62,2.13,1.62,2.67a.36.36,0,0,1-.39.38H72.07v6.89h3.06c.07-.14,1.33-2.08,1.66-2.08s.57.48.72.68,1.62,1.94,1.62,2.57c0,.44-.25.53-.54.53H72.43A15.64,15.64,0,0,1,75,23.53a.65.65,0,0,1,.29.54c0,.34-.72.92-.9,1.06v3.74H75C75,28.73,76.14,27,76.43,27s1.65,2.18,1.8,2.37a1.36,1.36,0,0,1,.29.73.42.42,0,0,1-.47.44H74.41V44.11a3.58,3.58,0,0,1-.76,2.67C72.61,48,71.6,48,70.27,48c-.15-2.13-.15-2.86-1.73-3.88-.25-.15-1.15-.54-1.15-.92,0-.2.11-.25.25-.25a23.75,23.75,0,0,0,2.7.25c.65,0,1,0,1-1.07V30.57h-6.3l-.61.63-1.3-2.62a17.17,17.17,0,0,0,2.24.29h6v-3.3a21.08,21.08,0,0,0-.25-3.35H64.69l-.65.63-1.3-2.62a17,17,0,0,0,2.23.29h4.11ZM64,31.73a5,5,0,0,1,1.44.88,6.77,6.77,0,0,1,2.74,4.9c0,1-.5,2.42-1.4,2.42a1.63,1.63,0,0,1-1.41-1.4c-.25-1.17-.11-2.38-.4-3.5a10.41,10.41,0,0,0-.82-2.28c0-.14-.36-.68-.36-.77A.23.23,0,0,1,64,31.73Z"/><path class="cls-2" d="M56,14.2V4.44a13.09,13.09,0,0,0-.07-1.65,17,17,0,0,1-.4-1.65c0-.29.11-.38.32-.38a9.86,9.86,0,0,1,3.71,1.55,1,1,0,0,1,.33.73c0,.39-.9,1-1.12,1.16v10H59c.18-.34,1.11-1.94,1.55-1.94.25,0,.5.39.65.63s1.51,2.13,1.51,2.72a.45.45,0,0,1-.47.48H58.73v8.06c.65-.39,3.24-2.09,3.35-2.09s.25.1.25.19a1.08,1.08,0,0,1-.29.54c-1.11,1.26-2.23,2.57-3.31,3.88V39c0,2,.14,4,.22,6a17.5,17.5,0,0,1-3.24,1.17c.07-2.09.21-4.23.25-6.31,0-3.4,0-6.85,0-10.24a36.44,36.44,0,0,0-3.82,4.56l-2-4.66A51,51,0,0,0,56,26v-9.9h-2.6A46.36,46.36,0,0,1,51,22.93c-.11.25-.51,1.31-.72,1.31s-.22-.19-.22-.34a6.11,6.11,0,0,1,.18-1.11c.29-1.65.51-3.3.69-4.95a65.05,65.05,0,0,0,.64-7.91c0-.88-.14-1.8-.14-2.67,0-.24.11-.29.25-.29A20.2,20.2,0,0,1,55,8.42a.77.77,0,0,1,.29.54c0,.34-.54.87-.69,1.06-.28,1.41-.57,2.77-.86,4.18Zm11.16-2.53H64l-.65.64L62.08,9.69a17.39,17.39,0,0,0,2.2.29h2.84V5a15.38,15.38,0,0,0-.18-2.87A11.88,11.88,0,0,1,66.58.81.4.4,0,0,1,67,.42a12.59,12.59,0,0,1,3.74,1.45.92.92,0,0,1,.18.49c0,.29-.65,1-.79,1.16V10h1.55C71.8,9.78,72.92,8,73.32,8s.5.38.64.58,1.62,2.13,1.62,2.67a.36.36,0,0,1-.39.38H70.11v6.9h3.06c.07-.15,1.33-2.09,1.66-2.09s.57.48.72.68,1.62,1.94,1.62,2.57c0,.44-.25.53-.54.53H70.47a15.64,15.64,0,0,1,2.59,1.31.67.67,0,0,1,.29.54c0,.34-.72.92-.9,1.07v3.73H73c.07-.14,1.19-1.84,1.48-1.84s1.65,2.18,1.8,2.38a1.29,1.29,0,0,1,.29.72.42.42,0,0,1-.47.44H72.45V42.15a3.62,3.62,0,0,1-.75,2.67c-1,1.26-2.06,1.21-3.39,1.21-.14-2.13-.14-2.86-1.73-3.88-.25-.15-1.15-.53-1.15-.92,0-.2.11-.25.25-.25a24,24,0,0,0,2.7.25c.65,0,1.05,0,1.05-1.07V28.61H63.12l-.61.63-1.29-2.62a17,17,0,0,0,2.23.29h6v-3.3a21.09,21.09,0,0,0-.26-3.35H62.73l-.65.63-1.3-2.62a17.2,17.2,0,0,0,2.24.3h4.1ZM62,29.77a5,5,0,0,1,1.44.88,6.77,6.77,0,0,1,2.74,4.9c0,1-.5,2.43-1.4,2.43a1.64,1.64,0,0,1-1.41-1.41c-.25-1.17-.11-2.38-.39-3.5a11,11,0,0,0-.83-2.28c0-.14-.36-.68-.36-.77A.24.24,0,0,1,62,29.77Z"/><path class="cls-1" d="M20.5,89.85c.62,2.31,1.27,4.5,2,6.69,1.44,4.44,4.28,12.72,6.55,15.64.18.24.72.79.72,1.16s-.22.48-.36.48a11.83,11.83,0,0,0-2-.18,4.87,4.87,0,0,0-2.81,1.46c-3.78-10.28-6.45-19.47-7.38-31.58-.33-4-.4-8-.51-12.11-.83,12.53-1.69,21.42-5.9,32.25-1.19,3-2.71,6.51-4.43,8.7-.47.61-3.86,4.81-4.22,4.81-.14,0-.21-.18-.21-.43a1.15,1.15,0,0,1,.18-.54,46.48,46.48,0,0,0,6.37-13.76A121.26,121.26,0,0,0,12,85.83c.36-2.86.61-5.78.82-8.64.22-2.43.47-4.93.47-7.36a61.39,61.39,0,0,0-.25-6.39c-.07-.67-.4-1.52-.4-2.13.11-.37.29-.55.44-.55A25.21,25.21,0,0,1,18,63c.07.12.32.43.32.61a10.7,10.7,0,0,1-1.18,2.37A116.91,116.91,0,0,0,20.5,89.85Z"/><path class="cls-2" d="M23.9,88.51c.62,2.31,1.27,4.5,2,6.69,1.44,4.44,4.28,12.72,6.55,15.64.18.24.72.79.72,1.16s-.22.48-.36.48a11.83,11.83,0,0,0-2-.18,4.87,4.87,0,0,0-2.81,1.46c-3.78-10.28-6.45-19.47-7.38-31.58-.33-4-.4-8-.51-12.11-.83,12.53-1.69,21.42-5.9,32.25-1.19,3-2.71,6.51-4.43,8.7-.47.61-3.86,4.81-4.22,4.81-.14,0-.21-.18-.21-.43a1.15,1.15,0,0,1,.18-.54,46.48,46.48,0,0,0,6.37-13.76,121.26,121.26,0,0,0,3.57-16.61c.36-2.86.61-5.78.82-8.64.22-2.43.47-4.93.47-7.36a61.39,61.39,0,0,0-.25-6.39c-.07-.67-.4-1.52-.4-2.13.11-.37.29-.55.44-.55a25.21,25.21,0,0,1,4.93,2.19c.07.12.32.43.32.61a10.7,10.7,0,0,1-1.18,2.37A116.91,116.91,0,0,0,23.9,88.51Z"/><path class="cls-1" d="M57.37,75.75h5.55v-9c0-1.27,0-2.6-.11-3.8-.07-.91-.4-2.06-.4-2.72,0-.3.18-.3.33-.3a12.46,12.46,0,0,1,4.1,1.75,1.46,1.46,0,0,1,.47,1c0,.61-.76,1.45-1,1.75V75.75h6.09c.29-.48,1.47-2.83,1.87-2.83.18,0,.29.18.4.3l1.87,3.14a1.72,1.72,0,0,1,.25.84c0,.48-.21.67-.47.67h-10V91.33h3.89c.18-.31,1.59-3,1.91-3s2.12,3.14,2.38,3.62a1.41,1.41,0,0,1,.29.85.53.53,0,0,1-.51.6h-8v17.62h7.17c.18-.3,1.55-3,1.94-3,.18,0,.54.54.65.78l1.62,2.84a1.28,1.28,0,0,1,.25.78c0,.49-.21.73-.46.73H53.34l-.51.84-1.22-3.32c.72.06,1.51.3,2.2.3h9.11V93.44H57.19l-.5.9L55.46,91a14.65,14.65,0,0,0,2.2.37h5.26V77.87h-6C55.39,83.6,54.35,87.28,52,92.05c-.18.36-1,2.17-1.19,2.17s-.21-.24-.21-.42,1.26-5.61,1.51-6.64c.5-2.29.86-4.71,1.26-7A108.29,108.29,0,0,0,55,65.55a.45.45,0,0,1,.25-.06c.76,0,4.32,2.23,4.32,3.44,0,.55-.9,1.21-1.11,1.39C58.13,72.13,57.73,73.94,57.37,75.75Z"/><path class="cls-2" d="M54.5,75.75h5.55v-9c0-1.27,0-2.6-.11-3.8-.07-.91-.4-2.06-.4-2.72,0-.3.18-.3.33-.3A12.37,12.37,0,0,1,64,61.69a1.46,1.46,0,0,1,.47,1c0,.61-.76,1.45-1,1.75V75.75h6.09c.29-.48,1.48-2.83,1.87-2.83.18,0,.29.18.4.3l1.87,3.14a1.72,1.72,0,0,1,.25.84c0,.48-.21.67-.47.67h-10V91.33h3.89c.18-.31,1.59-3,1.91-3s2.13,3.14,2.38,3.62a1.41,1.41,0,0,1,.29.85.53.53,0,0,1-.51.6h-8v17.62H70.6c.18-.3,1.55-3,1.94-3,.18,0,.54.54.65.78l1.62,2.84a1.28,1.28,0,0,1,.25.78c0,.49-.21.73-.46.73H50.47l-.51.84-1.22-3.32c.72.06,1.51.3,2.2.3h9.11V93.44H54.32l-.5.9L52.59,91a14.65,14.65,0,0,0,2.2.37h5.26V77.87H54c-1.51,5.73-2.55,9.41-4.86,14.18-.18.36-1,2.17-1.19,2.17s-.21-.24-.21-.42,1.26-5.61,1.51-6.64c.5-2.29.86-4.71,1.26-7a108.29,108.29,0,0,0,1.62-14.61.45.45,0,0,1,.25-.06c.76,0,4.32,2.23,4.32,3.44,0,.55-.9,1.21-1.11,1.39C55.26,72.13,54.86,73.94,54.5,75.75Z"/></g></g></svg>