<svg xmlns="http://www.w3.org/2000/svg" viewBox="0 0 2178.58 112.51"><defs><style>.cls-1{fill:#0f3480;}</style></defs><g id="圖層_2" data-name="圖層 2"><g id="圖層_1-2" data-name="圖層 1"><path class="cls-1" d="M127,59c0-35.88.23-23,.11-42.24,0-3.88.36-5,1.3-5S131.35,14,132.52,15c1.77,1.69,19.32,17.69,37.47,34.09,11.66,10.54,24.5,22.67,28.27,25.95L197,24.52c-.12-6.46-.95-8.65-4.6-9.44a28.62,28.62,0,0,0-5.06-.5c-1.3,0-1.65-.3-1.65-.7,0-.59.94-.69,2.35-.69,5.3,0,11,.3,12.26.3s5.18-.3,10-.3c1.29,0,2.12.1,2.12.69,0,.4-.47.6-1.3.7s-1.65.2-3.06.4c-3.3.59-4.12,2.08-4.12,8.94L203.68,82c0,6.56-.23,7-1.06,7s-2.35-1.09-8.6-6.36c-1.29-1-18.26-15.61-30.75-26.94-13.66-12.42-27-24.95-30.75-28.53l1.54,47.62c.23,8.15,1.41,10.73,4.59,11.53a30.25,30.25,0,0,0,5.89.6c.59,0,.94.19.94.59,0,.6-.7.8-2.12.8-6.71,0-11.43-.3-12.49-.3s-6,.3-11.31.3c-1.17,0-1.88-.1-1.88-.8,0-.4.35-.59.94-.59a19.7,19.7,0,0,0,4.83-.6c3-.7,3.54-3.58,3.54-12.63Z"/><path class="cls-1" d="M239.73,48.87c0-13,0-15.4-.23-18.09S238.44,26.61,235,26a22.93,22.93,0,0,0-2.83-.2c-.82,0-1.53-.3-1.53-.59,0-.6.59-.8,1.77-.8,2.35,0,5.54.2,12.13.3.59,0,21.56,0,23.92-.1s218-.2,219-.5a4.08,4.08,0,0,1,1.3-.3c.23,0,.47.2.47.7a40.35,40.35,0,0,0-.95,4.47c-.11,1.69-.23,3.28-.35,5.17,0,.9-.23,1.49-.82,1.49s-.83-.39-.83-1.09a8.36,8.36,0,0,0-.82-3.18c-.71-2-216.14-2.68-222-3-1.53-.1-13.19-.2-13.43-.2s-.59.2-.59.79V51.56c0,.59.12,1,.71,1,1.41,0,13.43-.1,15.9-.3,2.71-.1,218.85-.39,219.79-1.49a1.59,1.59,0,0,1,1.3-.79c.23,0,.47.1.47.59s-.47,2.39-.83,5.27-.35,4.77-.47,6.07c-.12.79-.35,1.09-.82,1.09s-.71-.6-.71-1.29a9.78,9.78,0,0,0-.35-2.39c-.47-1.29-215.55-2.68-220-3-2.71-.2-12.26-.4-14.14-.4-.71,0-.83.3-.83.7v7.25c0,3.09-.11,11.83,0,13.52.24,3.68.83,5.57,3.3,6.46,1.77.7,4.6.9,8.6.9,2.24,0,220.38.1,223.32-.6,3.54-.89,4.36-2.88,5.3-6.56.24-1,.59-1.39,1.06-1.39.71,0,.71.89.71,1.49s-.94,7-1.3,8.65c-.47,2-1.29,2.19-5.18,2.19l-229.56-.2c-4.13-.1-9.55-.3-13.9-.3-2.71,0-5,.3-7.78.3-1.06,0-1.65-.2-1.65-.7s.47-.69,1.06-.69a10.31,10.31,0,0,0,2.36-.3c2.12-.4,3.53-1.69,3.77-7.86.11-3.37.23-7.45.23-15Z"/><path class="cls-1" d="M553.2,63.78a184,184,0,0,0,.59,18.39c.35,2.39.59,3.78,3.53,4.38a27.32,27.32,0,0,0,4.6.4c.94,0,1.41.29,1.41.59,0,.5-.35.8-1.53.8-6,0-13-.3-13.43-.3s-7.42.3-10.49.3c-1.29,0-1.77-.2-1.77-.7,0-.3.36-.69,1.3-.69a22.43,22.43,0,0,0,2.59-.1c2.24-.3,2.59-1.49,3.07-4.87.47-3.58.47-10.74.47-18.2V28.3c-3.89,0-10.13,0-14.85.1-7.54.1-9.19,1.09-10.84,3.18a14.15,14.15,0,0,0-1.76,3.08c-.36.69-.59.79-1.06.79s-.59-.39-.59-.89,1.65-7.16,2.35-9.84c.36-1.19.71-1.59,1.06-1.59.83,0,3.07.89,5.19,1.09,4.12.4,7.42.5,7.54.5h38.64a59.47,59.47,0,0,0,8.48-.5,16.51,16.51,0,0,1,2.24-.4c.47,0,.71.5.71.9,0,2.78-.24,9.34-.24,10.14s-.47,1.19-.82,1.19c-.59,0-.83-.4-.83-1.19a9.28,9.28,0,0,0-.12-1.39c-.47-4-2-5-13.9-5.07-4.47,0-8.13-.1-11.54-.1Z"/><path class="cls-1" d="M596.91,30.29c-.95,1-1.65,1.29-2.12,1.29-.95,0,.11-1.49.35-1.79,3-4.18,5.3-9.35,5.3-14.22,0-5.36-1.77-6.86-3.3-8.15-.59-.4-.23-.89.47-.89a25.79,25.79,0,0,1,7.9,1.39c1.76.79,2.35,1.49,2.35,3.18C607.86,17.76,601.62,25.61,596.91,30.29Z"/><path class="cls-1" d="M612.93,87.24c-1.53-.59-1.53-1-1.53-3.38,0-4.57.35-8,.47-9.34.12-.89.35-1.39.94-1.39s.83.3.83,1a10.55,10.55,0,0,0,.35,3c1.53,6.47,8.48,9,15.32,9,9.77,0,14.49-5.66,14.49-10.63,0-5.67-3.07-9.15-11.67-15l-4.71-3.09c-11.31-7.65-13.66-12.92-13.66-18.78,0-9.15,8.6-15.31,21.79-15.31a49.15,49.15,0,0,1,9.54.79,22.75,22.75,0,0,0,4,.5c.82,0,1.06.2,1.06.6s-.47,3.87-.47,9.64c0,1.49-.24,2.09-.83,2.09s-.7-.4-.82-1.1a11.74,11.74,0,0,0-1.42-4.67c-.58-.89-3.29-4.67-13.19-4.67-7.07,0-12.37,3.58-12.37,9.54,0,4.67,2.83,7.56,12.61,13.82l2.7,1.79c12.26,7.95,15.44,13.22,15.44,20.28,0,3.58-1.77,9.94-9,14.11-4.59,2.49-10.25,3.48-15.9,3.48A38.85,38.85,0,0,1,612.93,87.24Z"/><path class="cls-1" d="M730,59.71c0,14.61.47,21,2.59,22.76,1.88,1.59,5,2.29,14.13,2.29,6.25,0,11.43-.1,14.26-3a12.85,12.85,0,0,0,3.06-6c.12-.79.36-1.29,1.06-1.29s.71.4.71,1.49A53.67,53.67,0,0,1,764.08,86c-.82,2.29-1.18,2.69-7.42,2.69-10.13,0-20.15-.6-31.57-.6-3.65,0-7.19.3-11.55.3-1.29,0-1.88-.2-1.88-.8,0-.3.23-.59.94-.59a21.21,21.21,0,0,0,3.53-.4c2.36-.4,3-2.59,3.42-5.47.59-4.17.59-12,.59-21.57V42c0-15.5,0-18.29-.24-21.47-.23-3.38-1.17-5-5.06-5.66a25.89,25.89,0,0,0-4-.3c-.47,0-.94-.2-.94-.6,0-.59.59-.79,1.88-.79,5.31,0,12.73.3,13.32.3s9.19-.3,12.72-.3c1.3,0,1.89.2,1.89.79,0,.4-.48.6-1,.6a32.38,32.38,0,0,0-3.88.3c-3.42.49-4.36,2.18-4.6,5.66-.23,3.18-.23,6-.23,21.47Z"/><path class="cls-1" d="M787.17,48.87c0-13.12,0-15.5-.23-18.19s-.94-4.17-3.42-4.57c-1.18-.2-2-.2-2.71-.3s-1.29-.3-1.29-.69.47-.7,1.76-.7c3.66,0,10.37.3,10.72.3s7.31-.3,10.61-.3c1.18,0,1.76.2,1.76.7s-.35.59-1.29.69c-.71.1-1.3.1-2.12.2-3.42.4-3.77,1.89-4,4.77-.23,2.69-.11,5-.11,18.09V63.78c0,7.66-.12,14.62.47,18.2.47,2.88.94,4,4,4.57a31.94,31.94,0,0,0,4.48.4c1.06.1,1.29.29,1.29.69s-.47.7-1.64.7c-6,0-12.85-.3-13.44-.3-.35,0-7.3.3-10.6.3-1.06,0-1.88-.2-1.88-.7S780,87,781.05,87a16.64,16.64,0,0,0,2.83-.3c2-.4,2.35-2.39,2.71-4.77.58-3.58.58-10.64.58-18.1Z"/><path class="cls-1" d="M833.36,48.87c0-13,0-15.4-.24-18.09s-.82-4.37-4.47-4.67c-1.07-.1-1.89-.1-2.95-.2s-1.53-.4-1.53-.79.59-.7,1.77-.7c4.24,0,8.12.3,12,.3,1.77,0,23.21,0,25.68-.1a20.73,20.73,0,0,0,5.31-.7,4.25,4.25,0,0,1,1.17-.29c.36,0,.59.29.36.89a18.26,18.26,0,0,0-.71,3.08c-.47,2.59-.35,4.37-.59,7,0,1.09-.35,1.49-.82,1.49s-.83-.5-1-1.19c0-1.1-.47-3.78-1.88-5s-3.65-1.29-6.6-1.39c-5.06-.1-9.66-.2-14.84-.2-.83,0-1.06.2-1.06,1V51.76c0,.49.12.89.82.89,4.83,0,10.49,0,14.38-.1,4.83-.1,6.36-.3,7.89-1.89.47-.49.71-.79,1.18-.79s.47.4.47.89-.47,2.19-.83,5.17a44.61,44.61,0,0,0-.47,5.77c0,1-.23,1.49-.82,1.49s-.71-.6-.83-1.49c-.11-1.39-.35-4.77-6.12-5.37-2.36-.3-13-.3-14.85-.3-.7,0-.82.2-.82.9v7c0,6.66.12,12.63.23,16.6.12,5,1,5.67,4.24,6.07,1.54.2,2.6.3,3.66.4s1.41.29,1.41.69-.35.7-1.53.7c-6.13,0-12.61-.3-13.08-.3h-.82c-2.24.1-7.07.3-9.55.3-1.06,0-1.64-.2-1.64-.7,0-.3.23-.59,1.17-.69,1.18-.1,1.77-.1,2.48-.2,2.71-.3,3.06-1.89,3.3-5.47s.47-9.54.47-17.5Z"/><path class="cls-1" d="M894.27,48.87c0-13,0-15.4-.24-18.09S893,26.61,889.55,26a22.76,22.76,0,0,0-2.82-.2c-.83,0-1.53-.3-1.53-.59,0-.6.58-.8,1.76-.8,2.36,0,5.54.2,12.14.3.59,0,169.29,0,171.64-.1a19.3,19.3,0,0,0,4.6-.5,4.08,4.08,0,0,1,1.3-.3c.23,0,.47.2.47.7a40.35,40.35,0,0,0-.95,4.47c-.11,1.69-.23,3.28-.35,5.17,0,.9-.23,1.49-.82,1.49s-.83-.39-.83-1.09a8.36,8.36,0,0,0-.82-3.18c-.71-2-149.5-2.68-155.39-3-1.54-.1-13.2-.2-13.43-.2s-.59.2-.59.79V51.56c0,.59.11,1,.7,1,1.42,0,13.43-.1,15.91-.3,2.71-.1,152.21-.39,153.15-1.49A1.59,1.59,0,0,1,1075,50c.23,0,.47.1.47.59s-.47,2.39-.83,5.27-.35,4.77-.47,6.07c-.12.79-.35,1.09-.82,1.09s-.71-.6-.71-1.29a9.78,9.78,0,0,0-.35-2.39c-.47-1.29-148.91-2.68-153.39-3-2.71-.2-12.25-.4-14.14-.4-.71,0-.82.3-.82.7v7.25c0,3.09-.12,11.83,0,13.52.23,3.68.82,5.57,3.3,6.46,1.76.7,4.59.9,8.6.9,2.23,0,153.74.1,156.68-.6,3.54-.89,4.36-2.88,5.3-6.56.24-1,.59-1.39,1.06-1.39.71,0,.71.89.71,1.49s-.94,7-1.3,8.65c-.47,2-1.29,2.19-5.18,2.19l-162.93-.2c-4.12-.1-9.54-.3-13.9-.3-2.71,0-4.95.3-7.78.3-1.06,0-1.65-.2-1.65-.7s.48-.69,1.06-.69a10.24,10.24,0,0,0,2.36-.3c2.12-.4,3.54-1.69,3.77-7.86.12-3.37.24-7.45.24-15Z"/><path class="cls-1" d="M47.82,112.51,0,64.7,10.5,54.19c.65.56,1.45,1.17,2.16,1.87,6,6,12,12,18,18,2.69,2.65,5.56,5.13,8.76,8.06V0H56V82c9.81-9.56,18.69-19.32,28.68-27.39L95,64.9v.41Zm-.29-4.07L91,65l-7.19-7.19L53.14,88.45V2.62H42.24V87.87l-.77.58c-2-1.91-3.93-3.9-5.89-5.85l-6.1-6.1-6.42-6.42L17,64l-6-6c-3.25,1.64-5.23,4.52-7.43,6.47Z"/><path class="cls-1" d="M1226,59c0-35.88.23-23,.11-42.24,0-3.88.36-5,1.3-5s2.95,2.18,4.12,3.18c1.77,1.69,19.32,17.69,37.47,34.09,11.66,10.54,24.5,22.67,28.27,25.95L1296,24.52c-.12-6.46-1-8.65-4.6-9.44a28.62,28.62,0,0,0-5.06-.5c-1.3,0-1.65-.3-1.65-.7,0-.59.94-.69,2.35-.69,5.3,0,11,.3,12.26.3s5.18-.3,10-.3c1.29,0,2.12.1,2.12.69,0,.4-.47.6-1.3.7s-1.65.2-3.06.4c-3.3.59-4.12,2.08-4.12,8.94L1302.68,82c0,6.56-.23,7-1.06,7s-2.35-1.09-8.6-6.36c-1.29-1-18.26-15.61-30.75-26.94-13.66-12.42-27-24.95-30.75-28.53l1.54,47.62c.23,8.15,1.41,10.73,4.59,11.53a30.25,30.25,0,0,0,5.89.6c.59,0,.94.19.94.59,0,.6-.7.8-2.12.8-6.71,0-11.43-.3-12.49-.3s-6,.3-11.31.3c-1.17,0-1.88-.1-1.88-.8,0-.4.35-.59.94-.59a19.7,19.7,0,0,0,4.83-.6c3-.7,3.54-3.58,3.54-12.63Z"/><path class="cls-1" d="M1338.73,48.87c0-13,0-15.4-.23-18.09s-1.06-4.17-4.48-4.77a22.93,22.93,0,0,0-2.83-.2c-.82,0-1.53-.3-1.53-.59,0-.6.59-.8,1.77-.8,2.35,0,5.54.2,12.13.3.59,0,21.56,0,23.92-.1s218-.2,219-.5a4.08,4.08,0,0,1,1.3-.3c.23,0,.47.2.47.7a40.35,40.35,0,0,0-1,4.47c-.11,1.69-.23,3.28-.35,5.17,0,.9-.23,1.49-.82,1.49s-.83-.39-.83-1.09a8.36,8.36,0,0,0-.82-3.18c-.71-2-216.14-2.68-222-3-1.53-.1-13.19-.2-13.43-.2s-.59.2-.59.79V51.56c0,.59.12,1,.71,1,1.41,0,13.43-.1,15.9-.3,2.71-.1,218.85-.39,219.79-1.49a1.59,1.59,0,0,1,1.3-.79c.23,0,.47.1.47.59s-.47,2.39-.83,5.27-.35,4.77-.47,6.07c-.12.79-.35,1.09-.82,1.09s-.71-.6-.71-1.29a9.78,9.78,0,0,0-.35-2.39c-.47-1.29-215.55-2.68-220-3-2.71-.2-12.26-.4-14.14-.4-.71,0-.83.3-.83.7v7.25c0,3.09-.11,11.83,0,13.52.24,3.68.83,5.57,3.3,6.46,1.77.7,4.6.9,8.6.9,2.24,0,220.38.1,223.32-.6,3.54-.89,4.36-2.88,5.3-6.56.24-1,.59-1.39,1.06-1.39.71,0,.71.89.71,1.49s-.94,7-1.3,8.65c-.47,2-1.29,2.19-5.18,2.19l-229.56-.2c-4.13-.1-9.55-.3-13.9-.3-2.71,0-5,.3-7.78.3-1.06,0-1.65-.2-1.65-.7s.47-.69,1.06-.69a10.31,10.31,0,0,0,2.36-.3c2.12-.4,3.53-1.69,3.77-7.86.11-3.37.23-7.45.23-15Z"/><path class="cls-1" d="M1652.2,63.78a184,184,0,0,0,.59,18.39c.35,2.39.59,3.78,3.53,4.38a27.32,27.32,0,0,0,4.6.4c.94,0,1.41.29,1.41.59,0,.5-.35.8-1.53.8-6,0-13-.3-13.43-.3s-7.42.3-10.49.3c-1.29,0-1.77-.2-1.77-.7,0-.3.36-.69,1.3-.69a22.43,22.43,0,0,0,2.59-.1c2.24-.3,2.59-1.49,3.07-4.87.47-3.58.47-10.74.47-18.2V28.3c-3.89,0-10.13,0-14.85.1-7.54.1-9.19,1.09-10.84,3.18a14.15,14.15,0,0,0-1.76,3.08c-.36.69-.59.79-1.06.79s-.59-.39-.59-.89,1.65-7.16,2.35-9.84c.36-1.19.71-1.59,1.06-1.59.83,0,3.07.89,5.19,1.09,4.12.4,7.42.5,7.54.5h38.64a59.47,59.47,0,0,0,8.48-.5,16.51,16.51,0,0,1,2.24-.4c.47,0,.71.5.71.9,0,2.78-.24,9.34-.24,10.14s-.47,1.19-.82,1.19c-.59,0-.83-.4-.83-1.19a9.28,9.28,0,0,0-.12-1.39c-.47-4-2-5-13.9-5.07-4.47,0-8.13-.1-11.54-.1Z"/><path class="cls-1" d="M1695.91,30.29c-1,1-1.65,1.29-2.12,1.29-1,0,.11-1.49.35-1.79,2.95-4.18,5.3-9.35,5.3-14.22,0-5.36-1.77-6.86-3.3-8.15-.59-.4-.23-.89.47-.89a25.79,25.79,0,0,1,7.9,1.39c1.76.79,2.35,1.49,2.35,3.18C1706.86,17.76,1700.62,25.61,1695.91,30.29Z"/><path class="cls-1" d="M1711.93,87.24c-1.53-.59-1.53-1-1.53-3.38,0-4.57.35-8,.47-9.34.12-.89.35-1.39.94-1.39s.83.3.83,1a10.55,10.55,0,0,0,.35,3c1.53,6.47,8.48,9,15.32,9,9.77,0,14.49-5.66,14.49-10.63,0-5.67-3.07-9.15-11.67-15l-4.71-3.09c-11.31-7.65-13.66-12.92-13.66-18.78,0-9.15,8.6-15.31,21.79-15.31a49.15,49.15,0,0,1,9.54.79,22.75,22.75,0,0,0,4,.5c.82,0,1.06.2,1.06.6s-.47,3.87-.47,9.64c0,1.49-.24,2.09-.83,2.09s-.7-.4-.82-1.1a11.74,11.74,0,0,0-1.42-4.67c-.58-.89-3.29-4.67-13.19-4.67-7.07,0-12.37,3.58-12.37,9.54,0,4.67,2.83,7.56,12.61,13.82l2.7,1.79c12.26,7.95,15.44,13.22,15.44,20.28,0,3.58-1.77,9.94-9,14.11-4.59,2.49-10.25,3.48-15.9,3.48A38.85,38.85,0,0,1,1711.93,87.24Z"/><path class="cls-1" d="M1829,59.71c0,14.61.47,21,2.59,22.76,1.88,1.59,4.95,2.29,14.13,2.29,6.25,0,11.43-.1,14.26-3a12.85,12.85,0,0,0,3.06-6c.12-.79.36-1.29,1.06-1.29s.71.4.71,1.49a53.67,53.67,0,0,1-1.77,9.94c-.82,2.29-1.18,2.69-7.42,2.69-10.13,0-20.15-.6-31.57-.6-3.65,0-7.19.3-11.55.3-1.29,0-1.88-.2-1.88-.8,0-.3.23-.59.94-.59a21.21,21.21,0,0,0,3.53-.4c2.36-.4,2.95-2.59,3.42-5.47.59-4.17.59-12,.59-21.57V42c0-15.5,0-18.29-.24-21.47-.23-3.38-1.17-5-5.06-5.66a25.89,25.89,0,0,0-4-.3c-.47,0-.94-.2-.94-.6,0-.59.59-.79,1.88-.79,5.31,0,12.73.3,13.32.3s9.19-.3,12.72-.3c1.3,0,1.89.2,1.89.79,0,.4-.48.6-1,.6a32.38,32.38,0,0,0-3.88.3c-3.42.49-4.36,2.18-4.6,5.66-.23,3.18-.23,6-.23,21.47Z"/><path class="cls-1" d="M1886.17,48.87c0-13.12,0-15.5-.23-18.19s-.94-4.17-3.42-4.57c-1.18-.2-2-.2-2.71-.3s-1.29-.3-1.29-.69.47-.7,1.76-.7c3.66,0,10.37.3,10.72.3s7.31-.3,10.61-.3c1.18,0,1.76.2,1.76.7s-.35.59-1.29.69c-.71.1-1.3.1-2.12.2-3.42.4-3.77,1.89-4,4.77-.23,2.69-.11,5-.11,18.09V63.78c0,7.66-.12,14.62.47,18.2.47,2.88.94,4,4,4.57a31.94,31.94,0,0,0,4.48.4c1.06.1,1.29.29,1.29.69s-.47.7-1.64.7c-6,0-12.85-.3-13.44-.3-.35,0-7.3.3-10.6.3-1.06,0-1.88-.2-1.88-.7s.47-.69,1.53-.69a16.64,16.64,0,0,0,2.83-.3c2-.4,2.35-2.39,2.71-4.77.58-3.58.58-10.64.58-18.1Z"/><path class="cls-1" d="M1932.36,48.87c0-13,0-15.4-.24-18.09s-.82-4.37-4.47-4.67c-1.07-.1-1.89-.1-3-.2s-1.53-.4-1.53-.79.59-.7,1.77-.7c4.24,0,8.12.3,12,.3,1.77,0,23.21,0,25.68-.1a20.73,20.73,0,0,0,5.31-.7,4.25,4.25,0,0,1,1.17-.29c.36,0,.59.29.36.89a18.26,18.26,0,0,0-.71,3.08c-.47,2.59-.35,4.37-.59,7,0,1.09-.35,1.49-.82,1.49s-.83-.5-.95-1.19c0-1.1-.47-3.78-1.88-5s-3.65-1.29-6.6-1.39c-5.06-.1-9.66-.2-14.84-.2-.83,0-1.06.2-1.06,1V51.76c0,.49.12.89.82.89,4.83,0,10.49,0,14.38-.1,4.83-.1,6.36-.3,7.89-1.89.47-.49.71-.79,1.18-.79s.47.4.47.89-.47,2.19-.83,5.17a44.61,44.61,0,0,0-.47,5.77c0,1-.23,1.49-.82,1.49s-.71-.6-.83-1.49c-.11-1.39-.35-4.77-6.12-5.37-2.36-.3-13-.3-14.85-.3-.7,0-.82.2-.82.9v7c0,6.66.12,12.63.23,16.6.12,5,1,5.67,4.24,6.07,1.54.2,2.6.3,3.66.4s1.41.29,1.41.69-.35.7-1.53.7c-6.13,0-12.61-.3-13.08-.3h-.82c-2.24.1-7.07.3-9.55.3-1.06,0-1.64-.2-1.64-.7,0-.3.23-.59,1.17-.69,1.18-.1,1.77-.1,2.48-.2,2.71-.3,3.06-1.89,3.3-5.47s.47-9.54.47-17.5Z"/><path class="cls-1" d="M1993.27,48.87c0-13,0-15.4-.24-18.09s-1.06-4.17-4.48-4.77a22.76,22.76,0,0,0-2.82-.2c-.83,0-1.53-.3-1.53-.59,0-.6.58-.8,1.76-.8,2.36,0,5.54.2,12.14.3.59,0,169.29,0,171.64-.1a19.3,19.3,0,0,0,4.6-.5,4.08,4.08,0,0,1,1.3-.3c.23,0,.47.2.47.7a40.35,40.35,0,0,0-1,4.47c-.11,1.69-.23,3.28-.35,5.17,0,.9-.23,1.49-.82,1.49s-.83-.39-.83-1.09a8.36,8.36,0,0,0-.82-3.18c-.71-2-149.5-2.68-155.39-3-1.54-.1-13.2-.2-13.43-.2s-.59.2-.59.79V51.56c0,.59.11,1,.7,1,1.42,0,13.43-.1,15.91-.3,2.71-.1,152.21-.39,153.15-1.49A1.59,1.59,0,0,1,2174,50c.23,0,.47.1.47.59s-.47,2.39-.83,5.27-.35,4.77-.47,6.07c-.12.79-.35,1.09-.82,1.09s-.71-.6-.71-1.29a9.78,9.78,0,0,0-.35-2.39c-.47-1.29-148.91-2.68-153.39-3-2.71-.2-12.25-.4-14.14-.4-.71,0-.82.3-.82.7v7.25c0,3.09-.12,11.83,0,13.52.23,3.68.82,5.57,3.3,6.46,1.76.7,4.59.9,8.6.9,2.23,0,153.74.1,156.68-.6,3.54-.89,4.36-2.88,5.3-6.56.24-1,.59-1.39,1.06-1.39.71,0,.71.89.71,1.49s-.94,7-1.3,8.65c-.47,2-1.29,2.19-5.18,2.19l-162.93-.2c-4.12-.1-9.54-.3-13.9-.3-2.71,0-5,.3-7.78.3-1.06,0-1.65-.2-1.65-.7s.48-.69,1.06-.69a10.24,10.24,0,0,0,2.36-.3c2.12-.4,3.54-1.69,3.77-7.86.12-3.37.24-7.45.24-15Z"/><path class="cls-1" d="M1146.82,112.51,1099,64.7l10.5-10.51c.65.56,1.45,1.17,2.16,1.87,6,6,12,12,18,18,2.69,2.65,5.56,5.13,8.76,8.06V0H1155V82c9.81-9.56,18.69-19.32,28.68-27.39,3.3,3.3,6.58,6.59,10.34,10.34v.41Zm-.29-4.07L1190,65l-7.19-7.19-30.62,30.62V2.62h-10.9V87.87l-.77.58c-2-1.91-3.93-3.9-5.89-5.85l-6.1-6.1-6.42-6.42L1116,64l-6-6c-3.25,1.64-5.23,4.52-7.43,6.47Z"/></g></g></svg>