<svg xmlns="http://www.w3.org/2000/svg" viewBox="0 0 120.93 176.03"><defs><style>.cls-1{fill:#0f3480;}.cls-2{fill:#fff;stroke:#0f3480;stroke-miterlimit:10;}</style></defs><g id="圖層_2" data-name="圖層 2"><g id="圖層_1-2" data-name="圖層 1"><path class="cls-1" d="M11.62,42.75,9.05,45.11,4.19,35.28a70.5,70.5,0,0,0,8.65.91H38.92c3.38-10.56,6.35-22.4,6.35-33.87,0-1.46.4-1.82,1.35-1.82,2.57,0,17,4.37,17,8,0,1.64-3,3.64-3.92,4.19-2.16,8-4.6,15.66-7,23.49H89.46c1.21-1.64,5.4-8.74,7.43-8.74,1.62,0,10,11.29,10,13.47,0,.73-.68,1.83-1.35,1.83h-42A136.29,136.29,0,0,0,87.84,71.88,96.4,96.4,0,0,0,107.3,85.53c.94.37,3.24.92,3.24,2.55,0,1.46-3.11,2-3.92,2.19-5,1.82-7.84,4.37-11.49,9.1-4.86-3.64-9.32-8.55-13.51-13.65-9.73-12-18-26-22.43-43H50.27A189.42,189.42,0,0,1,34.86,69.88C26.62,82.26,15.4,90.45,4.05,96.64c-.67.18-3,1.64-3.51,1.64-.27,0-.54-.36-.54-.73,0-1.27,2.3-3.27,3-3.82A216.33,216.33,0,0,0,20.68,72.24,111.6,111.6,0,0,0,36.62,42.75Zm-.54,119.44c-.54.55-2.84,2.37-3.51,2.37-.27,0-.54-.36-.54-.73a2,2,0,0,1,.54-1.27,171.48,171.48,0,0,0,12.29-22.4c2.44-5.28,5.41-11.65,6.9-17.66A44.75,44.75,0,0,0,28,116.67c.14-.36.41-.73.68-.73,1.75,0,13.92,10.38,13.92,12.57,0,1.45-2.57,2.36-3.38,2.73C30.67,143.08,22.16,154.73,11.08,162.19ZM84.19,97.37c1.08,0,2.7,1.82,3.51,2.91.68.73,7.16,7.83,7.16,10.2a2.09,2.09,0,0,1-2,2H60.13c.95.73,2.3,1.64,2.3,3.46,0,1.64-1.76,3.1-2.7,3.64v39.88a31.39,31.39,0,0,1-.95,8.74c-2,6-10.27,6.92-14.46,7.29-.13-1.46-.27-3.1-.54-4.56-.4-4-3.78-8.37-6.48-9.65-.54-.18-4.46-1.64-4.46-2.55a1,1,0,0,1,1.08-1.09c3.38,0,6.62.91,10,.91,2.7,0,4.46.18,4.46-4.19V123.23c0-3.65-.27-7.11-.54-10.75H22.16l-2.57,2.37L14.73,105c2.84.36,5.95,1.09,8.78,1.09H76.76C77.7,104.84,82.16,97.37,84.19,97.37Zm-19.33-28c1.08,0,2.44,2,3,2.91.54.73,5.13,7.1,5.13,9.11,0,1.09-1.35,1.63-2,1.63H42.84l-2.57,2.37-5-9.83a71.37,71.37,0,0,0,8.78,1.09h15C59.46,75.89,63.24,69.33,64.86,69.33Zm24.06,94.5c-3.92,0-5.81-4.37-7.3-8.56l-3.11-8.55a53.33,53.33,0,0,0-8.11-15.3c-1.62-2-3.24-4-5-5.83a7.82,7.82,0,0,1-1.21-1.27,2.26,2.26,0,0,1-.27-.91c2.16-.55,9.86,3.46,11.62,4.37,7,4,19.46,15.3,19.46,26.77C95,159.28,92.7,163.83,88.92,163.83Z"/><path class="cls-2" d="M21.51,42.75l-2.57,2.36-4.86-9.83a70.3,70.3,0,0,0,8.65.91H48.81c3.37-10.56,6.35-22.4,6.35-33.87,0-1.46.4-1.82,1.35-1.82,2.57,0,17,4.37,17,8,0,1.64-3,3.64-3.91,4.19-2.17,8-4.6,15.66-7,23.49H99.35c1.21-1.64,5.4-8.74,7.43-8.74,1.62,0,10,11.29,10,13.47,0,.73-.68,1.83-1.35,1.83h-42A136.54,136.54,0,0,0,97.72,71.88a96.68,96.68,0,0,0,19.46,13.65c.95.37,3.25.92,3.25,2.55,0,1.46-3.11,2-3.92,2.19-5,1.82-7.84,4.37-11.49,9.1-4.86-3.64-9.32-8.55-13.51-13.65-9.73-12-18-26-22.43-43H60.16A190.38,190.38,0,0,1,44.75,69.88C36.51,82.26,25.29,90.45,13.94,96.64c-.67.18-3,1.64-3.51,1.64-.27,0-.54-.36-.54-.73,0-1.27,2.29-3.27,3-3.82a214.85,214.85,0,0,0,17.7-21.49,111.34,111.34,0,0,0,16-29.49ZM21,162.19c-.54.55-2.84,2.37-3.52,2.37-.27,0-.54-.36-.54-.73a2,2,0,0,1,.54-1.27,171.53,171.53,0,0,0,12.3-22.4c2.43-5.28,5.41-11.65,6.89-17.66a44.8,44.8,0,0,0,1.22-5.83c.13-.36.4-.73.68-.73,1.75,0,13.91,10.38,13.91,12.57,0,1.45-2.56,2.36-3.37,2.73C40.56,143.08,32.05,154.73,21,162.19Zm73.1-64.82c1.09,0,2.71,1.82,3.52,2.91.67.73,7.16,7.83,7.16,10.2a2.1,2.1,0,0,1-2,2H70c1,.73,2.3,1.64,2.3,3.46,0,1.64-1.76,3.1-2.7,3.64v39.88a31.39,31.39,0,0,1-1,8.74c-2,6-10.27,6.92-14.46,7.29-.13-1.46-.27-3.1-.54-4.56-.41-4-3.78-8.37-6.49-9.65-.54-.18-4.46-1.64-4.46-2.55a1,1,0,0,1,1.09-1.09c3.37,0,6.62.91,10,.91,2.7,0,4.45.18,4.45-4.19V123.23c0-3.65-.26-7.11-.54-10.75H32.05l-2.57,2.37L24.62,105c2.83.36,5.94,1.09,8.78,1.09H86.64C87.59,104.84,92.05,97.37,94.07,97.37Zm-19.32-28c1.08,0,2.43,2,3,2.91.55.73,5.14,7.1,5.14,9.11,0,1.09-1.35,1.63-2,1.63H52.72l-2.56,2.37-5-9.83a71.13,71.13,0,0,0,8.78,1.09h15C69.35,75.89,73.13,69.33,74.75,69.33Zm24,94.5c-3.91,0-5.81-4.37-7.29-8.56l-3.11-8.55a53.57,53.57,0,0,0-8.11-15.3c-1.62-2-3.24-4-5-5.83a7.82,7.82,0,0,1-1.21-1.27,2.28,2.28,0,0,1-.28-.91c2.17-.55,9.87,3.46,11.63,4.37,7,4,19.46,15.3,19.46,26.77C104.89,159.28,102.59,163.83,98.8,163.83Z"/></g></g></svg>