<svg xmlns="http://www.w3.org/2000/svg" viewBox="0 0 1152.1 811.97"><defs><style>.cls-1{isolation:isolate;}.cls-2,.cls-3,.cls-4,.cls-5,.cls-6{fill:none;stroke:#fff;stroke-miterlimit:10;mix-blend-mode:overlay;}.cls-2{stroke-width:6px;}.cls-3{stroke-width:0.5px;}.cls-4{stroke-width:0.75px;}.cls-5{stroke-width:2px;}.cls-6{stroke-width:5px;}</style></defs><g class="cls-1"><g id="圖層_2" data-name="圖層 2"><g id="圖層_1-2" data-name="圖層 1"><line class="cls-2" x1="957.05" y1="448.01" x2="116.75" y2="448.01"/><line class="cls-3" x1="866.1" y1="441.03" x2="116.75" y2="441.03"/><line class="cls-4" x1="866.1" y1="415.67" x2="116.75" y2="415.67"/><line class="cls-3" x1="866.1" y1="390.98" x2="104.37" y2="390.98"/><line class="cls-3" x1="866.1" y1="372.28" x2="7.9" y2="372.28"/><line class="cls-5" x1="866.1" y1="433.78" x2="317.28" y2="433.78"/><line class="cls-6" x1="912.91" y1="400.33" x2="352.86" y2="400.33"/><line class="cls-5" x1="866.1" y1="408.07" x2="116.75" y2="408.07"/><line class="cls-5" x1="866.1" y1="385.26" x2="116.75" y2="385.26"/><line class="cls-5" x1="1152.1" y1="381.41" x2="70.41" y2="381.41"/><line class="cls-5" x1="1017.19" y1="426.06" x2="27.1" y2="426.06"/><line class="cls-2" x1="200.6" y1="78.24" x2="1040.89" y2="78.24"/><line class="cls-3" x1="291.54" y1="85.22" x2="1040.89" y2="85.22"/><line class="cls-4" x1="291.54" y1="110.58" x2="1040.89" y2="110.58"/><line class="cls-3" x1="291.54" y1="135.27" x2="1053.28" y2="135.27"/><line class="cls-3" x1="291.54" y1="153.98" x2="1149.74" y2="153.98"/><line class="cls-5" x1="291.54" y1="92.47" x2="840.37" y2="92.47"/><line class="cls-6" x1="244.73" y1="125.92" x2="804.78" y2="125.92"/><line class="cls-5" x1="291.54" y1="118.18" x2="1040.89" y2="118.18"/><line class="cls-5" x1="291.54" y1="140.99" x2="1040.89" y2="140.99"/><line class="cls-5" x1="5.55" y1="144.84" x2="1087.24" y2="144.84"/><line class="cls-5" x1="140.46" y1="100.19" x2="1130.54" y2="100.19"/><line class="cls-2" x1="200.6" y1="3" x2="1040.89" y2="3"/><line class="cls-3" x1="291.54" y1="9.98" x2="1040.89" y2="9.98"/><line class="cls-4" x1="291.54" y1="35.34" x2="1040.89" y2="35.34"/><line class="cls-3" x1="291.54" y1="60.04" x2="1053.28" y2="60.04"/><line class="cls-3" x1="291.54" y1="78.74" x2="1149.74" y2="78.74"/><line class="cls-5" x1="291.54" y1="17.23" x2="840.37" y2="17.23"/><line class="cls-6" x1="244.73" y1="50.68" x2="804.78" y2="50.68"/><line class="cls-5" x1="291.54" y1="42.95" x2="1040.89" y2="42.95"/><line class="cls-5" x1="291.54" y1="65.76" x2="1040.89" y2="65.76"/><line class="cls-5" x1="5.55" y1="69.6" x2="1087.24" y2="69.6"/><line class="cls-5" x1="140.46" y1="24.96" x2="1130.54" y2="24.96"/><line class="cls-2" x1="200.6" y1="59.07" x2="1040.89" y2="59.07"/><line class="cls-3" x1="291.54" y1="66.05" x2="1040.89" y2="66.05"/><line class="cls-4" x1="291.54" y1="91.41" x2="1040.89" y2="91.41"/><line class="cls-3" x1="291.54" y1="116.11" x2="1053.28" y2="116.11"/><line class="cls-3" x1="291.54" y1="134.81" x2="1149.74" y2="134.81"/><line class="cls-5" x1="291.54" y1="73.3" x2="840.37" y2="73.3"/><line class="cls-6" x1="244.73" y1="106.75" x2="804.78" y2="106.75"/><line class="cls-5" x1="291.54" y1="99.02" x2="1040.89" y2="99.02"/><line class="cls-5" x1="291.54" y1="121.83" x2="1040.89" y2="121.83"/><line class="cls-5" x1="5.55" y1="125.67" x2="1087.24" y2="125.67"/><line class="cls-5" x1="140.46" y1="81.02" x2="1130.54" y2="81.02"/><line class="cls-2" x1="195.05" y1="312.33" x2="1035.34" y2="312.33"/><line class="cls-3" x1="286" y1="319.32" x2="1035.34" y2="319.32"/><line class="cls-4" x1="286" y1="344.67" x2="1035.34" y2="344.67"/><line class="cls-3" x1="286" y1="369.37" x2="1047.73" y2="369.37"/><line class="cls-3" x1="286" y1="388.07" x2="1144.2" y2="388.07"/><line class="cls-5" x1="286" y1="326.56" x2="834.82" y2="326.56"/><line class="cls-6" x1="239.19" y1="360.01" x2="799.24" y2="360.01"/><line class="cls-5" x1="286" y1="352.28" x2="1035.34" y2="352.28"/><line class="cls-5" x1="286" y1="375.09" x2="1035.34" y2="375.09"/><line class="cls-5" y1="378.94" x2="1081.69" y2="378.94"/><line class="cls-5" x1="134.91" y1="334.29" x2="1125" y2="334.29"/><line class="cls-2" x1="202.95" y1="167.15" x2="1043.25" y2="167.15"/><line class="cls-3" x1="293.9" y1="174.14" x2="1043.25" y2="174.14"/><line class="cls-4" x1="293.9" y1="199.5" x2="1043.25" y2="199.5"/><line class="cls-3" x1="293.9" y1="224.19" x2="1055.63" y2="224.19"/><line class="cls-3" x1="293.9" y1="242.89" x2="1152.1" y2="242.89"/><line class="cls-5" x1="293.9" y1="181.38" x2="842.72" y2="181.38"/><line class="cls-6" x1="247.09" y1="214.84" x2="807.14" y2="214.84"/><line class="cls-5" x1="293.9" y1="207.1" x2="1043.25" y2="207.1"/><line class="cls-5" x1="293.9" y1="229.91" x2="1043.25" y2="229.91"/><line class="cls-5" x1="7.9" y1="233.76" x2="1089.59" y2="233.76"/><line class="cls-5" x1="142.81" y1="189.11" x2="1132.9" y2="189.11"/><line class="cls-2" x1="200.6" y1="214.84" x2="1040.89" y2="214.84"/><line class="cls-3" x1="291.54" y1="225.38" x2="1040.89" y2="225.38"/><line class="cls-4" x1="291.54" y1="263.68" x2="1040.89" y2="263.68"/><line class="cls-3" x1="291.54" y1="300.96" x2="1053.28" y2="300.96"/><line class="cls-3" x1="291.54" y1="329.2" x2="1149.74" y2="329.2"/><line class="cls-5" x1="291.54" y1="236.32" x2="840.37" y2="236.32"/><line class="cls-6" x1="244.73" y1="286.84" x2="804.78" y2="286.84"/><line class="cls-5" x1="291.54" y1="275.16" x2="1040.89" y2="275.16"/><line class="cls-5" x1="291.54" y1="309.6" x2="1040.89" y2="309.6"/><line class="cls-5" x1="5.55" y1="315.41" x2="1087.24" y2="315.41"/><line class="cls-5" x1="140.46" y1="247.99" x2="1130.54" y2="247.99"/><line class="cls-2" x1="200.6" y1="314.97" x2="1040.89" y2="314.97"/><line class="cls-3" x1="291.54" y1="321.96" x2="1040.89" y2="321.96"/><line class="cls-4" x1="291.54" y1="347.32" x2="1040.89" y2="347.32"/><line class="cls-3" x1="291.54" y1="372.01" x2="1053.28" y2="372.01"/><line class="cls-3" x1="291.54" y1="390.71" x2="1149.74" y2="390.71"/><line class="cls-5" x1="291.54" y1="329.2" x2="840.37" y2="329.2"/><line class="cls-6" x1="244.73" y1="362.66" x2="804.78" y2="362.66"/><line class="cls-5" x1="291.54" y1="354.92" x2="1040.89" y2="354.92"/><line class="cls-5" x1="291.54" y1="377.73" x2="1040.89" y2="377.73"/><line class="cls-5" x1="5.55" y1="381.58" x2="1087.24" y2="381.58"/><line class="cls-5" x1="140.46" y1="336.93" x2="1130.54" y2="336.93"/><line class="cls-2" x1="200.6" y1="110.96" x2="1040.89" y2="110.96"/><line class="cls-3" x1="291.54" y1="117.94" x2="1040.89" y2="117.94"/><line class="cls-4" x1="291.54" y1="143.3" x2="1040.89" y2="143.3"/><line class="cls-3" x1="291.54" y1="167.99" x2="1053.28" y2="167.99"/><line class="cls-3" x1="291.54" y1="186.69" x2="1149.74" y2="186.69"/><line class="cls-5" x1="291.54" y1="125.19" x2="840.37" y2="125.19"/><line class="cls-6" x1="244.73" y1="158.64" x2="804.78" y2="158.64"/><line class="cls-5" x1="291.54" y1="150.9" x2="1040.89" y2="150.9"/><line class="cls-5" x1="291.54" y1="173.71" x2="1040.89" y2="173.71"/><line class="cls-5" x1="5.55" y1="177.56" x2="1087.24" y2="177.56"/><line class="cls-5" x1="140.46" y1="132.91" x2="1130.54" y2="132.91"/><line class="cls-2" x1="954.69" y1="367.07" x2="114.4" y2="367.07"/><line class="cls-3" x1="863.75" y1="360.09" x2="114.4" y2="360.09"/><line class="cls-4" x1="863.75" y1="334.73" x2="114.4" y2="334.73"/><line class="cls-3" x1="863.75" y1="310.04" x2="102.01" y2="310.04"/><line class="cls-3" x1="863.75" y1="291.33" x2="5.55" y2="291.33"/><line class="cls-5" x1="863.75" y1="352.84" x2="314.92" y2="352.84"/><line class="cls-6" x1="910.56" y1="319.39" x2="350.51" y2="319.39"/><line class="cls-5" x1="863.75" y1="327.13" x2="114.4" y2="327.13"/><line class="cls-5" x1="863.75" y1="304.32" x2="114.4" y2="304.32"/><line class="cls-5" x1="1149.74" y1="300.47" x2="68.05" y2="300.47"/><line class="cls-5" x1="1014.83" y1="345.12" x2="24.74" y2="345.12"/><line class="cls-2" x1="952.69" y1="538.03" x2="112.4" y2="538.03"/><line class="cls-3" x1="861.75" y1="531.05" x2="112.4" y2="531.05"/><line class="cls-4" x1="861.75" y1="505.69" x2="112.4" y2="505.69"/><line class="cls-3" x1="861.75" y1="480.99" x2="100.01" y2="480.99"/><line class="cls-3" x1="861.75" y1="462.29" x2="3.55" y2="462.29"/><line class="cls-5" x1="861.75" y1="523.8" x2="312.92" y2="523.8"/><line class="cls-6" x1="908.56" y1="490.35" x2="348.51" y2="490.35"/><line class="cls-5" x1="861.75" y1="498.08" x2="112.4" y2="498.08"/><line class="cls-5" x1="861.75" y1="475.27" x2="112.4" y2="475.27"/><line class="cls-5" x1="1147.74" y1="471.43" x2="66.05" y2="471.43"/><line class="cls-5" x1="1012.83" y1="516.07" x2="22.74" y2="516.07"/><line class="cls-2" x1="198.6" y1="540.27" x2="1038.89" y2="540.27"/><line class="cls-3" x1="289.54" y1="547.25" x2="1038.89" y2="547.25"/><line class="cls-4" x1="289.54" y1="572.61" x2="1038.89" y2="572.61"/><line class="cls-3" x1="289.54" y1="597.31" x2="1051.28" y2="597.31"/><line class="cls-3" x1="289.54" y1="616.01" x2="1147.74" y2="616.01"/><line class="cls-5" x1="289.54" y1="554.5" x2="838.37" y2="554.5"/><line class="cls-6" x1="242.73" y1="587.95" x2="802.78" y2="587.95"/><line class="cls-5" x1="289.54" y1="580.22" x2="1038.89" y2="580.22"/><line class="cls-5" x1="289.54" y1="603.03" x2="1038.89" y2="603.03"/><line class="cls-5" x1="3.55" y1="606.87" x2="1085.24" y2="606.87"/><line class="cls-5" x1="138.46" y1="562.23" x2="1128.54" y2="562.23"/><line class="cls-2" x1="198.6" y1="660.24" x2="1038.89" y2="660.24"/><line class="cls-3" x1="289.54" y1="667.23" x2="1038.89" y2="667.23"/><line class="cls-4" x1="289.54" y1="692.59" x2="1038.89" y2="692.59"/><line class="cls-3" x1="289.54" y1="717.28" x2="1051.28" y2="717.28"/><line class="cls-3" x1="289.54" y1="735.98" x2="1147.74" y2="735.98"/><line class="cls-5" x1="289.54" y1="674.47" x2="838.37" y2="674.47"/><line class="cls-6" x1="242.73" y1="707.92" x2="802.78" y2="707.92"/><line class="cls-5" x1="289.54" y1="700.19" x2="1038.89" y2="700.19"/><line class="cls-5" x1="289.54" y1="723" x2="1038.89" y2="723"/><line class="cls-5" x1="3.55" y1="726.85" x2="1085.24" y2="726.85"/><line class="cls-5" x1="138.46" y1="682.2" x2="1128.54" y2="682.2"/><line class="cls-2" x1="198.6" y1="478.21" x2="1038.89" y2="478.21"/><line class="cls-3" x1="289.54" y1="485.19" x2="1038.89" y2="485.19"/><line class="cls-4" x1="289.54" y1="510.55" x2="1038.89" y2="510.55"/><line class="cls-3" x1="289.54" y1="535.24" x2="1051.28" y2="535.24"/><line class="cls-3" x1="289.54" y1="553.94" x2="1147.74" y2="553.94"/><line class="cls-5" x1="289.54" y1="492.44" x2="838.37" y2="492.44"/><line class="cls-6" x1="242.73" y1="525.89" x2="802.78" y2="525.89"/><line class="cls-5" x1="289.54" y1="518.15" x2="1038.89" y2="518.15"/><line class="cls-5" x1="289.54" y1="540.96" x2="1038.89" y2="540.96"/><line class="cls-5" x1="3.55" y1="544.81" x2="1085.24" y2="544.81"/><line class="cls-5" x1="138.46" y1="500.16" x2="1128.54" y2="500.16"/><line class="cls-2" x1="200.6" y1="685.13" x2="1040.89" y2="685.13"/><line class="cls-3" x1="291.54" y1="692.12" x2="1040.89" y2="692.12"/><line class="cls-4" x1="291.54" y1="717.48" x2="1040.89" y2="717.48"/><line class="cls-3" x1="291.54" y1="742.17" x2="1053.28" y2="742.17"/><line class="cls-3" x1="291.54" y1="760.87" x2="1149.74" y2="760.87"/><line class="cls-5" x1="291.54" y1="699.36" x2="840.37" y2="699.36"/><line class="cls-6" x1="244.73" y1="732.81" x2="804.78" y2="732.81"/><line class="cls-5" x1="291.54" y1="725.08" x2="1040.89" y2="725.08"/><line class="cls-5" x1="291.54" y1="747.89" x2="1040.89" y2="747.89"/><line class="cls-5" x1="5.55" y1="751.74" x2="1087.24" y2="751.74"/><line class="cls-5" x1="140.46" y1="707.09" x2="1130.54" y2="707.09"/><line class="cls-2" x1="200.6" y1="735.98" x2="1040.89" y2="735.98"/><line class="cls-3" x1="291.54" y1="742.97" x2="1040.89" y2="742.97"/><line class="cls-4" x1="291.54" y1="768.32" x2="1040.89" y2="768.32"/><line class="cls-3" x1="291.54" y1="793.02" x2="1053.28" y2="793.02"/><line class="cls-3" x1="291.54" y1="811.72" x2="1149.74" y2="811.72"/><line class="cls-5" x1="291.54" y1="750.21" x2="840.37" y2="750.21"/><line class="cls-6" x1="244.73" y1="783.66" x2="804.78" y2="783.66"/><line class="cls-5" x1="291.54" y1="775.93" x2="1040.89" y2="775.93"/><line class="cls-5" x1="291.54" y1="798.74" x2="1040.89" y2="798.74"/><line class="cls-5" x1="5.55" y1="802.59" x2="1087.24" y2="802.59"/><line class="cls-5" x1="140.46" y1="757.94" x2="1130.54" y2="757.94"/><line class="cls-2" x1="200.6" y1="603.03" x2="1040.89" y2="603.03"/><line class="cls-3" x1="291.54" y1="610.01" x2="1040.89" y2="610.01"/><line class="cls-4" x1="291.54" y1="635.37" x2="1040.89" y2="635.37"/><line class="cls-3" x1="291.54" y1="660.06" x2="1053.28" y2="660.06"/><line class="cls-3" x1="291.54" y1="678.77" x2="1149.74" y2="678.77"/><line class="cls-5" x1="291.54" y1="617.26" x2="840.37" y2="617.26"/><line class="cls-6" x1="244.73" y1="650.71" x2="804.78" y2="650.71"/><line class="cls-5" x1="291.54" y1="642.97" x2="1040.89" y2="642.97"/><line class="cls-5" x1="291.54" y1="665.79" x2="1040.89" y2="665.79"/><line class="cls-5" x1="5.55" y1="669.63" x2="1087.24" y2="669.63"/><line class="cls-5" x1="140.46" y1="624.98" x2="1130.54" y2="624.98"/><line class="cls-2" x1="198.6" y1="398.14" x2="1038.89" y2="398.14"/><line class="cls-3" x1="289.54" y1="405.12" x2="1038.89" y2="405.12"/><line class="cls-4" x1="289.54" y1="430.48" x2="1038.89" y2="430.48"/><line class="cls-3" x1="289.54" y1="455.17" x2="1051.28" y2="455.17"/><line class="cls-3" x1="289.54" y1="473.87" x2="1147.74" y2="473.87"/><line class="cls-5" x1="289.54" y1="412.37" x2="838.37" y2="412.37"/><line class="cls-6" x1="242.73" y1="445.82" x2="802.78" y2="445.82"/><line class="cls-5" x1="289.54" y1="438.08" x2="1038.89" y2="438.08"/><line class="cls-5" x1="289.54" y1="460.89" x2="1038.89" y2="460.89"/><line class="cls-5" x1="3.55" y1="464.74" x2="1085.24" y2="464.74"/><line class="cls-5" x1="138.46" y1="420.09" x2="1128.54" y2="420.09"/></g></g></g></svg>