<svg xmlns="http://www.w3.org/2000/svg" viewBox="0 0 224 224"><defs><style>.cls-1{fill:#fff;}.cls-2{fill:#edebf4;}.cls-3{fill:none;stroke:#aaa0c9;stroke-miterlimit:10;stroke-width:12px;}.cls-4{fill:#574e96;}.cls-5{fill:#2f318d;}.cls-6{fill:#aaa0c9;}</style></defs><g id="圖層_2" data-name="圖層 2"><g id="圖層_1-2" data-name="圖層 1"><circle class="cls-1" cx="112" cy="112" r="111.5"/><path d="M112,1a111,111,0,0,1,78.49,189.49,111,111,0,0,1-157-157A110.3,110.3,0,0,1,112,1m0-1A112,112,0,1,0,224,112,112,112,0,0,0,112,0Z"/><path class="cls-2" d="M112,162.86c-53.3,0-88.6-54.38-88.6-54.38S60.14,54.1,112,54.1s88.6,54.38,88.6,54.38S165.3,162.86,112,162.86Z"/><path class="cls-3" d="M112,165.39c-38.93,0-68.25-29-81.24-44.65a15,15,0,0,1,.12-19.33C44.15,85.79,74,56.63,112,56.63s67.85,29.16,81.11,44.78a15,15,0,0,1,.13,19.33C180.25,136.38,150.93,165.39,112,165.39Z"/><path class="cls-4" d="M168.74,168.4l-28.19-28.94a40.79,40.79,0,1,0-9,8.53l28.33,29.08a6.21,6.21,0,1,0,8.9-8.67Z"/><path class="cls-5" d="M168.74,162.66l-28.19-28.94a40.83,40.83,0,1,0-9,8.52l28.33,29.09a6.21,6.21,0,1,0,8.9-8.67Z"/><circle class="cls-6" cx="106.76" cy="105.58" r="25.32"/><ellipse class="cls-2" cx="97.31" cy="100.81" rx="7.64" ry="9.51" transform="translate(-14.27 185.55) rotate(-83.23)"/></g></g></svg>