<svg xmlns="http://www.w3.org/2000/svg" viewBox="0 0 324.87 451.92"><defs><style>.cls-1{isolation:isolate;}.cls-2{mix-blend-mode:color-dodge;}.cls-3{fill:#040000;}</style></defs><g class="cls-1"><g id="圖層_2" data-name="圖層 2"><g id="圖層_1-2" data-name="圖層 1"><g class="cls-2"><path class="cls-3" d="M103.82,432.87c-3.78-11.91-3.16-22.33,1.32-32.61s6.63-9.82,15.1-25.29,7.84-23.28,9.92-30.75-6.28-9.66,17.4-30.14c4-3.44,7.45-6.67,10.57-9.68,1.53,1.51,3.55,3.45,4.56,4.47,1.46,1.48.21,2.61,2.53,4.17s1.44-4.94-.06-6.37,1-7.29,1-7.29,1.21,6.23,3.19,7.57,1.74,2.65,4,5.15,5.51-5.14,1.61-5.31-3-6.47-4.69-10.56,4.31-2,6.94,7.24,9.78,4,6.93,3.6c-2.16-.33,0,0-3.18-2.59-1.81-1.48-3.42-10.88-4.46-18.67,4.56-4.31,8.54-7.11,13.43-8.18,12.14-2.65,31-13.07,34.68-21.43s3.5-18.33,8.78-30.53,9.21-25.32,14.56-29.6,33.81-28.91,43.43-46.07,9-23.51,7.45-34.39-5.93-13.85-6.92-17.48.05-8.84.05-8.84,31-.72,32.9-47.27-54.51-53.55-74-25.35-13.66,50.89,6.87,65.74c0,0,4.72,6.14-9.6,14.22s-26.37,15.7-30.74,26.55-13.73,15.36-13.5,19,1.24,5.76-5.62,15.92-19.55,31.14-25.37,39-1.58,17.66-10.11,23.73-33.16,15.55-49.12,31.88S81.14,282.54,78.84,287.4s-.34,19.48-1.07,27.86,12.85,31.34,6,58.25-26.57,49.57-42.64,47.1S10.72,412.39,5.06,412s-6.61,1-2.65,5.39,10.72,8.93,10.48,10.74,3,3.53,8.12,5.48-.92,2.83.09,5,.19,5.55,5.28,7.5,4.75.26,9,2.66,8,.5,11.66,2.45,51.65-.6,53.59-2.75S107.6,444.79,103.82,432.87Z"/></g></g></g></g></svg>