<svg xmlns="http://www.w3.org/2000/svg" viewBox="0 0 1042.7 847.57"><defs><style>.cls-1{fill:#0f3480;opacity:0.39;}</style></defs><g id="圖層_2" data-name="圖層 2"><g id="圖層_1-2" data-name="圖層 1"><path class="cls-1" d="M821.65,432.87c-3.79-11.91-3.16-22.33,1.32-32.61s6.63-9.82,15.1-25.29,7.84-23.28,9.92-30.75-6.29-9.66,17.39-30.14c4-3.44,7.46-6.67,10.58-9.68,1.53,1.51,3.55,3.45,4.56,4.47,1.46,1.48.21,2.61,2.52,4.17s1.45-4.94,0-6.37,1-7.29,1-7.29,1.21,6.23,3.19,7.57,1.73,2.65,4,5.15,5.52-5.14,1.62-5.31-3-6.47-4.69-10.56,4.31-2,6.93,7.24,9.79,4,6.93,3.6c-2.15-.33,0,0-3.17-2.59-1.82-1.48-3.42-10.88-4.46-18.67,4.56-4.31,8.54-7.11,13.43-8.18,12.14-2.65,31-13.07,34.67-21.43s3.51-18.33,8.79-30.53,9.21-25.32,14.56-29.6,33.81-28.91,43.42-46.07,9-23.51,7.45-34.39-5.92-13.85-6.92-17.48.06-8.84.06-8.84,31-.72,32.89-47.27-54.51-53.55-74-25.35S955,67.56,975.47,82.41c0,0,4.73,6.14-9.59,14.22s-26.37,15.7-30.74,26.55-13.73,15.36-13.5,19,1.23,5.76-5.62,15.92-19.55,31.14-25.37,39-1.58,17.66-10.11,23.73-33.17,15.55-49.12,31.88S799,282.54,796.67,287.4s-.34,19.48-1.07,27.86,12.84,31.34,6,58.25S775,423.08,759,420.61s-30.42-8.22-36.09-8.59-6.6,1-2.65,5.39,10.73,8.93,10.49,10.74,3,3.53,8.12,5.48-.92,2.83.09,5,.19,5.55,5.28,7.5,4.75.26,9,2.66,8,.5,11.65,2.45,51.66-.6,53.6-2.75S825.43,444.79,821.65,432.87Z"/><path class="cls-1" d="M14.85,372.6c7.56-3,14.35-3.12,21.25-.71s6.69,3.83,17.15,8.58,15.5,4,20.45,5,6-4.55,20.42,9.84c2.43,2.42,4.69,4.52,6.8,6.4-.91,1.07-2.07,2.48-2.68,3.18-.89,1-1.69.26-2.59,1.84s3.28.7,4.14-.34,4.78.28,4.78.28-4,1.09-4.76,2.44-1.64,1.26-3.16,2.84,3.61,3.33,3.53.79,4.06-2.27,6.63-3.56,1.52,2.71-4.37,4.86-2.15,6.55-2,4.67c.11-1.41,0,0,1.53-2.18.88-1.25,6.9-2.75,11.91-3.8,3,2.75,5,5.2,6,8.33,2.31,7.75,10,19.5,15.6,21.48s12.07,1.39,20.25,4.24,16.89,4.75,19.93,8,20.41,20.56,32,26,15.7,4.69,22.7,3.18,8.71-4.52,11-5.34a15.25,15.25,0,0,1,5.74-.39s2,20.12,32.29,19.08,32.15-38,12.89-49.32-33.72-6.41-42.37,7.64c0,0-3.76,3.36-9.69-5.55s-11.48-16.37-18.73-18.68-10.65-8.18-13-7.86-3.68,1.09-10.61-2.88S176.73,409.43,171.32,406s-11.55-.17-15.9-5.42-11.71-20.79-23.08-30.36-20.94-19.64-24.21-20.9-12.67.72-18.15.66-19.73,9.85-37.54,6.71S19,341.86,19.79,331.3s3.87-20.16,3.83-23.85-1-4.24-3.62-1.46-5.29,7.39-6.47,7.33-2.15,2.14-3.17,5.54-1.88-.47-3.24.29-3.59.4-4.62,3.79.07,3.11-1.29,6,.07,5.24-1,7.68,2.88,33.53,4.37,34.68S7.29,375.63,14.85,372.6Z"/><path class="cls-1" d="M519.44,608.06a23.37,23.37,0,0,1,1.47,17.21c-1.67,5.7-2.83,5.6-6.26,14.28s-2.57,12.75-3.17,16.81,3.94,4.66-7.14,17c-1.86,2.07-3.48,4-4.91,5.78-.91-.69-2.1-1.57-2.7-2-.86-.68-.28-1.36-1.6-2s-.43,2.69.45,3.35,0,3.89,0,3.89-1.05-3.19-2.18-3.76-1.08-1.28-2.43-2.45-2.56,3.07-.5,2.9,2,3.2,3.17,5.24-2.14,1.34-4.13-3.35-5.4-1.47-3.87-1.43c1.15,0,0,0,1.84,1.15,1.05.66,2.51,5.49,3.57,9.51-2.11,2.56-4,4.3-6.51,5.18-6.2,2.2-15.41,8.92-16.79,13.56s-.63,9.85-2.59,16.61S462,739.36,459.44,742,443.6,759.38,439.69,769s-3.16,12.94-1.64,18.55,4,6.88,4.79,8.72a12.28,12.28,0,0,1,.56,4.65s-16.25,2.43-14.15,27,32.17,24.51,40.56,8.41,3.81-27.63-7.95-34.07c0,0-2.89-2.91,4.1-8.1s12.81-10,14.38-16,6.2-9,5.84-10.85-1-3,1.89-8.74,8.21-17.65,10.74-22.18-.34-9.38,3.74-13.13,16.39-10.36,23.69-20,15.07-17.82,16-20.52-1.11-10.25-1.28-14.7-8.82-15.61-7-30.2,10.67-27.79,19.27-27.55,16.52,2.3,19.52,2.12,3.4-1,1-3-6.22-4-6.21-5-1.83-1.65-4.63-2.34.3-1.55-.38-2.62-.47-2.9-3.27-3.59-2.51.18-4.92-.8-4.26.27-6.28-.51-27.09,3.74-28,5S516.67,602.05,519.44,608.06Z"/></g></g></svg>