<svg xmlns="http://www.w3.org/2000/svg" viewBox="0 0 224 224"><defs><style>.cls-1{fill:#fff;}.cls-2{fill:#2f318d;}.cls-3{fill:#edebf4;}.cls-4{fill:#8075ad;}.cls-5{fill:#aaa0c9;}</style></defs><g id="圖層_2" data-name="圖層 2"><g id="圖層_1-2" data-name="圖層 1"><circle class="cls-1" cx="112" cy="112" r="111.5"/><path d="M112,1a111,111,0,0,1,78.49,189.49,111,111,0,0,1-157-157A110.3,110.3,0,0,1,112,1m0-1A112,112,0,1,0,224,112,112,112,0,0,0,112,0Z"/><rect class="cls-2" x="29.32" y="53.64" width="162.8" height="126.44" rx="22" transform="translate(227.58 6.14) rotate(90)"/><rect class="cls-3" x="55.76" y="43.72" width="109.91" height="146.28" rx="12"/><path class="cls-4" d="M132.4,29.14H117.92c0-.15,0-.3,0-.46a8.58,8.58,0,0,0-17.16,0c0,.16,0,.31,0,.46H90a6.33,6.33,0,0,0-6.32,6.32v9A6.33,6.33,0,0,0,90,50.81H132.4a6.34,6.34,0,0,0,6.32-6.32v-9A6.34,6.34,0,0,0,132.4,29.14Z"/><rect class="cls-4" x="72.05" y="108.33" width="19.54" height="19.54" rx="3" transform="translate(107.47 -23.27) rotate(45)"/><rect class="cls-5" x="127.43" y="48.55" width="2.71" height="46.96" transform="translate(200.82 -56.75) rotate(90)"/><rect class="cls-5" x="115.69" y="75.65" width="2.71" height="23.48" transform="translate(204.43 -29.65) rotate(90)"/><polygon class="cls-5" points="128.78 78.36 117.04 78.36 105.3 78.36 105.3 81.07 117.04 81.07 128.78 81.07 140.53 81.07 140.53 78.36 128.78 78.36"/><rect class="cls-5" x="127.43" y="85.58" width="2.71" height="46.96" transform="translate(237.85 -19.72) rotate(90)"/><rect class="cls-5" x="115.69" y="112.68" width="2.71" height="23.48" transform="translate(241.46 7.38) rotate(90)"/><polygon class="cls-5" points="128.78 115.39 117.04 115.39 105.3 115.39 105.3 118.1 117.04 118.1 128.78 118.1 140.53 118.1 140.53 115.39 128.78 115.39"/><rect class="cls-5" x="127.43" y="122.61" width="2.71" height="46.96" transform="translate(274.88 17.31) rotate(90)"/><rect class="cls-5" x="115.69" y="149.71" width="2.71" height="23.48" transform="translate(278.49 44.41) rotate(90)"/><polygon class="cls-5" points="128.78 152.42 117.04 152.42 105.3 152.42 105.3 155.13 117.04 155.13 128.78 155.13 140.53 155.13 140.53 152.42 128.78 152.42"/><rect class="cls-4" x="70.76" y="70" width="22.13" height="22.13" rx="3"/><rect class="cls-4" x="69.18" y="141.13" width="25.29" height="25.29" rx="12.64"/><path class="cls-5" d="M152.79,175.82l41.46-34.44a2.1,2.1,0,0,0,.27-2.94L188,130.53a2.1,2.1,0,0,0-2.94-.27L143.56,164.7a2.07,2.07,0,0,0-.56.72l-6.32,13.51a.74.74,0,0,0,.86,1L152,176.23A2.22,2.22,0,0,0,152.79,175.82Z"/><rect class="cls-4" x="175.92" y="137.67" width="15.35" height="6.32" rx="0.95" transform="translate(174.61 -90.38) rotate(50.28)"/></g></g></svg>