<svg xmlns="http://www.w3.org/2000/svg" viewBox="0 0 215.87 382.91"><defs><style>.cls-1{opacity:0.2;}.cls-2{fill:#e77c00;}</style></defs><g id="圖層_2" data-name="圖層 2"><g id="圖層_1-2" data-name="圖層 1"><g class="cls-1"><path class="cls-2" d="M201,146c-15.27,26-38.68,48.85-70.74,68.2-7.13,4.07-12.73,15.77-14.26,27-1,11.2-2,26-1.52,37.16a4.6,4.6,0,0,1-4.59,5.6H98.23c-2.54,0-4.58-2.55-4.58-5.6-.51-14.77-1-31.05-.51-44.79a85.7,85.7,0,0,1,4.07-25.45c3.05-8.14,7.13-15.27,14.25-21.89,21.38-20.36,41.74-43.26,50.9-69.73,4.58-14.24,7.12-30,3.56-46.82-3-16.29-14.76-32.57-29.52-40.21-15.27-7.63-34.1-8.14-50.38-2.54C69.72,32,53.44,46.22,49.37,63.52c-1,7.13-1,14.25,3.56,19.85,5.6,6.62,10.18,14.76,11.71,22.9,1.52,9.67-3.06,20.36-9.67,27-9.67,9.16-22.91,12.21-34.1,8.14C9.16,136.81,0,125.61,0,106.78.5,84.39,10.17,58.43,24.43,40.62,40.21,20.77,63.62,6,87.54,1.94,113-2.14,140-.1,163.37,11.1c27.49,12.72,44.8,36.13,50.4,62.6C218.85,97.11,214.78,122.56,201,146ZM130.3,366.36c-8.15,12.72-19.34,17.81-34.11,16.28a36.53,36.53,0,0,1-28.5-18.83c-6.61-11.19-6.11-23.91,0-35.12,5.6-10.17,16.79-18.32,28.5-19.34,14.77-1,28,6.62,35.63,19.34C138.44,339.38,136.91,356.18,130.3,366.36Z"/></g></g></g></svg>