<svg xmlns="http://www.w3.org/2000/svg" viewBox="0 0 117.85 217.19"><defs><style>.cls-1{fill:#0f3480;}.cls-2{fill:#fff;stroke:#0f3480;stroke-miterlimit:10;}</style></defs><g id="圖層_2" data-name="圖層 2"><g id="圖層_1-2" data-name="圖層 1"><path class="cls-1" d="M69.86,114.67c2.3,8.67,4.73,16.89,7.44,25.11,5.4,16.67,16.08,47.72,24.59,58.68.68.92,2.7,3,2.7,4.34s-.81,1.83-1.35,1.83a43.57,43.57,0,0,0-7.7-.69c-3.92,0-7,2.74-10.54,5.48-14.19-38.58-24.19-73.06-27.7-118.5-1.22-15.07-1.49-30.14-1.89-45.44-3.11,47-6.36,80.38-22.17,121-4.46,11.19-10.13,24.43-16.62,32.65-1.75,2.28-14.46,18-15.81,18-.54,0-.81-.69-.81-1.6a4.83,4.83,0,0,1,.68-2.06c10-15.52,18.24-30.59,23.91-51.6C30,141.84,35.27,121.29,38,99.6c1.35-10.73,2.3-21.7,3.11-32.43.81-9.13,1.76-18.49,1.76-27.62a234.71,234.71,0,0,0-1-24c-.27-2.51-1.48-5.71-1.48-8,.4-1.37,1.08-2,1.62-2,1.89,0,17.16,6.84,18.51,8.21.27.46,1.22,1.6,1.22,2.29,0,1.6-3.65,7.53-4.46,8.9C58.11,53.47,63.11,88.64,69.86,114.67Z"/><path class="cls-2" d="M82.62,109.64c2.3,8.68,4.73,16.9,7.43,25.12,5.41,16.67,16.08,47.72,24.6,58.68.67.91,2.7,3,2.7,4.34s-.81,1.82-1.35,1.82a44.6,44.6,0,0,0-7.7-.68c-3.92,0-7,2.74-10.54,5.48C83.57,165.81,73.57,131.33,70.05,85.9c-1.21-15.07-1.48-30.14-1.89-45.44-3.11,47-6.35,80.37-22.16,121-4.46,11.19-10.13,24.43-16.62,32.65-1.76,2.29-14.46,18-15.81,18-.54,0-.81-.68-.81-1.6a4.78,4.78,0,0,1,.67-2.05c10-15.53,18.25-30.6,23.92-51.6,5.41-20.1,10.68-40.65,13.38-62.34,1.35-10.73,2.3-21.69,3.11-32.42.81-9.13,1.75-18.5,1.75-27.63a234.83,234.83,0,0,0-.94-24c-.27-2.51-1.49-5.7-1.49-8,.41-1.37,1.08-2,1.62-2C56.67.5,71.94,7.35,73.3,8.72c.27.46,1.21,1.6,1.21,2.28,0,1.6-3.65,7.54-4.46,8.91C70.86,48.45,75.86,83.61,82.62,109.64Z"/></g></g></svg>