<svg xmlns="http://www.w3.org/2000/svg" viewBox="0 0 400.44 34.51"><defs><style>.cls-1{fill:#8b000f;}</style></defs><g id="圖層_2" data-name="圖層 2"><g id="圖層_1-2" data-name="圖層 1"><path class="cls-1" d="M3.87,21.85c0-14.94.1-9.56,0-17.59,0-1.61.15-2.07.54-2.07s1.23.91,1.72,1.33c.74.7,8,7.36,15.6,14.19,4.85,4.39,10.2,9.44,11.77,10.8L33,7.49c0-2.69-.4-3.6-1.92-3.93A11.56,11.56,0,0,0,29,3.35c-.54,0-.69-.12-.69-.29s.39-.29,1-.29c2.21,0,4.56.13,5.1.13s2.16-.13,4.17-.13c.54,0,.88,0,.88.29s-.19.25-.54.29-.68.08-1.27.17c-1.38.25-1.72.87-1.72,3.72l-.1,24.17c0,2.73-.1,2.94-.44,2.94s-1-.46-3.58-2.65c-.54-.41-7.6-6.5-12.8-11.22C13.29,15.31,7.75,10.1,6.18,8.61l.64,19.82c.1,3.39.59,4.47,1.91,4.8a12.43,12.43,0,0,0,2.45.25c.25,0,.39.08.39.25s-.29.33-.88.33c-2.79,0-4.76-.13-5.2-.13s-2.5.13-4.71.13c-.49,0-.78,0-.78-.33s.15-.25.39-.25a8.1,8.1,0,0,0,2-.25c1.23-.29,1.47-1.49,1.47-5.26Z"/><path class="cls-1" d="M50.81,17.63c0-5.42,0-6.42-.1-7.53s-.44-1.74-1.86-2A10.11,10.11,0,0,0,47.67,8C47.33,8,47,7.9,47,7.78s.25-.33.74-.33c1,0,2.3.08,5,.12.25,0,9,0,10,0s90.76-.08,91.15-.21a1.78,1.78,0,0,1,.54-.12c.1,0,.2.08.2.29a16.49,16.49,0,0,0-.4,1.86c0,.71-.09,1.37-.14,2.15,0,.38-.1.63-.35.63s-.34-.17-.34-.46a3.59,3.59,0,0,0-.34-1.32c-.3-.83-90-1.12-92.43-1.25C60,9.06,55.18,9,55.08,9s-.25.08-.25.33v9.4c0,.24.05.41.3.41.59,0,5.59,0,6.62-.12s91.1-.17,91.49-.62c.2-.25.35-.34.54-.34s.2.05.2.25-.2,1-.34,2.2-.15,2-.2,2.52c-.05.33-.15.46-.34.46s-.3-.25-.3-.54a4.42,4.42,0,0,0-.14-1c-.2-.53-89.74-1.11-91.6-1.24-1.13-.08-5.1-.16-5.88-.16-.3,0-.35.12-.35.29v3c0,1.28,0,4.92,0,5.63.1,1.53.35,2.31,1.38,2.69a10.89,10.89,0,0,0,3.58.37c.93,0,91.74,0,93-.25,1.48-.37,1.82-1.2,2.21-2.73.1-.42.25-.58.44-.58s.3.37.3.62-.4,2.9-.54,3.6-.54.91-2.16.91l-95.57-.08c-1.71,0-4-.13-5.79-.13-1.12,0-2.06.13-3.23.13-.44,0-.69-.08-.69-.29s.2-.29.44-.29a3.89,3.89,0,0,0,1-.13c.89-.16,1.47-.7,1.57-3.27,0-1.4.1-3.1.1-6.24Z"/><path class="cls-1" d="M181.31,23.84c0,3.18.05,6.12.24,7.65.15,1,.25,1.57,1.47,1.82a10.94,10.94,0,0,0,1.92.17c.39,0,.58.12.58.25s-.14.33-.63.33c-2.5,0-5.4-.13-5.59-.13s-3.09.13-4.37.13c-.54,0-.73-.08-.73-.29s.14-.29.53-.29a9.66,9.66,0,0,0,1.08,0c.94-.13,1.08-.62,1.28-2s.19-4.47.19-7.57V9.06c-1.61,0-4.21,0-6.17,0-3.14.05-3.83.46-4.52,1.33a6.08,6.08,0,0,0-.73,1.28c-.15.29-.25.33-.44.33s-.25-.16-.25-.37.69-3,1-4.1c.15-.49.3-.66.44-.66.35,0,1.28.37,2.16.46,1.72.16,3.09.2,3.14.2H188a25.82,25.82,0,0,0,3.53-.2,6.3,6.3,0,0,1,.93-.17c.2,0,.29.21.29.37,0,1.16-.09,3.89-.09,4.22s-.2.5-.35.5-.34-.16-.34-.5a4,4,0,0,0,0-.58c-.2-1.65-.83-2.06-5.79-2.11-1.86,0-3.38,0-4.8,0Z"/><path class="cls-1" d="M199.5,9.89c-.39.41-.68.54-.88.54-.39,0,0-.62.15-.75A10.88,10.88,0,0,0,201,3.77c0-2.24-.73-2.86-1.37-3.4-.24-.16-.1-.37.2-.37a10.69,10.69,0,0,1,3.28.58c.74.33,1,.62,1,1.32C204.06,4.68,201.46,8,199.5,9.89Z"/><path class="cls-1" d="M206.17,33.6c-.63-.25-.63-.41-.63-1.4,0-1.91.14-3.31.19-3.89.05-.38.15-.58.39-.58s.35.12.35.41a4.54,4.54,0,0,0,.14,1.24c.64,2.69,3.54,3.73,6.38,3.73,4.07,0,6-2.36,6-4.43,0-2.36-1.27-3.81-4.85-6.25l-2-1.28c-4.71-3.19-5.69-5.38-5.69-7.82,0-3.81,3.58-6.38,9.07-6.38a20.73,20.73,0,0,1,4,.33,9.23,9.23,0,0,0,1.67.21c.34,0,.44.08.44.25s-.19,1.61-.19,4c0,.62-.1.87-.35.87s-.29-.16-.34-.45a4.91,4.91,0,0,0-.59-1.95c-.24-.37-1.37-1.94-5.49-1.94-3,0-5.15,1.49-5.15,4,0,1.94,1.17,3.14,5.25,5.75l1.12.75c5.1,3.31,6.43,5.5,6.43,8.44a7,7,0,0,1-3.73,5.87A14,14,0,0,1,212,34.51,16.07,16.07,0,0,1,206.17,33.6Z"/><path class="cls-1" d="M254.92,22.14c0,6.08.2,8.73,1.08,9.48s2.06.95,5.89.95c2.6,0,4.76,0,5.93-1.24a5.41,5.41,0,0,0,1.28-2.49c0-.33.15-.53.44-.53s.29.16.29.62a22.7,22.7,0,0,1-.73,4.13c-.34,1-.49,1.12-3.09,1.12-4.22,0-8.39-.25-13.15-.25-1.52,0-3,.13-4.8.13-.54,0-.79-.08-.79-.33s.1-.25.4-.25a8.18,8.18,0,0,0,1.47-.17c1-.16,1.22-1.07,1.42-2.27a86.78,86.78,0,0,0,.24-9V14.77c0-6.45,0-7.61-.09-8.93s-.49-2.07-2.11-2.36a10,10,0,0,0-1.67-.13c-.2,0-.39-.08-.39-.25s.24-.33.78-.33c2.21,0,5.3.13,5.54.13s3.83-.13,5.3-.13c.54,0,.79.09.79.33s-.2.25-.4.25a12.21,12.21,0,0,0-1.61.13c-1.43.2-1.82.91-1.92,2.36s-.1,2.48-.1,8.93Z"/><path class="cls-1" d="M278.71,17.63c0-5.46,0-6.46-.1-7.57s-.39-1.74-1.42-1.91c-.49-.08-.83-.08-1.13-.12s-.54-.13-.54-.29.2-.29.74-.29c1.52,0,4.32.12,4.46.12s3-.12,4.42-.12c.49,0,.73.08.73.29s-.14.25-.54.29-.54,0-.88.08c-1.42.17-1.57.79-1.67,2s0,2.07,0,7.53v6.21a63.15,63.15,0,0,0,.2,7.57c.2,1.2.39,1.65,1.67,1.9a12.49,12.49,0,0,0,1.86.17c.44,0,.54.12.54.29s-.2.29-.69.29c-2.5,0-5.34-.13-5.59-.13s-3,.13-4.41.13c-.44,0-.79-.08-.79-.29s.2-.29.64-.29a6.3,6.3,0,0,0,1.18-.13c.83-.16,1-1,1.13-2a63.38,63.38,0,0,0,.24-7.53Z"/><path class="cls-1" d="M297.94,17.63c0-5.42,0-6.42-.1-7.53S297.5,8.28,296,8.15c-.45,0-.79,0-1.23-.08s-.64-.17-.64-.33.25-.29.74-.29c1.76,0,3.38.12,5,.12.74,0,9.66,0,10.69,0a8.42,8.42,0,0,0,2.21-.29,1.82,1.82,0,0,1,.49-.12c.15,0,.25.12.15.37a7.56,7.56,0,0,0-.3,1.28c-.19,1.08-.14,1.82-.24,2.9,0,.46-.15.62-.35.62s-.34-.21-.39-.5a3.13,3.13,0,0,0-.78-2.07,4.72,4.72,0,0,0-2.75-.57c-2.11-.05-4-.09-6.18-.09-.34,0-.44.09-.44.42v9.35c0,.21.05.37.34.37,2,0,4.37,0,6,0,2,0,2.64-.12,3.28-.79.2-.2.3-.33.49-.33s.2.17.2.38-.2.91-.34,2.15a17.83,17.83,0,0,0-.2,2.4c0,.41-.1.62-.34.62s-.3-.25-.35-.62c0-.58-.14-2-2.55-2.24-1-.12-5.39-.12-6.18-.12-.29,0-.34.08-.34.37v2.9c0,2.77.05,5.25.1,6.91.05,2.07.39,2.36,1.76,2.52.64.09,1.08.13,1.52.17s.59.12.59.29-.15.29-.64.29c-2.55,0-5.24-.13-5.44-.13h-.34c-.93,0-2.95.13-4,.13-.44,0-.68-.08-.68-.29s.1-.25.49-.29.73,0,1-.08c1.13-.13,1.27-.79,1.37-2.28s.2-4,.2-7.28Z"/><path class="cls-1" d="M323.29,17.63c0-5.42,0-6.42-.09-7.53s-.44-1.74-1.87-2A9.78,9.78,0,0,0,320.16,8c-.35,0-.64-.13-.64-.25s.24-.33.73-.33c1,0,2.31.08,5.06.12.24,0,70.47,0,71.45,0a7.79,7.79,0,0,0,1.92-.21,1.72,1.72,0,0,1,.54-.12c.09,0,.19.08.19.29A17.52,17.52,0,0,0,399,9.35c0,.71-.1,1.37-.15,2.15,0,.38-.1.63-.34.63s-.34-.17-.34-.46a3.38,3.38,0,0,0-.35-1.32c-.29-.83-62.24-1.12-64.69-1.25-.64,0-5.49-.08-5.59-.08s-.24.08-.24.33v9.4c0,.24.05.41.29.41.59,0,5.59,0,6.62-.12s63.37-.17,63.76-.62c.2-.25.34-.34.54-.34s.19.05.19.25-.19,1-.34,2.2-.15,2-.19,2.52c-.05.33-.15.46-.35.46s-.29-.25-.29-.54a4,4,0,0,0-.15-1c-.2-.53-62-1.11-63.86-1.24-1.12-.08-5.1-.16-5.88-.16-.29,0-.34.12-.34.29v3c0,1.28-.05,4.92,0,5.63.09,1.53.34,2.31,1.37,2.69a10.93,10.93,0,0,0,3.58.37c.93,0,64,0,65.23-.25,1.47-.37,1.81-1.2,2.21-2.73.09-.42.24-.58.44-.58s.29.37.29.62-.39,2.9-.54,3.6-.54.91-2.16.91l-67.82-.08c-1.72,0-4-.13-5.79-.13-1.13,0-2.06.13-3.24.13-.44,0-.69-.08-.69-.29s.2-.29.45-.29a4,4,0,0,0,1-.13c.88-.16,1.47-.7,1.57-3.27.05-1.4.09-3.1.09-6.24Z"/></g></g></svg>