<svg xmlns="http://www.w3.org/2000/svg" viewBox="0 0 113.7 204.82"><defs><style>.cls-1{fill:#0f3480;}.cls-2{fill:#fff;stroke:#0f3480;stroke-miterlimit:10;}</style></defs><g id="圖層_2" data-name="圖層 2"><g id="圖層_1-2" data-name="圖層 1"><path class="cls-1" d="M36.54,59.84H57.35V26.09c0-4.75-.14-9.74-.41-14.27-.27-3.39-1.49-7.7-1.49-10.19C55.45.5,56.13.5,56.67.5,59.1.5,70.05,5,72.08,7.07a5.56,5.56,0,0,1,1.75,3.62c0,2.27-2.83,5.44-3.78,6.57V59.84H92.89C94,58,98.43,49.2,99.91,49.2c.68,0,1.08.68,1.49,1.13l7,11.78a6.36,6.36,0,0,1,.94,3.17c0,1.81-.81,2.49-1.75,2.49H70.05v50.51H84.64c.68-1.13,6-11.1,7.17-11.1,1.48,0,8,11.78,8.91,13.59a5.14,5.14,0,0,1,1.09,3.17c0,1.59-1,2.27-1.9,2.27H70.05v66.13H96.94c.68-1.13,5.81-11.09,7.3-11.09.67,0,2,2,2.43,2.94l6.08,10.64a5,5,0,0,1,1,2.95c0,1.81-.81,2.72-1.76,2.72H21.4l-1.89,3.17-4.6-12.46c2.71.23,5.68,1.13,8.25,1.13H57.35V126.21H35.86L34,129.6l-4.6-12.68c2.71.45,5.68,1.36,8.25,1.36H57.35V67.77H34.78C29.1,89.29,25.19,103.1,16.54,121c-.68,1.35-3.65,8.15-4.46,8.15-.54,0-.81-.91-.81-1.58S16,106.5,16.94,102.65C18.83,94,20.19,85,21.67,76.38c3.11-18.8,5.41-35.34,6.08-54.82a1.73,1.73,0,0,1,.95-.22c2.84,0,16.22,8.38,16.22,12.91,0,2-3.38,4.53-4.19,5.21C39.37,46.25,37.89,53.05,36.54,59.84Z"/><path class="cls-2" d="M25.77,59.84H46.58V26.09c0-4.75-.13-9.74-.41-14.27-.27-3.39-1.48-7.7-1.48-10.19C44.69.5,45.36.5,45.9.5,48.34.5,59.28,5,61.31,7.07a5.56,5.56,0,0,1,1.76,3.62c0,2.27-2.84,5.44-3.79,6.57V59.84H82.12c1.08-1.81,5.54-10.64,7-10.64.67,0,1.08.68,1.48,1.13l7,11.78a6.37,6.37,0,0,1,1,3.17c0,1.81-.81,2.49-1.76,2.49H59.28v50.51h14.6c.67-1.13,5.94-11.1,7.16-11.1,1.49,0,8,11.78,8.92,13.59A5.2,5.2,0,0,1,91,123.94c0,1.59-1,2.27-1.89,2.27H59.28v66.13H86.17c.68-1.13,5.82-11.09,7.3-11.09.68,0,2,2,2.43,2.94L102,194.83a5,5,0,0,1,1,2.95c0,1.81-.81,2.72-1.76,2.72H10.63l-1.89,3.17L4.15,191.21c2.7.23,5.67,1.13,8.24,1.13H46.58V126.21H25.09L23.2,129.6l-4.59-12.68c2.7.45,5.67,1.36,8.24,1.36H46.58V67.77H24C18.34,89.29,14.42,103.1,5.77,121c-.68,1.35-3.65,8.15-4.46,8.15-.54,0-.81-.91-.81-1.58s4.73-21.07,5.68-24.92C8.07,94,9.42,85,10.9,76.38,14,57.58,16.31,41,17,21.56a1.69,1.69,0,0,1,.94-.22c2.84,0,16.22,8.38,16.22,12.91,0,2-3.38,4.53-4.19,5.21C28.61,46.25,27.12,53.05,25.77,59.84Z"/></g></g></svg>