<svg xmlns="http://www.w3.org/2000/svg" viewBox="0 0 354.6 335.71"><defs><style>.cls-1{fill:#fff;}.cls-1,.cls-3{stroke:#574e96;stroke-linejoin:round;}.cls-2{fill:#574e96;}.cls-3{fill:none;}.cls-4{fill:#edebf4;}.cls-5{fill:#aaa0c9;}.cls-6{fill:#f6f5fa;}.cls-7{fill:#2f318d;}.cls-8{fill:#2a2f84;}.cls-9{fill:#0f3480;}</style></defs><g id="圖層_2" data-name="圖層 2"><g id="圖層_1-2" data-name="圖層 1"><rect class="cls-1" x="0.5" y="101.92" width="70.2" height="53.41"/><line class="cls-1" x1="0.5" y1="110.59" x2="70.7" y2="110.59"/><rect class="cls-2" x="14.26" y="104.32" width="3.18" height="3.18"/><rect class="cls-2" x="63.79" y="104.32" width="3.18" height="3.18"/><rect class="cls-2" x="9.71" y="104.32" width="3.18" height="3.18"/><rect class="cls-2" x="5.17" y="104.32" width="3.18" height="3.18"/><rect class="cls-1" x="239.21" y="173.69" width="68.14" height="51.85"/><line class="cls-3" x1="239.21" y1="182.11" x2="307.35" y2="182.11"/><rect class="cls-2" x="252.57" y="176.02" width="3.09" height="3.09"/><rect class="cls-2" x="300.64" y="176.02" width="3.09" height="3.09"/><rect class="cls-2" x="248.16" y="176.02" width="3.09" height="3.09"/><rect class="cls-2" x="243.74" y="176.02" width="3.09" height="3.09"/><rect class="cls-1" x="278.01" y="46.46" width="76.09" height="57.9"/><line class="cls-3" x1="278.01" y1="55.86" x2="354.1" y2="55.86"/><rect class="cls-2" x="292.92" y="49.06" width="3.45" height="3.45"/><rect class="cls-2" x="346.61" y="49.06" width="3.45" height="3.45"/><rect class="cls-2" x="288" y="49.06" width="3.45" height="3.45"/><rect class="cls-2" x="283.07" y="49.06" width="3.45" height="3.45"/><rect class="cls-1" x="26.38" y="136.77" width="82.58" height="62.83"/><line class="cls-3" x1="26.38" y1="146.98" x2="108.96" y2="146.98"/><rect class="cls-2" x="42.56" y="139.6" width="3.74" height="3.74"/><rect class="cls-2" x="100.83" y="139.6" width="3.74" height="3.74"/><rect class="cls-2" x="37.22" y="139.6" width="3.74" height="3.74"/><rect class="cls-2" x="31.87" y="139.6" width="3.74" height="3.74"/><ellipse class="cls-4" cx="234.68" cy="131.09" rx="16.24" ry="27.9"/><path class="cls-5" d="M234.68,152.19c-3.76,0-9.44-8.42-9.44-21.1s5.68-21.1,9.44-21.1,9.44,8.42,9.44,21.1S238.44,152.19,234.68,152.19Z"/><ellipse class="cls-4" cx="112.66" cy="131.04" rx="16.24" ry="27.9"/><path class="cls-5" d="M112.66,152.14c-3.76,0-9.44-8.42-9.44-21.1S108.9,110,112.66,110s9.45,8.41,9.45,21.09S116.42,152.14,112.66,152.14Z"/><path class="cls-5" d="M279.67,335.71a151.32,151.32,0,0,0-12.32-42.82c-32.26-43.15-77.79-60.6-82.32-62.26l-.11-.14H162.43l-.12.14c-4.53,1.66-50.06,19.11-82.32,62.26a151.32,151.32,0,0,0-12.32,42.82Z"/><path class="cls-5" d="M192.57,223.1V187.75H154.78v22.06C163.68,222.32,178.18,224.58,192.57,223.1Z"/><path class="cls-4" d="M154.78,209.81v87.61h37.79V223.1C178.18,224.58,163.68,222.32,154.78,209.81Z"/><polygon class="cls-2" points="151.69 233.78 117.8 259.11 139.9 265.75 136.81 294.92 176.83 313.85 151.69 233.78"/><polygon class="cls-5" points="154.41 231.06 120.52 256.38 142.62 263.03 139.54 292.19 179.55 311.12 154.41 231.06"/><polygon class="cls-2" points="195.94 232.28 231.4 255.35 209.78 263.42 214.75 292.32 174.79 315.26 195.94 232.28"/><polygon class="cls-5" points="192.82 230.49 228.29 253.55 206.67 261.62 211.64 290.52 171.67 313.46 192.82 230.49"/><ellipse class="cls-6" cx="173.37" cy="113.2" rx="61.7" ry="99.4"/><path class="cls-7" d="M123.77,75.78c-2.67,7-4.88,28.92-6,38.29a3.77,3.77,0,0,1-6.28,2.35c-4-3.66-4.4-16.8-5.77-25C103.33,77,128.4,63.71,123.77,75.78Z"/><path class="cls-8" d="M218.67,123.46s-1.31,7.21-23.56,4.6C195.11,128.06,201.22,112.26,218.67,123.46Z"/><path class="cls-8" d="M189.18,109.64s11.1-13,34.69-1.3Z"/><path class="cls-8" d="M132.39,123.46s1.31,7.21,23.55,4.6C155.94,128.06,149.83,112.26,132.39,123.46Z"/><path class="cls-8" d="M160.39,109.64s-11.1-13-34.69-1.3Z"/><path class="cls-8" d="M175.7,139v19.64S164.6,151.94,175.7,139Z"/><path class="cls-8" d="M165.86,177.12H187S174.56,171.42,165.86,177.12Z"/><path class="cls-9" d="M233.65,45.7s-7.15-20.86-32.34-30.59S151.22,6.76,146.12,1.2s-7.5,9.73-1.8,15.3-38.19,5.84-48.94,38.38c0,0,7.25,1.39,12.65,0S89.74,63.5,82.54,83c0,0,1.2,2.78,14.09,2.51,0,0-7.54,17-1.25,20.76s38.44-15.48,43.24-26c0,0-5.8,13.35-.1,15s53.19-22.81,55.29-34.77c0,0-.3,5.29,4.8,11.41,0,0,14.39-6.4,15.29-12.24A107.52,107.52,0,0,1,224.2,78.8c2.68,6.46,4.88,26.82,6,35.51.36,2.82,4,4.1,6.27,2.19,4-3.4,9.06-13.69,10.42-21.29,2.4-13.35.9-35.88-1.5-41.44S233.65,45.7,233.65,45.7Z"/></g></g></svg>