<svg xmlns="http://www.w3.org/2000/svg" viewBox="0 0 109.61 179.74"><defs><style>.cls-1{fill:#0f3480;}.cls-2{fill:#fff;stroke:#0f3480;stroke-miterlimit:10;}</style></defs><g id="圖層_2" data-name="圖層 2"><g id="圖層_1-2" data-name="圖層 1"><path class="cls-1" d="M30,59.56V23a47.49,47.49,0,0,0-.27-6.19c-.27-2.18-1.48-4.37-1.48-6.19,0-1.09.4-1.45,1.21-1.45,2.43,0,12.43,4,13.92,5.82a3.69,3.69,0,0,1,1.22,2.73c0,1.46-3.38,3.83-4.19,4.37V59.56H41.5c.67-1.27,4.19-7.28,5.81-7.28.94,0,1.89,1.46,2.43,2.37.95,1.45,5.68,8,5.68,10.19a1.72,1.72,0,0,1-1.76,1.82H40.42V96.89c2.43-1.46,12.16-7.83,12.56-7.83s1,.37,1,.73c0,.73-.81,1.64-1.08,2-4.19,4.74-8.38,9.65-12.43,14.57v46.43c0,7.47.54,15.11.81,22.58a62,62,0,0,1-12.16,4.37c.27-7.83.81-15.84.94-23.67.14-12.75,0-25.68,0-38.42-4.86,5.28-10.13,10.74-14.32,17.11L8.26,117.28A190.61,190.61,0,0,0,30,103.81V66.66H20.28a177.22,177.22,0,0,1-8.92,25.68c-.4.91-1.89,4.91-2.7,4.91-.54,0-.81-.72-.81-1.27a22.58,22.58,0,0,1,.68-4.19c1.08-6.19,1.89-12.38,2.56-18.57,1.22-9.65,2.44-19.85,2.44-29.68,0-3.28-.55-6.74-.55-10,0-.91.41-1.09.95-1.09C15,32.43,25.42,37,26.5,37.89a2.81,2.81,0,0,1,1.08,2c0,1.27-2,3.28-2.57,4-1.08,5.28-2.16,10.38-3.24,15.66ZM71.9,50.09H60.15l-2.44,2.37L53,42.63a61.58,61.58,0,0,0,8.25,1.09H71.9V25.15a58,58,0,0,0-.67-10.75c-.27-1.27-1.35-4-1.35-5.09a1.49,1.49,0,0,1,1.48-1.46c1.89,0,12.84,4,14.06,5.46a3.36,3.36,0,0,1,.67,1.82c0,1.1-2.43,3.83-3,4.37V43.72h5.81c.54-.73,4.73-7.28,6.22-7.28.94,0,1.89,1.45,2.43,2.18.67.91,6.08,8,6.08,10a1.38,1.38,0,0,1-1.49,1.45h-19V76H94.61c.27-.55,5-7.83,6.21-7.83.81,0,2.16,1.82,2.7,2.55,1,1.27,6.09,7.28,6.09,9.65,0,1.64-1,2-2,2H84.47c2,.91,8.51,3.64,9.73,4.92a2.46,2.46,0,0,1,1.08,2c0,1.28-2.7,3.46-3.38,4v14h2c.27-.55,4.46-6.92,5.54-6.92s6.22,8.19,6.76,8.92a5.1,5.1,0,0,1,1.08,2.73,1.57,1.57,0,0,1-1.76,1.64H91.9v50.8c0,4.56-.4,7.11-2.83,10-3.92,4.73-7.71,4.55-12.71,4.55-.54-8-.54-10.74-6.48-14.57-.95-.54-4.33-2-4.33-3.46,0-.72.41-.91,1-.91a90.56,90.56,0,0,0,10.13.91c2.44,0,3.92,0,3.92-4V113.64H56.9L54.61,116l-4.87-9.83c2.7.36,5.68,1.09,8.38,1.09H80.55V94.89a79.39,79.39,0,0,0-.94-12.57H55.42L53,84.69l-4.86-9.83c2.7.36,5.68,1.09,8.38,1.09H71.9ZM52.85,118c1.08,0,4.46,2.55,5.4,3.28,4.6,3.1,10.27,11.11,10.27,18.39,0,3.82-1.89,9.1-5.27,9.1-2.29,0-4.59-2.18-5.27-5.28-.94-4.37-.4-8.92-1.48-13.11a39.77,39.77,0,0,0-3.11-8.55c-.14-.55-1.35-2.55-1.35-2.92A.86.86,0,0,1,52.85,118Z"/><path class="cls-2" d="M22.66,52.21V15.61a47.49,47.49,0,0,0-.27-6.19c-.27-2.18-1.49-4.37-1.49-6.19,0-1.09.41-1.46,1.22-1.46,2.43,0,12.43,4,13.92,5.83a3.69,3.69,0,0,1,1.22,2.73c0,1.46-3.38,3.83-4.19,4.37V52.21h1.08c.67-1.27,4.19-7.28,5.81-7.28.94,0,1.89,1.46,2.43,2.37,1,1.45,5.68,8,5.68,10.19a1.72,1.72,0,0,1-1.76,1.82H33.07V89.54c2.43-1.46,12.16-7.83,12.56-7.83s.95.36.95.73c0,.73-.81,1.64-1.08,2C41.31,89.18,37.12,94.09,33.07,99v46.43c0,7.47.54,15.11.81,22.58a62,62,0,0,1-12.16,4.37c.27-7.83.81-15.84.94-23.67.14-12.75,0-25.68,0-38.42C17.8,115.58,12.53,121,8.34,127.41L.91,109.93A190.61,190.61,0,0,0,22.66,96.46V59.31H12.93A177.22,177.22,0,0,1,4,85c-.4.91-1.89,4.91-2.7,4.91-.54,0-.81-.72-.81-1.27a22.58,22.58,0,0,1,.68-4.19c1.08-6.19,1.89-12.38,2.56-18.57C5,56.22,6.18,46,6.18,36.19c0-3.28-.55-6.74-.55-10,0-.91.41-1.09,1-1.09,1.08,0,11.49,4.55,12.57,5.46a2.81,2.81,0,0,1,1.08,2c0,1.27-2,3.28-2.57,4-1.08,5.28-2.16,10.38-3.24,15.66Zm41.89-9.47H52.8l-2.44,2.37-4.73-9.83a61.58,61.58,0,0,0,8.25,1.09H64.55V17.8a58,58,0,0,0-.67-10.75c-.27-1.27-1.35-4-1.35-5.09A1.49,1.49,0,0,1,64,.5C65.9.5,76.85,4.51,78.07,6a3.36,3.36,0,0,1,.67,1.82c0,1.09-2.43,3.83-3,4.37V36.37h5.81c.54-.73,4.73-7.28,6.22-7.28.94,0,1.89,1.45,2.43,2.18.67.91,6.08,8,6.08,10a1.38,1.38,0,0,1-1.49,1.45h-19V68.6H87.26c.26-.55,5-7.83,6.21-7.83.81,0,2.16,1.82,2.7,2.55,1,1.27,6.09,7.28,6.09,9.65,0,1.64-1,2-2,2H77.12c2,.91,8.51,3.64,9.73,4.92a2.46,2.46,0,0,1,1.08,2c0,1.28-2.7,3.46-3.38,4v14h2C86.85,99.37,91,93,92.12,93s6.22,8.19,6.76,8.92a5.1,5.1,0,0,1,1.08,2.73,1.57,1.57,0,0,1-1.76,1.64H84.55v50.8c0,4.56-.4,7.11-2.84,10-3.91,4.73-7.7,4.55-12.7,4.55-.54-8-.54-10.74-6.48-14.57-1-.54-4.33-2-4.33-3.46,0-.72.41-.91.95-.91a90.56,90.56,0,0,0,10.13.91c2.44,0,3.92,0,3.92-4V106.29H49.55l-2.29,2.37-4.87-9.83c2.7.36,5.68,1.09,8.38,1.09H73.2V87.54a78.24,78.24,0,0,0-1-12.57H48.07l-2.44,2.37-4.86-9.83c2.7.36,5.68,1.09,8.38,1.09h15.4Zm-19,67.92c1.08,0,4.46,2.55,5.4,3.28,4.6,3.1,10.27,11.11,10.27,18.39,0,3.82-1.89,9.1-5.27,9.1-2.29,0-4.59-2.18-5.27-5.28-.94-4.37-.4-8.92-1.48-13.11A39.77,39.77,0,0,0,46,114.49c-.14-.55-1.35-2.55-1.35-2.92A.86.86,0,0,1,45.5,110.66Z"/></g></g></svg>