<svg xmlns="http://www.w3.org/2000/svg" viewBox="0 0 35.85 273.07"><defs><style>.cls-1{fill:#b6c1d6;}.cls-2{fill:#fff;}</style></defs><g id="圖層_2" data-name="圖層 2"><g id="圖層_1-2" data-name="圖層 1"><path class="cls-1" d="M.23,29.21,16.46.85a1.69,1.69,0,0,1,2.93,0L35.62,29.21a1.69,1.69,0,0,1-1.47,2.53H1.69A1.69,1.69,0,0,1,.23,29.21Z"/><rect class="cls-2" x="15.7" y="9.66" width="4.46" height="11.34"/><rect class="cls-2" x="15.7" y="23.26" width="4.46" height="4.46"/><path class="cls-1" d="M.23,78.54,16.45,50.19a1.69,1.69,0,0,1,2.94,0L35.62,78.54a1.69,1.69,0,0,1-1.47,2.53H1.7A1.69,1.69,0,0,1,.23,78.54Z"/><rect class="cls-2" x="15.7" y="59" width="4.46" height="11.34"/><rect class="cls-2" x="15.7" y="72.6" width="4.46" height="4.46"/><path class="cls-1" d="M.23,126.54,16.45,98.19a1.69,1.69,0,0,1,2.94,0l16.23,28.35a1.69,1.69,0,0,1-1.47,2.53H1.7A1.69,1.69,0,0,1,.23,126.54Z"/><rect class="cls-2" x="15.7" y="107" width="4.46" height="11.34"/><rect class="cls-2" x="15.7" y="120.6" width="4.46" height="4.46"/><path class="cls-1" d="M.23,174.54l16.22-28.35a1.69,1.69,0,0,1,2.94,0l16.23,28.35a1.69,1.69,0,0,1-1.47,2.53H1.7A1.69,1.69,0,0,1,.23,174.54Z"/><rect class="cls-2" x="15.7" y="155" width="4.46" height="11.34"/><rect class="cls-2" x="15.7" y="168.6" width="4.46" height="4.46"/><path class="cls-1" d="M.23,222.54l16.22-28.35a1.69,1.69,0,0,1,2.94,0l16.23,28.35a1.69,1.69,0,0,1-1.47,2.53H1.7A1.69,1.69,0,0,1,.23,222.54Z"/><rect class="cls-2" x="15.7" y="203" width="4.46" height="11.34"/><rect class="cls-2" x="15.7" y="216.6" width="4.46" height="4.46"/><path class="cls-1" d="M.23,270.54l16.22-28.35a1.69,1.69,0,0,1,2.94,0l16.23,28.35a1.69,1.69,0,0,1-1.47,2.53H1.7A1.69,1.69,0,0,1,.23,270.54Z"/><rect class="cls-2" x="15.7" y="251" width="4.46" height="11.34"/><rect class="cls-2" x="15.7" y="264.6" width="4.46" height="4.46"/></g></g></svg>