<svg xmlns="http://www.w3.org/2000/svg" viewBox="0 0 323.11 325.1"><defs><style>.cls-1,.cls-4{fill:#fff;}.cls-1,.cls-2,.cls-3{stroke:#534c8e;stroke-linejoin:round;}.cls-2{fill:none;stroke-linecap:round;}.cls-3,.cls-7{fill:#574e96;}.cls-5{fill:#edebf4;}.cls-6{fill:#aaa0c9;}.cls-8{fill:#f6f5fa;}.cls-9{fill:#0f3480;}.cls-10{fill:#2a2f84;}</style></defs><g id="圖層_2" data-name="圖層 2"><g id="圖層_1-2" data-name="圖層 1"><rect class="cls-1" x="268.24" y="148.63" width="48.13" height="59.58" transform="translate(584.6 356.84) rotate(180)"/><polygon class="cls-1" points="322.61 202.71 322.61 143.13 274.48 143.13 274.48 182.71 294.48 202.71 322.61 202.71"/><polygon class="cls-1" points="274.48 182.71 294.48 202.71 294.48 182.71 274.48 182.71"/><line class="cls-2" x1="286.63" y1="160.74" x2="311.3" y2="160.74"/><line class="cls-2" x1="286.63" y1="154.61" x2="311.3" y2="154.61"/><line class="cls-2" x1="286.63" y1="166.86" x2="311.3" y2="166.86"/><line class="cls-2" x1="286.63" y1="172.98" x2="301.24" y2="172.98"/><rect class="cls-1" x="41.05" y="196.64" width="45.49" height="56.31"/><rect class="cls-1" x="48.23" y="190.4" width="45.49" height="56.31"/><line class="cls-2" x1="59.47" y1="206.8" x2="84.6" y2="206.8"/><line class="cls-2" x1="59.47" y1="201.88" x2="84.6" y2="201.88"/><line class="cls-2" x1="59.47" y1="211.72" x2="84.6" y2="211.72"/><line class="cls-2" x1="59.47" y1="216.5" x2="84.6" y2="216.5"/><line class="cls-2" x1="59.47" y1="221.28" x2="84.6" y2="221.28"/><line class="cls-2" x1="59.47" y1="226.19" x2="84.6" y2="226.19"/><line class="cls-2" x1="59.47" y1="231.11" x2="74.36" y2="231.11"/><rect class="cls-3" x="0.5" y="67.95" width="64.85" height="43.52"/><path class="cls-4" d="M27.63,97.33V82.09a1.48,1.48,0,0,1,2.53-1l7.62,7.62a1.48,1.48,0,0,1,0,2.1l-7.62,7.61A1.48,1.48,0,0,1,27.63,97.33Z"/><rect class="cls-4" x="3.85" y="71.18" width="2.92" height="2.92"/><rect class="cls-4" x="9.97" y="71.18" width="2.92" height="2.92"/><rect class="cls-4" x="16.1" y="71.18" width="2.92" height="2.92"/><rect class="cls-4" x="22.23" y="71.18" width="2.92" height="2.92"/><rect class="cls-4" x="28.35" y="71.18" width="2.92" height="2.92"/><rect class="cls-4" x="34.48" y="71.18" width="2.92" height="2.92"/><rect class="cls-4" x="40.61" y="71.18" width="2.92" height="2.92"/><rect class="cls-4" x="46.74" y="71.18" width="2.92" height="2.92"/><rect class="cls-4" x="52.86" y="71.18" width="2.92" height="2.92"/><rect class="cls-4" x="58.99" y="71.18" width="2.92" height="2.92"/><rect class="cls-4" x="3.89" y="105.35" width="2.92" height="2.92"/><rect class="cls-4" x="10.02" y="105.35" width="2.92" height="2.92"/><rect class="cls-4" x="16.14" y="105.35" width="2.92" height="2.92"/><rect class="cls-4" x="22.27" y="105.35" width="2.92" height="2.92"/><rect class="cls-4" x="28.4" y="105.35" width="2.92" height="2.92"/><rect class="cls-4" x="34.52" y="105.35" width="2.92" height="2.92"/><rect class="cls-4" x="40.65" y="105.35" width="2.92" height="2.92"/><rect class="cls-4" x="46.78" y="105.35" width="2.92" height="2.92"/><rect class="cls-4" x="52.91" y="105.35" width="2.92" height="2.92"/><rect class="cls-4" x="59.03" y="105.35" width="2.92" height="2.92"/><ellipse class="cls-5" cx="238.96" cy="129.74" rx="16.24" ry="27.9"/><path class="cls-6" d="M239,150.83c-3.76,0-9.44-8.41-9.44-21.09s5.68-21.1,9.44-21.1,9.45,8.42,9.45,21.1S242.72,150.83,239,150.83Z"/><ellipse class="cls-5" cx="105" cy="129.69" rx="16.24" ry="27.9"/><path class="cls-6" d="M105,150.78c-3.76,0-9.44-8.41-9.44-21.09s5.68-21.1,9.44-21.1,9.44,8.42,9.44,21.1S108.76,150.78,105,150.78Z"/><path class="cls-6" d="M280.49,325.1a151.32,151.32,0,0,0-12.32-42.82c-32.26-43.14-77.79-60.6-82.32-62.26l-.12-.14H163.24l-.12.14c-4.52,1.66-50.05,19.11-82.31,62.26A151.15,151.15,0,0,0,68.48,325.1Z"/><path class="cls-6" d="M193.38,212.49V177.14H155.59v22.07C164.5,211.71,179,214,193.38,212.49Z"/><path class="cls-5" d="M155.59,199.21v87.61h37.79V212.49C179,214,164.5,211.71,155.59,199.21Z"/><polygon class="cls-7" points="152.5 223.18 118.61 248.5 140.71 255.15 137.63 284.31 177.64 303.24 152.5 223.18"/><polygon class="cls-6" points="155.23 220.45 121.34 245.78 143.44 252.42 140.35 281.59 180.37 300.52 155.23 220.45"/><polygon class="cls-7" points="196.75 221.68 232.22 244.74 210.6 252.81 215.57 281.72 175.6 304.66 196.75 221.68"/><polygon class="cls-6" points="193.64 219.88 229.1 242.94 207.48 251.01 212.46 279.92 172.49 302.86 193.64 219.88"/><ellipse class="cls-8" cx="172.83" cy="119.42" rx="66.13" ry="82.57"/><path class="cls-9" d="M146.35,64.12s-13.9,34.65,75.22,60.16c0,0,9.23,3.67,11.1,10s9.64-6.94,11.4-18.31a57.38,57.38,0,0,0,14.69-57.43C249.16,24.89,170.23-.55,159.42,0s-26,15.53-30.68,23.57c0,0-81,36.77-22.24,107.36C106.5,130.94,101.06,84.09,146.35,64.12Z"/><path class="cls-10" d="M214.21,124.54s-1.31,7.21-23.55,4.61C190.66,129.15,196.76,113.34,214.21,124.54Z"/><path class="cls-10" d="M184.73,110.72s11.1-13,34.69-1.3Z"/><path class="cls-10" d="M127.93,124.54s1.31,7.21,23.55,4.61C151.48,129.15,145.38,113.34,127.93,124.54Z"/><path class="cls-10" d="M155.93,110.72s-11.09-13-34.69-1.3Z"/><path class="cls-10" d="M171.25,140.12v19.64S160.14,153,171.25,140.12Z"/><path class="cls-10" d="M161.41,178.2h21.14S170.11,172.51,161.41,178.2Z"/></g></g></svg>